<svg version="1.1" xmlns="http://www.w3.org/2000/svg" viewBox="0 0 905.7817146129329 521.2484026738694" width="905.7817146129329" height="521.2484026738694">
  <!-- svg-source:excalidraw -->
  
  <defs>
    <style class="style-fonts">
      @font-face {
        font-family: "Virgil";
        src: url("https://excalidraw.com/Virgil.woff2");
      }
      @font-face {
        font-family: "Cascadia";
        src: url("https://excalidraw.com/Cascadia.woff2");
      }
    </style>
  </defs>
  <g stroke-linecap="round"><g transform="translate(487.00944482471357 94.11703314605711) rotate(0 38.12463076801758 41.839062747971184)" fill-rule="evenodd"><path d="M-1.57 0.37 L1.14 84.43 L0.96 86.42 L16.8 90.09 L42.18 93.31 L62.38 89.62 L76.97 86.38 L77.21 -0.21 L65.88 -4.95 L36.94 -8.45 L11.72 -5.17 L1.58 -1.57 L0.23 -1.91" stroke="none" stroke-width="0" fill="#ced4da" fill-rule="evenodd"></path><path d="M-0.1 -0.17 C-0.03 12.48, -0.13 61.33, -0.05 75.34 C0.03 89.35, -0.42 81.76, 0.38 83.88 C1.18 86, 1.95 86.84, 4.72 88.06 C7.5 89.29, 11.01 90.53, 17.03 91.24 C23.05 91.96, 33.23 92.53, 40.83 92.34 C48.42 92.16, 56.7 91.2, 62.61 90.13 C68.51 89.06, 73.86 87.2, 76.26 85.91 C78.65 84.61, 76.71 83.81, 76.98 82.38 C77.25 80.95, 77.9 90.1, 77.88 77.34 C77.85 64.58, 77.08 18.58, 76.82 5.8 C76.56 -6.98, 77.04 2.33, 76.32 0.63 C75.6 -1.06, 74.96 -3.23, 72.5 -4.37 C70.04 -5.51, 67.56 -5.46, 61.56 -6.2 C55.56 -6.93, 43.66 -8.72, 36.48 -8.78 C29.3 -8.85, 24.12 -7.45, 18.48 -6.59 C12.85 -5.73, 5.69 -4.63, 2.65 -3.62 C-0.39 -2.61, 0.67 -1.27, 0.23 -0.52 C-0.21 0.24, 0.12 0.98, 0.01 0.91 M-1.62 -1.31 C-1.69 11.61, -1.4 62.52, -1.16 76.95 C-0.92 91.37, -1.28 83.78, -0.19 85.26 C0.9 86.74, 2.19 84.7, 5.37 85.82 C8.54 86.94, 12.72 90.99, 18.84 91.97 C24.97 92.96, 34.78 92.23, 42.12 91.71 C49.46 91.19, 57.26 89.9, 62.88 88.84 C68.49 87.79, 73.73 86.13, 75.81 85.37 C77.9 84.6, 75.46 85.57, 75.39 84.25 C75.32 82.93, 75.13 90.41, 75.42 77.45 C75.7 64.5, 77.21 19.31, 77.11 6.52 C77.01 -6.28, 75.48 2.68, 74.84 0.7 C74.2 -1.29, 75.55 -4.2, 73.26 -5.39 C70.97 -6.58, 67.26 -6.3, 61.11 -6.42 C54.96 -6.54, 43.28 -6.33, 36.37 -6.12 C29.45 -5.92, 24.9 -5.7, 19.63 -5.19 C14.35 -4.68, 8.14 -3.88, 4.72 -3.08 C1.29 -2.28, 0.1 -1.19, -0.91 -0.4 C-1.93 0.39, -1.5 1.5, -1.37 1.65" stroke="#364fc7" stroke-width="1" fill="none"></path></g></g><mask></mask><g stroke-linecap="round"><g transform="translate(487.53337426298856 151.2433168037869) rotate(0 38.519074662020785 3.916210267344468)"><path d="M-0.31 0.14 C0.11 0.75, 0.42 2.41, 2.4 3.53 C4.38 4.66, 8.33 6.02, 11.55 6.88 C14.78 7.73, 16.92 8.32, 21.74 8.66 C26.57 9.01, 33.91 9.19, 40.52 8.95 C47.12 8.7, 55.51 8.23, 61.36 7.18 C67.22 6.14, 72.98 4.06, 75.64 2.67 C78.3 1.28, 76.94 -0.84, 77.33 -1.17 M1.73 -0.84 C2.04 0.01, 0.07 4.18, 1.65 5.13 C3.22 6.08, 7.86 4.63, 11.18 4.85 C14.51 5.07, 16.99 5.63, 21.61 6.45 C26.24 7.26, 32.13 9.78, 38.93 9.74 C45.72 9.7, 56.69 7.03, 62.4 6.2 C68.12 5.38, 70.88 6.13, 73.21 4.78 C75.54 3.43, 75.8 -1.09, 76.39 -1.91" stroke="#364fc7" stroke-width="1" fill="none"></path></g></g><mask></mask><g stroke-linecap="round"><g transform="translate(486.50151694048475 122.27926146856407) rotate(0 38.54963799188813 3.9963935326491082)"><path d="M0.37 0.12 C0.88 0.77, 1.17 2.88, 2.79 4.01 C4.4 5.15, 6.84 6.13, 10.08 6.93 C13.32 7.72, 17.25 8.56, 22.24 8.79 C27.23 9.01, 33.21 8.64, 40.03 8.29 C46.86 7.94, 57.41 7.68, 63.19 6.68 C68.96 5.68, 72.23 3.27, 74.7 2.28 C77.16 1.28, 77.59 1.22, 78 0.69 M-0.9 -0.86 C-0.45 -0.58, -0.01 1.24, 2.23 2.21 C4.48 3.17, 9.24 4.19, 12.59 4.92 C15.95 5.66, 17.49 6, 22.37 6.64 C27.24 7.28, 35.32 8.94, 41.85 8.74 C48.38 8.54, 55.93 6.2, 61.52 5.44 C67.12 4.68, 72.78 4.94, 75.42 4.18 C78.07 3.43, 77.4 1.43, 77.4 0.91" stroke="#364fc7" stroke-width="1" fill="none"></path></g></g><mask></mask><g stroke-linecap="round" transform="translate(485.4435679584027 86.98476452037539) rotate(0 38.29876800932749 7.745637696423955)"><path d="M39.57 0.01 C47.64 -0.06, 59.16 0.5, 65.12 1.56 C71.09 2.61, 74.58 4.43, 75.37 6.33 C76.16 8.23, 74.31 11.47, 69.86 12.96 C65.42 14.44, 56.54 15.05, 48.7 15.23 C40.86 15.42, 30.26 14.6, 22.83 14.06 C15.4 13.53, 7.71 13.34, 4.12 12.02 C0.53 10.69, -0.42 7.97, 1.29 6.1 C3.01 4.23, 7.07 1.83, 14.41 0.81 C21.74 -0.22, 39.27 -0.13, 45.29 -0.05 C51.31 0.04, 50.43 1.28, 50.51 1.33 M56.17 0.83 C62.85 1.56, 69.69 4.43, 72.72 5.78 C75.75 7.12, 76.82 7.43, 74.36 8.88 C71.91 10.34, 65.06 13.31, 57.99 14.53 C50.91 15.74, 40.06 16.63, 31.92 16.18 C23.79 15.72, 14.48 13.15, 9.17 11.81 C3.87 10.47, 0.44 9.85, 0.08 8.14 C-0.29 6.42, 2.1 3.06, 6.99 1.52 C11.88 -0.02, 21.16 -1.05, 29.43 -1.11 C37.7 -1.17, 52.23 1.02, 56.63 1.16 C61.02 1.29, 55.95 -0.36, 55.79 -0.28" stroke="none" stroke-width="0" fill="#fff"></path><path d="M27.57 -0.24 C34.8 -0.62, 45.78 0.76, 53.19 1.53 C60.6 2.29, 68.38 2.89, 72.02 4.33 C75.66 5.77, 76.62 8.55, 75.01 10.14 C73.41 11.73, 68.89 13, 62.4 13.87 C55.9 14.74, 44.27 15.31, 36.06 15.37 C27.84 15.44, 19.1 15.31, 13.09 14.27 C7.08 13.23, 1.17 11.03, 0 9.13 C-1.18 7.23, 0.14 4.35, 6.02 2.86 C11.91 1.37, 28.74 0.71, 35.29 0.19 C41.83 -0.33, 45.18 -0.4, 45.28 -0.26 M30.3 -0.99 C37.65 -1.54, 48.07 0.13, 55.52 1.23 C62.97 2.33, 71.84 4.05, 75 5.61 C78.16 7.17, 77.38 9.19, 74.46 10.58 C71.54 11.98, 64.33 12.97, 57.47 13.99 C50.62 15.01, 41.45 16.95, 33.35 16.71 C25.24 16.47, 14.34 13.85, 8.82 12.56 C3.3 11.28, 0.24 10.51, 0.2 9.02 C0.17 7.52, 3.7 5.05, 8.6 3.6 C13.51 2.15, 25.94 0.94, 29.61 0.32 C33.29 -0.29, 30.1 -0.19, 30.66 -0.09" stroke="#364fc7" stroke-width="1" fill="none"></path></g><g stroke-linecap="round" transform="translate(521.9355550636252 111.46143220027898) rotate(0 5.613051577080881 6.091879242227833)"><path d="M5.55 -0.51 C6.67 -0.81, 6.92 -0.47, 7.75 0.51 C8.58 1.48, 10.15 3.99, 10.55 5.34 C10.95 6.68, 10.61 7.7, 10.15 8.6 C9.69 9.51, 8.75 10.05, 7.78 10.75 C6.81 11.45, 5.39 12.95, 4.32 12.8 C3.25 12.65, 2.25 11.14, 1.36 9.84 C0.47 8.54, -0.91 6.34, -0.99 4.98 C-1.07 3.62, -0.06 2.39, 0.89 1.69 C1.84 0.98, 3.88 1.12, 4.73 0.74 C5.59 0.37, 5.76 -0.7, 6.01 -0.56 M5.4 1 C6.51 0.92, 8.65 -0.02, 9.53 0.85 C10.41 1.72, 10.77 4.57, 10.68 6.22 C10.59 7.86, 9.76 9.92, 8.98 10.71 C8.21 11.5, 7.05 10.83, 6.04 10.97 C5.03 11.11, 4.07 12.24, 2.92 11.54 C1.78 10.85, -0.21 8.25, -0.81 6.8 C-1.41 5.34, -1.3 3.76, -0.66 2.81 C-0.02 1.86, 1.86 1.77, 3.03 1.1 C4.19 0.42, 5.56 -1.11, 6.33 -1.25 C7.09 -1.39, 7.55 -0.22, 7.64 0.25" stroke="none" stroke-width="0" fill="#868e96"></path><path d="M5.18 0.95 C6.14 0.88, 7.61 0.51, 8.48 1.21 C9.34 1.91, 9.85 3.92, 10.38 5.15 C10.9 6.38, 12.08 7.52, 11.62 8.58 C11.16 9.63, 8.71 10.77, 7.6 11.48 C6.5 12.19, 6.13 13.07, 4.98 12.82 C3.84 12.58, 1.57 11.35, 0.73 10.03 C-0.11 8.71, -0.07 6.25, -0.04 4.91 C-0.01 3.57, -0.12 2.9, 0.9 1.99 C1.93 1.09, 5.22 -0.28, 6.13 -0.53 C7.04 -0.79, 6.48 0.27, 6.37 0.47 M6.52 0.71 C7.86 1.4, 10.83 2.72, 11.58 3.89 C12.32 5.05, 11.53 6.58, 11 7.69 C10.46 8.79, 9.15 9.53, 8.37 10.5 C7.58 11.47, 7.48 13.52, 6.28 13.49 C5.08 13.46, 2.18 11.25, 1.17 10.34 C0.17 9.44, 0.28 9.19, 0.25 8.06 C0.23 6.93, 0.63 4.84, 1.03 3.58 C1.44 2.32, 1.61 1.07, 2.67 0.48 C3.73 -0.11, 6.34 0.03, 7.41 0.04 C8.48 0.06, 9.29 0.19, 9.09 0.55" stroke="#364fc7" stroke-width="1" fill="none"></path></g><g stroke-linecap="round" transform="translate(522.2866968475588 137.67804648734455) rotate(0 5.613051577080881 6.091879242227833)"><path d="M4.63 -0.51 C5.6 -0.34, 7.77 1.44, 8.76 2.38 C9.74 3.31, 10.3 4.09, 10.53 5.09 C10.76 6.08, 10.65 7.07, 10.16 8.32 C9.66 9.58, 8.61 11.99, 7.58 12.6 C6.55 13.2, 5.28 12.65, 3.98 11.96 C2.67 11.26, 0.52 9.61, -0.24 8.43 C-1 7.24, -0.87 5.9, -0.58 4.85 C-0.29 3.81, 0.35 3.08, 1.51 2.16 C2.68 1.24, 5.48 -0.5, 6.41 -0.68 C7.33 -0.86, 7.09 0.88, 7.04 1.07 M5.13 -1.27 C6.36 -1.5, 7.72 0.38, 8.56 1.53 C9.39 2.68, 9.91 4.58, 10.14 5.64 C10.37 6.7, 10.33 6.85, 9.93 7.89 C9.53 8.93, 8.94 11.47, 7.73 11.89 C6.52 12.32, 3.97 11.07, 2.66 10.42 C1.35 9.77, 0.24 8.83, -0.15 8 C-0.54 7.17, 0.04 6.74, 0.34 5.44 C0.65 4.14, 0.66 1.1, 1.7 0.2 C2.74 -0.7, 5.91 -0.08, 6.6 0.05 C7.3 0.18, 5.88 0.97, 5.88 0.98" stroke="none" stroke-width="0" fill="#868e96"></path><path d="M3.65 0.4 C4.6 -0.08, 5.85 0.69, 7.16 1.17 C8.47 1.65, 10.93 2.25, 11.51 3.28 C12.1 4.31, 10.95 5.93, 10.66 7.35 C10.37 8.77, 10.71 10.92, 9.77 11.79 C8.83 12.66, 6.35 12.9, 5.01 12.58 C3.67 12.25, 2.68 10.77, 1.73 9.85 C0.79 8.92, -0.56 8.28, -0.66 7.01 C-0.76 5.74, 0.24 3.36, 1.13 2.23 C2.03 1.11, 3.93 0.61, 4.69 0.26 C5.45 -0.09, 5.49 0.14, 5.69 0.15 M4.54 1.11 C5.75 0.59, 6.39 0.42, 7.25 0.66 C8.1 0.89, 8.87 1.23, 9.66 2.5 C10.45 3.77, 12.18 6.96, 12.01 8.26 C11.85 9.57, 9.66 9.5, 8.66 10.34 C7.65 11.17, 7.04 13.07, 5.99 13.28 C4.94 13.48, 3.52 12.54, 2.34 11.58 C1.16 10.62, -0.74 8.97, -1.07 7.51 C-1.39 6.06, -0.63 4.01, 0.37 2.83 C1.38 1.65, 4.64 0.62, 4.96 0.44 C5.28 0.27, 2.45 1.93, 2.27 1.79" stroke="#364fc7" stroke-width="1" fill="none"></path></g><g stroke-linecap="round" transform="translate(522.9355550636252 166.4467730586507) rotate(357.5021844865888 5.613051577080881 6.091879242227833)"><path d="M3.64 1.19 C4.78 0.88, 6.19 0.36, 7.31 0.61 C8.42 0.85, 9.71 1.35, 10.34 2.64 C10.97 3.94, 11.28 6.96, 11.09 8.38 C10.89 9.8, 10.31 10.66, 9.16 11.17 C8.01 11.68, 5.56 11.59, 4.2 11.44 C2.85 11.29, 1.81 10.92, 1.04 10.26 C0.26 9.59, -0.54 8.81, -0.45 7.43 C-0.37 6.05, 0.44 3.06, 1.55 1.98 C2.65 0.9, 5.32 1.27, 6.16 0.95 C7 0.63, 6.76 0.23, 6.6 0.05 M6.76 0.49 C7.76 1.12, 8.74 2.7, 9.37 3.58 C10.01 4.47, 10.55 4.6, 10.56 5.79 C10.58 6.97, 10.44 9.9, 9.46 10.72 C8.48 11.55, 6.05 10.91, 4.68 10.73 C3.31 10.55, 1.93 10.16, 1.22 9.65 C0.5 9.14, 0.54 8.93, 0.41 7.65 C0.29 6.37, -0.26 3.14, 0.44 1.95 C1.14 0.76, 3.39 0.64, 4.61 0.51 C5.82 0.37, 7.08 1.24, 7.72 1.14 C8.35 1.05, 8.43 -0.09, 8.41 -0.06" stroke="none" stroke-width="0" fill="#868e96"></path><path d="M7.47 1.33 C8.73 1.78, 11.14 2.56, 11.66 3.62 C12.18 4.68, 10.93 6.31, 10.57 7.71 C10.21 9.11, 10.47 11.2, 9.49 12.01 C8.5 12.81, 6 12.95, 4.67 12.55 C3.33 12.14, 2.38 10.57, 1.49 9.59 C0.6 8.6, -0.67 7.91, -0.7 6.64 C-0.72 5.36, 0.55 2.97, 1.33 1.93 C2.11 0.89, 2.81 0.55, 3.97 0.39 C5.13 0.24, 7.3 0.87, 8.28 1 C9.27 1.13, 10 1.21, 9.89 1.17 M6.02 0.38 C6.87 0.24, 7.88 0.34, 8.88 1.43 C9.89 2.52, 11.95 5.59, 12.05 6.9 C12.15 8.22, 10.29 8.29, 9.49 9.32 C8.69 10.35, 8.25 12.58, 7.23 13.08 C6.22 13.57, 4.72 13.01, 3.41 12.29 C2.09 11.58, -0.09 10.17, -0.67 8.81 C-1.26 7.44, -0.84 5.38, -0.09 4.09 C0.66 2.81, 3.03 1.56, 3.86 1.09 C4.68 0.61, 4.44 1.66, 4.84 1.26 C5.25 0.87, 6.14 -0.95, 6.29 -1.28" stroke="#364fc7" stroke-width="1" fill="none"></path></g><g transform="translate(484.3316093007668 188.03691465749353) rotate(0 40.82733917236328 10.200000000000045)"><text x="40.82733917236328" y="0" font-family="Virgil, Segoe UI Emoji" font-size="17.4778970902999px" fill="#364fc7" text-anchor="middle" style="white-space: pre;" direction="ltr" dominant-baseline="text-before-edge">DB - v1.0</text></g><g stroke-linecap="round"><g transform="translate(729.2528165555763 335.96260696847776) rotate(0 38.60616225370388 41.73070134218051)" fill-rule="evenodd"><path d="M-1.58 0.23 L-0.6 83.01 L3.03 85.96 L16.04 92.24 L41.29 89.66 L62.87 88.17 L76.69 86.04 L75.85 -3.07 L66.44 -6.08 L39.25 -9.15 L9.95 -5.83 L1.71 -3.16 L1.58 0.53" stroke="none" stroke-width="0" fill="#ced4da" fill-rule="evenodd"></path><path d="M0.16 -0.77 C0.16 12, 1.11 62.28, 1.08 76.28 C1.05 90.29, -0.5 81.24, -0.04 83.25 C0.42 85.27, 0.71 87.23, 3.84 88.39 C6.97 89.55, 12.47 89.7, 18.76 90.22 C25.04 90.74, 34.25 91.68, 41.54 91.5 C48.83 91.33, 56.84 89.99, 62.48 89.16 C68.11 88.34, 73.07 87.63, 75.35 86.56 C77.64 85.49, 75.84 84.55, 76.17 82.75 C76.5 80.96, 77.2 88.37, 77.32 75.78 C77.44 63.2, 77.09 20.05, 76.88 7.22 C76.67 -5.61, 77.1 0.62, 76.05 -1.22 C75 -3.05, 72.92 -3.04, 70.56 -3.77 C68.2 -4.5, 67.45 -4.95, 61.89 -5.59 C56.34 -6.24, 44.6 -7.39, 37.23 -7.65 C29.87 -7.91, 23.25 -8.07, 17.7 -7.16 C12.16 -6.25, 7.03 -3.32, 3.97 -2.17 C0.92 -1.03, 0.03 -0.79, -0.6 -0.28 C-1.24 0.23, 0.03 0.74, 0.16 0.88 M-1.21 1.44 C-1.4 13.94, 0.5 60.92, 0.56 74.73 C0.63 88.54, -1.4 82.37, -0.83 84.3 C-0.25 86.24, 0.91 85.31, 4.02 86.32 C7.12 87.34, 11.89 89.73, 17.81 90.41 C23.73 91.09, 32.07 90.33, 39.55 90.43 C47.02 90.53, 56.86 91.71, 62.68 91.03 C68.49 90.35, 71.91 87.4, 74.44 86.36 C76.96 85.33, 77.18 86.7, 77.81 84.82 C78.45 82.94, 78.33 88.38, 78.23 75.08 C78.13 61.78, 77.23 17.89, 77.2 5.02 C77.18 -7.84, 79.24 -0.54, 78.09 -2.12 C76.94 -3.7, 73.04 -3.92, 70.3 -4.48 C67.55 -5.04, 67.08 -4.9, 61.61 -5.5 C56.15 -6.1, 44.71 -7.96, 37.51 -8.06 C30.32 -8.15, 24.17 -6.65, 18.43 -6.07 C12.69 -5.48, 5.9 -5.54, 3.07 -4.54 C0.25 -3.53, 2.18 -1.06, 1.48 -0.03 C0.77 0.99, -1.02 1.74, -1.15 1.59" stroke="#2b8a3e" stroke-width="1" fill="none"></path></g></g><mask></mask><g stroke-linecap="round"><g transform="translate(729.7767459938513 393.08889062620847) rotate(0 39.306722120402995 3.7665977074473176)"><path d="M0.82 1.08 C1.13 1.69, 0.34 1.88, 1.98 2.9 C3.62 3.92, 7.09 6.42, 10.67 7.21 C14.25 8, 18.38 7.49, 23.47 7.64 C28.56 7.78, 34.94 8.34, 41.23 8.1 C47.52 7.87, 55.65 7.01, 61.24 6.22 C66.82 5.42, 72.19 4.49, 74.74 3.32 C77.29 2.15, 76.07 -0.09, 76.52 -0.79 M-0.2 0.6 C-0.07 1.44, -0.66 3.38, 1.01 4.17 C2.68 4.97, 5.96 4.63, 9.83 5.35 C13.71 6.08, 19.21 8.02, 24.24 8.54 C29.27 9.06, 33.69 8.49, 40.01 8.46 C46.34 8.44, 56.29 9.45, 62.21 8.39 C68.12 7.33, 72.72 3.74, 75.49 2.12 C78.26 0.5, 78.75 -1.18, 78.82 -1.34" stroke="#2b8a3e" stroke-width="1" fill="none"></path></g></g><mask></mask><g stroke-linecap="round"><g transform="translate(728.7448886713474 364.1248352909847) rotate(0 37.950149336119495 3.5978108466695176)"><path d="M-0.05 -0.51 C0.13 0.03, -0.07 3.28, 1.9 4.34 C3.88 5.41, 8.3 5.3, 11.8 5.9 C15.31 6.5, 18.27 7.71, 22.95 7.95 C27.64 8.18, 33.35 7.42, 39.9 7.32 C46.46 7.22, 56.62 8.12, 62.28 7.34 C67.95 6.56, 71.36 4.02, 73.89 2.65 C76.41 1.28, 76.89 -0.51, 77.44 -0.87 M-1.53 -1.82 C-1.6 -1.09, -1.3 1.24, 0.88 2.71 C3.07 4.18, 7.8 5.97, 11.56 7.02 C15.33 8.07, 18.44 8.98, 23.45 9.02 C28.47 9.06, 34.93 7.7, 41.65 7.27 C48.38 6.84, 58.38 6.86, 63.8 6.44 C69.23 6.02, 72.06 6.07, 74.19 4.76 C76.31 3.44, 76.34 -0.6, 76.56 -1.46" stroke="#2b8a3e" stroke-width="1" fill="none"></path></g></g><mask></mask><g stroke-linecap="round" transform="translate(727.6869396892654 328.83033834279695) rotate(0 38.29876800932748 7.745637696423955)"><path d="M52.01 -0.13 C59.24 0.32, 67.77 2.26, 71.64 3.98 C75.5 5.69, 76.78 8.62, 75.2 10.16 C73.61 11.7, 68.41 12.17, 62.14 13.21 C55.86 14.26, 45.79 16.4, 37.55 16.42 C29.31 16.43, 18.92 14.73, 12.7 13.33 C6.49 11.93, 1.28 9.66, 0.27 8 C-0.74 6.34, 2.36 4.68, 6.64 3.35 C10.93 2.01, 17.67 0.5, 25.99 -0.01 C34.32 -0.52, 50.96 0.1, 56.6 0.28 C62.24 0.45, 60.26 0.82, 59.81 1.05 M39.05 -1.27 C47.1 -1.01, 58.32 1.17, 64.5 2.29 C70.67 3.4, 74.88 3.8, 76.08 5.42 C77.29 7.03, 76.03 10.2, 71.71 11.96 C67.39 13.73, 58 15.58, 50.17 16 C42.34 16.41, 32.3 15.15, 24.73 14.44 C17.16 13.73, 8.57 12.93, 4.75 11.76 C0.93 10.58, 0.16 9.02, 1.81 7.38 C3.47 5.74, 8.26 2.91, 14.69 1.92 C21.12 0.94, 36.3 1.68, 40.41 1.5 C44.53 1.32, 39.4 0.95, 39.38 0.85" stroke="none" stroke-width="0" fill="#fff"></path><path d="M53.78 -0.04 C61.04 0.47, 68.34 3, 71.99 4.51 C75.65 6.03, 77.61 7.45, 75.7 9.07 C73.79 10.69, 67.25 13.16, 60.52 14.23 C53.78 15.3, 43.28 15.69, 35.28 15.48 C27.27 15.28, 18.46 14.27, 12.49 12.99 C6.52 11.71, 0.42 9.26, -0.55 7.78 C-1.51 6.3, 1.92 5.36, 6.71 4.1 C11.49 2.84, 19.09 0.74, 28.15 0.23 C37.2 -0.29, 54.74 0.5, 61.04 1 C67.35 1.5, 66.24 3.13, 65.97 3.24 M34.77 0.73 C42.25 0.33, 52.07 0.77, 58.76 1.53 C65.45 2.28, 72.26 3.7, 74.9 5.27 C77.54 6.85, 78.17 9.17, 74.61 10.95 C71.05 12.73, 61.16 15.49, 53.55 15.97 C45.93 16.45, 36.72 14.67, 28.93 13.82 C21.15 12.97, 11.62 11.84, 6.82 10.87 C2.01 9.9, -0.45 9.66, 0.1 7.99 C0.65 6.33, 4.5 2.31, 10.12 0.87 C15.73 -0.57, 29.48 -0.37, 33.81 -0.64 C38.13 -0.9, 35.88 -0.88, 36.09 -0.72" stroke="#2b8a3e" stroke-width="1" fill="none"></path></g><g stroke-linecap="round" transform="translate(764.1789267944879 353.30700602270053) rotate(0 5.613051577080874 6.091879242227833)"><path d="M5.33 -0.19 C6.56 0.06, 7.95 1.6, 9.02 2.42 C10.1 3.25, 11.4 3.42, 11.77 4.75 C12.14 6.09, 11.97 9.24, 11.26 10.42 C10.54 11.6, 8.83 11.74, 7.5 11.83 C6.17 11.91, 4.34 11.46, 3.29 10.92 C2.24 10.37, 1.85 9.66, 1.19 8.55 C0.52 7.44, -0.89 5.61, -0.68 4.27 C-0.47 2.93, 1.04 1.26, 2.44 0.52 C3.84 -0.22, 6.86 -0.22, 7.71 -0.16 C8.56 -0.1, 7.64 0.87, 7.55 0.91 M3.29 0.94 C4.4 0.29, 5.3 -1.44, 6.62 -1.19 C7.94 -0.94, 10.36 1.02, 11.19 2.41 C12.03 3.81, 11.68 5.98, 11.63 7.2 C11.58 8.42, 11.7 8.84, 10.9 9.74 C10.09 10.63, 8.04 12.1, 6.81 12.57 C5.58 13.04, 4.65 13.28, 3.5 12.56 C2.35 11.85, 0.37 9.49, -0.07 8.27 C-0.52 7.06, 0.39 6.42, 0.81 5.27 C1.22 4.12, 1.95 2.1, 2.4 1.38 C2.85 0.67, 3.19 0.91, 3.52 0.96" stroke="none" stroke-width="0" fill="#868e96"></path><path d="M6.03 0.3 C7.21 0.49, 9.42 0.73, 10.24 1.76 C11.05 2.79, 11.03 5.08, 10.89 6.48 C10.76 7.88, 10.04 9.26, 9.42 10.14 C8.81 11.02, 8.45 11.72, 7.2 11.78 C5.95 11.84, 3.04 11.01, 1.91 10.5 C0.79 9.99, 0.65 9.82, 0.47 8.7 C0.3 7.58, 0.39 5.19, 0.84 3.78 C1.29 2.37, 2.11 0.74, 3.17 0.26 C4.24 -0.22, 6.25 0.9, 7.22 0.91 C8.2 0.92, 9.02 0.29, 9 0.31 M6.43 0.57 C7.44 0.76, 9.21 1.63, 10.23 2.74 C11.25 3.85, 12.96 5.7, 12.56 7.25 C12.17 8.8, 9.01 11.47, 7.86 12.06 C6.72 12.64, 6.74 11.21, 5.7 10.75 C4.65 10.29, 2.54 9.79, 1.6 9.31 C0.66 8.84, 0.33 9.2, 0.06 7.9 C-0.21 6.6, -0.52 2.88, -0.03 1.51 C0.46 0.14, 1.49 0, 3.01 -0.34 C4.52 -0.68, 8.28 -0.57, 9.06 -0.51 C9.84 -0.45, 8.15 -0.23, 7.68 0.02" stroke="#2b8a3e" stroke-width="1" fill="none"></path></g><g stroke-linecap="round" transform="translate(764.5300685784215 379.5236203097652) rotate(0 5.613051577080874 6.091879242227833)"><path d="M3.13 1.12 C4.38 0.53, 6.65 -0.81, 8.03 -0.35 C9.41 0.11, 10.84 2.68, 11.41 3.9 C11.99 5.11, 11.84 5.93, 11.48 6.94 C11.12 7.95, 10.09 9.12, 9.23 9.95 C8.37 10.79, 7.64 11.88, 6.31 11.96 C4.98 12.04, 2.24 11.35, 1.22 10.45 C0.21 9.56, 0.24 7.88, 0.24 6.59 C0.24 5.3, 0.75 3.75, 1.22 2.72 C1.69 1.68, 2.58 0.88, 3.06 0.36 C3.54 -0.16, 4.12 -0.39, 4.11 -0.41 M3.11 -0.79 C4.26 -1.4, 7.01 -0.45, 8.27 0.27 C9.53 0.99, 9.98 2.52, 10.66 3.52 C11.34 4.51, 12.45 5.01, 12.33 6.24 C12.22 7.47, 10.89 9.68, 9.99 10.89 C9.08 12.1, 8.26 13.41, 6.93 13.49 C5.6 13.57, 3.06 12.1, 2 11.37 C0.94 10.64, 0.9 10.3, 0.56 9.09 C0.22 7.88, -0.59 5.54, -0.05 4.14 C0.48 2.74, 3.01 1.2, 3.77 0.69 C4.52 0.18, 4.28 1.04, 4.46 1.09" stroke="none" stroke-width="0" fill="#868e96"></path><path d="M3.91 -0.17 C5.02 -0.66, 6.16 0.05, 7.19 0.59 C8.22 1.12, 9.29 2.01, 10.07 3.05 C10.86 4.08, 12.17 5.65, 11.9 6.81 C11.63 7.96, 9.48 8.96, 8.47 9.97 C7.45 10.98, 6.81 12.74, 5.81 12.86 C4.81 12.98, 3.38 11.72, 2.46 10.69 C1.55 9.66, 0.65 7.86, 0.32 6.68 C-0.01 5.5, -0.35 4.79, 0.5 3.62 C1.34 2.45, 4.61 0.21, 5.39 -0.35 C6.17 -0.91, 5.19 0.06, 5.18 0.26 M6.61 -0.23 C8.18 -0.05, 11 1.13, 11.55 2.45 C12.1 3.77, 10.21 6.61, 9.93 7.68 C9.65 8.74, 10.54 8.32, 9.87 8.83 C9.21 9.35, 7.16 10.23, 5.94 10.76 C4.71 11.29, 3.61 12.76, 2.52 12.03 C1.44 11.3, -0.12 7.9, -0.59 6.39 C-1.06 4.89, -1.16 4.12, -0.31 3.01 C0.54 1.9, 3.31 0.29, 4.53 -0.26 C5.75 -0.82, 6.81 -0.43, 7.01 -0.33 C7.2 -0.23, 5.52 0.08, 5.68 0.33" stroke="#2b8a3e" stroke-width="1" fill="none"></path></g><g stroke-linecap="round" transform="translate(765.1789267944879 408.2923468810718) rotate(357.5021844865888 5.613051577080874 6.091879242227833)"><path d="M5.62 -0.65 C7 -0.82, 8.8 1.16, 9.75 1.99 C10.7 2.82, 11.18 3.34, 11.34 4.32 C11.49 5.29, 11.12 6.67, 10.68 7.85 C10.23 9.02, 9.88 10.72, 8.67 11.35 C7.45 11.98, 4.63 12.02, 3.39 11.63 C2.14 11.24, 1.67 10.07, 1.19 9 C0.72 7.94, 0.58 6.42, 0.52 5.23 C0.47 4.05, 0.03 2.88, 0.85 1.88 C1.68 0.88, 4.82 -0.38, 5.46 -0.78 C6.11 -1.18, 4.88 -0.79, 4.73 -0.53 M7.2 0.07 C8.45 0.45, 9.11 1.78, 9.97 2.62 C10.82 3.45, 12.22 3.83, 12.34 5.06 C12.46 6.29, 11.41 8.63, 10.68 10 C9.96 11.37, 9.28 12.96, 7.99 13.29 C6.7 13.62, 4.11 12.48, 2.93 11.96 C1.76 11.44, 1.49 11.31, 0.93 10.19 C0.37 9.07, -0.74 6.73, -0.43 5.24 C-0.11 3.75, 1.56 2.07, 2.83 1.27 C4.1 0.48, 6.42 0.66, 7.18 0.46 C7.95 0.26, 7.78 0.24, 7.4 0.06" stroke="none" stroke-width="0" fill="#868e96"></path><path d="M5.76 0.25 C6.8 0.37, 8.15 0.96, 9.18 1.79 C10.22 2.62, 11.92 4.05, 11.96 5.22 C12.01 6.39, 10.24 7.56, 9.45 8.8 C8.67 10.03, 8.22 12.19, 7.26 12.65 C6.3 13.11, 4.78 12.28, 3.7 11.54 C2.62 10.8, 1.39 9.27, 0.76 8.19 C0.14 7.12, -0.48 6.34, -0.06 5.08 C0.36 3.83, 2.22 1.45, 3.26 0.64 C4.3 -0.18, 5.51 0.24, 6.21 0.19 C6.9 0.15, 7.32 0.42, 7.41 0.36 M7.37 0.01 C8.35 0.28, 7.5 2.24, 8.17 2.89 C8.83 3.55, 11.06 3.09, 11.36 3.95 C11.66 4.8, 10.66 6.58, 9.97 8.05 C9.28 9.52, 8.45 12.41, 7.22 12.77 C5.99 13.14, 3.8 11, 2.57 10.24 C1.34 9.47, 0 9.23, -0.17 8.16 C-0.33 7.08, 1.17 5.02, 1.59 3.78 C2.01 2.54, 1.84 1.34, 2.36 0.72 C2.88 0.1, 3.95 0.09, 4.74 0.06 C5.53 0.02, 6.88 0.69, 7.11 0.53" stroke="#2b8a3e" stroke-width="1" fill="none"></path></g><g transform="translate(722.7228463270396 429.8824884799146) rotate(0 44.679473876953125 10.200000000000045)"><text x="44.679473876953125" y="0" font-family="Virgil, Segoe UI Emoji" font-size="17.4778970902999px" fill="#2b8a3e" text-anchor="middle" style="white-space: pre;" direction="ltr" dominant-baseline="text-before-edge">DB - v2.0</text></g><g stroke-linecap="round" transform="translate(211.06875485636078 170.18970462525886) rotate(0 21.187317988409234 84.76517702177398)"><path d="M-0.66 0.45 C12.65 0.25, 28.4 -0.44, 40.85 -1.57 M-0.07 0.24 C13.02 -0.44, 27.56 0.68, 41.91 -0.19 M43.3 -1.58 C43.84 52.68, 43.09 108.05, 42.38 167.81 M42.15 -0.92 C42.56 65.4, 42.02 128.7, 41.86 169.08 M41.72 167.94 C25.65 171.14, 9.33 169.83, -2 168.07 M43.1 170.1 C31.78 170.31, 23.48 169.65, -0.12 169.48 M-1.69 168.8 C-0.77 129.99, -0.02 92.23, -1.47 0.07 M-0.65 168.68 C1.52 117.3, 1.2 63.87, 0.76 0.03" stroke="#000000" stroke-width="2" fill="none"></path></g><g transform="translate(218.99607833793408 242.95488164703283) rotate(0 13.259994506835938 12)"><text x="13.259994506835938" y="0" font-family="Virgil, Segoe UI Emoji" font-size="20px" fill="#000000" text-anchor="middle" style="white-space: pre;" direction="ltr" dominant-baseline="text-before-edge">LB</text></g><g stroke-linecap="round"><g transform="translate(82.49949669138016 256.4875770138169) rotate(0 57.36501861586885 0.024156800001719603)"><path d="M1.52 -0.67 C35.01 -1.52, 73.44 1.46, 114.17 0.03 M0.56 0.87 C36.18 0.15, 73.42 1.13, 113.39 0.64" stroke="#000000" stroke-width="2" fill="none"></path></g><g transform="translate(82.49949669138016 256.4875770138169) rotate(0 57.36501861586885 0.024156800001719603)"><path d="M114 1.23 L101.01 8.79 L99.32 -5.21 L113.91 2.63" stroke="none" stroke-width="0" fill="#000000" fill-rule="evenodd"></path><path d="M114.53 0.14 C107.85 1.53, 104.89 5.78, 100.5 6.92 M113.82 1.3 C108.62 2.53, 104.68 5.29, 99.92 7.38 M99.49 8.24 C99.8 3.14, 100.83 1.57, 98.57 -5.93 M99.47 6.42 C99.49 4.11, 100.41 1.38, 99.82 -5.86 M100.18 -5.45 C101.28 -5.46, 104.79 -3.29, 112.67 1.73 M100.48 -5.41 C104.51 -3.57, 108.91 -0.83, 113.23 0.01 M113.39 0.64 C113.39 0.64, 113.39 0.64, 113.39 0.64 M113.39 0.64 C113.39 0.64, 113.39 0.64, 113.39 0.64" stroke="#000000" stroke-width="2" fill="none"></path></g></g><mask></mask><g transform="translate(12.7872206485074 280.3924559868028) rotate(0 22.339981079101562 12)"><text x="0" y="0" font-family="Virgil, Segoe UI Emoji" font-size="20px" fill="#000000" text-anchor="start" style="white-space: pre;" direction="ltr" dominant-baseline="text-before-edge">User</text></g><g stroke-linecap="round"><g transform="translate(10 270.7395299768241) rotate(0 25.819645202628976 -21.79569932933714)" fill-rule="evenodd"><path d="M13.47 -38.64 C13.47 -38.64, 13.47 -38.64, 13.47 -38.64 M13.47 -38.64 C13.47 -38.64, 13.47 -38.64, 13.47 -38.64 M7.04 -19.05 C13.08 -26, 19.13 -32.96, 26.72 -41.69 M7.04 -19.05 C12 -24.76, 16.96 -30.47, 26.72 -41.69 M0.61 0.53 C10.26 -10.57, 19.91 -21.67, 35.39 -39.47 M0.61 0.53 C7.69 -7.6, 14.76 -15.74, 35.39 -39.47 M11.24 0.5 C22.34 -12.26, 33.43 -25.02, 40.77 -33.46 M11.24 0.5 C21.46 -11.25, 31.67 -22.99, 40.77 -33.46 M21.87 0.47 C27.68 -6.22, 33.49 -12.9, 46.81 -28.21 M21.87 0.47 C29.6 -8.42, 37.32 -17.3, 46.81 -28.21 M29.22 4.2 C34.4 -1.75, 39.58 -7.71, 50.87 -20.7 M29.22 4.2 C36.6 -4.28, 43.98 -12.77, 50.87 -20.7 M41.82 1.91 C46.03 -2.93, 50.23 -7.77, 54.94 -13.19 M41.82 1.91 C45.38 -2.19, 48.94 -6.28, 54.94 -13.19 M0 0 C0 0, 0 0, 0 0 M0 0 C0 0, 0 0, 0 0 M12.04 -0.13 C9.26 -2.55, 6.47 -4.98, 1.47 -9.32 M12.04 -0.13 C9.64 -2.22, 7.24 -4.31, 1.47 -9.32 M24.84 0.39 C19.08 -4.62, 13.31 -9.63, 2.95 -18.64 M24.84 0.39 C20.45 -3.42, 16.07 -7.23, 2.95 -18.64 M30.08 -5.65 C23.79 -11.12, 17.49 -16.6, 6.69 -25.99 M30.08 -5.65 C25.16 -9.93, 20.23 -14.21, 6.69 -25.99 M45.9 -2.5 C36.41 -10.75, 26.92 -19, 9.67 -33.99 M45.9 -2.5 C34.89 -12.07, 23.87 -21.65, 9.67 -33.99 M52.66 -7.23 C40.33 -17.95, 28 -28.66, 14.92 -40.03 M52.66 -7.23 C43.42 -15.25, 34.19 -23.28, 14.92 -40.03 M51.11 -19.17 C41.08 -27.89, 31.05 -36.61, 20.92 -45.41 M51.11 -19.17 C39.44 -29.32, 27.76 -39.47, 20.92 -45.41" stroke="#ced4da" stroke-width="1" fill="none"></path><path d="M0 0 C0.92 -4.85, 1.58 -21.76, 5.52 -29.07 C9.46 -36.38, 17.61 -43.34, 23.65 -43.87 C29.69 -44.4, 37.51 -39.05, 41.78 -32.24 C46.05 -25.43, 56.23 -8.39, 49.27 -3.02 C42.31 2.36, 8.21 -0.5, 0 0 M0 0 C0.92 -4.85, 1.58 -21.76, 5.52 -29.07 C9.46 -36.38, 17.61 -43.34, 23.65 -43.87 C29.69 -44.4, 37.51 -39.05, 41.78 -32.24 C46.05 -25.43, 56.23 -8.39, 49.27 -3.02 C42.31 2.36, 8.21 -0.5, 0 0" stroke="#000000" stroke-width="2" fill="none"></path></g></g><mask></mask><g stroke-linecap="round" transform="translate(22.453870836315673 204.04848219096766) rotate(0 12.612971703843186 11.03635024086293)"><path d="M2.98 3.91 C2.98 3.91, 2.98 3.91, 2.98 3.91 M2.98 3.91 C2.98 3.91, 2.98 3.91, 2.98 3.91 M2.45 16.71 C6.28 12.31, 10.11 7.91, 16.23 0.86 M2.45 16.71 C6.14 12.47, 9.82 8.24, 16.23 0.86 M8.49 21.96 C14.11 15.49, 19.73 9.03, 23.58 4.6 M8.49 21.96 C11.74 18.22, 14.99 14.48, 23.58 4.6 M4.36 19.37 C4.36 19.37, 4.36 19.37, 4.36 19.37 M4.36 19.37 C4.36 19.37, 4.36 19.37, 4.36 19.37 M17.91 20.55 C12.42 15.77, 6.92 10.99, 1.31 6.11 M17.91 20.55 C13.37 16.6, 8.83 12.65, 1.31 6.11 M24.67 15.82 C19.22 11.09, 13.78 6.35, 7.31 0.73 M24.67 15.82 C21.05 12.68, 17.44 9.53, 7.31 0.73" stroke="#ced4da" stroke-width="1" fill="none"></path><path d="M25.23 11.04 C25.23 11.68, 25.16 12.32, 25.03 12.95 C24.91 13.58, 24.71 14.21, 24.47 14.81 C24.22 15.41, 23.9 16, 23.54 16.55 C23.17 17.11, 22.74 17.64, 22.28 18.13 C21.81 18.62, 21.28 19.08, 20.72 19.49 C20.16 19.9, 19.55 20.27, 18.92 20.59 C18.29 20.91, 17.61 21.19, 16.93 21.41 C16.24 21.63, 15.52 21.79, 14.8 21.91 C14.08 22.02, 13.34 22.07, 12.61 22.07 C11.88 22.07, 11.14 22.02, 10.42 21.91 C9.7 21.79, 8.99 21.63, 8.3 21.41 C7.61 21.19, 6.94 20.91, 6.31 20.59 C5.67 20.27, 5.06 19.9, 4.51 19.49 C3.95 19.08, 3.42 18.62, 2.95 18.13 C2.48 17.64, 2.05 17.11, 1.69 16.55 C1.32 16, 1.01 15.41, 0.76 14.81 C0.51 14.21, 0.32 13.58, 0.19 12.95 C0.06 12.32, 0 11.68, 0 11.04 C0 10.4, 0.06 9.75, 0.19 9.12 C0.32 8.49, 0.51 7.86, 0.76 7.26 C1.01 6.66, 1.32 6.07, 1.69 5.52 C2.05 4.96, 2.48 4.43, 2.95 3.94 C3.42 3.45, 3.95 2.99, 4.51 2.58 C5.06 2.17, 5.67 1.8, 6.31 1.48 C6.94 1.16, 7.61 0.88, 8.3 0.67 C8.99 0.45, 9.7 0.28, 10.42 0.17 C11.14 0.06, 11.88 0, 12.61 0 C13.34 0, 14.08 0.06, 14.8 0.17 C15.52 0.28, 16.24 0.45, 16.93 0.67 C17.61 0.88, 18.29 1.16, 18.92 1.48 C19.55 1.8, 20.16 2.17, 20.72 2.58 C21.28 2.99, 21.81 3.45, 22.28 3.94 C22.74 4.43, 23.17 4.96, 23.54 5.52 C23.9 6.07, 24.22 6.66, 24.47 7.26 C24.71 7.86, 24.91 8.49, 25.03 9.12 C25.16 9.75, 25.19 10.72, 25.23 11.04 C25.26 11.36, 25.26 10.72, 25.23 11.04" stroke="#000000" stroke-width="2" fill="none"></path></g><g stroke-linecap="round"><g stroke-opacity="0.5" fill-opacity="0.5" transform="translate(264.6735071634413 250.79337709783158) rotate(0 93.55404349168046 -44.23614869561948)"><path d="M0.42 -0.85 C68.4 -31.54, 139.6 -66.03, 187.81 -88.57 M-0.7 0.1 C69.9 -34.12, 141.1 -67.01, 187.39 -88.07" stroke="#000000" stroke-width="4" fill="none"></path></g><g stroke-opacity="0.5" fill-opacity="0.5" transform="translate(264.6735071634413 250.79337709783158) rotate(0 93.55404349168046 -44.23614869561948)"><path d="M186.58 -87.16 L178.3 -76.44 L173.88 -87.59 L189.19 -88.18" stroke="none" stroke-width="0" fill="#000000" fill-rule="evenodd"></path><path d="M187.75 -88.79 C183.49 -83.03, 181.6 -80.38, 177.38 -76.45 M186.8 -87.99 C183.64 -83.96, 180.88 -79.5, 177.03 -76.03 M176.51 -76.65 C176.85 -80.95, 173.27 -84.49, 171.82 -86.95 M177.17 -76.63 C176.9 -79.25, 175.23 -82.81, 171.93 -88.59 M173.25 -89.2 C178.06 -86.85, 181.27 -88.4, 187.31 -89.19 M172.12 -88.07 C177.32 -87.63, 182.92 -88.53, 187.42 -88.01 M187.39 -88.07 C187.39 -88.07, 187.39 -88.07, 187.39 -88.07 M187.39 -88.07 C187.39 -88.07, 187.39 -88.07, 187.39 -88.07" stroke="#000000" stroke-width="4" fill="none"></path></g></g><mask></mask><g stroke-linecap="round" transform="translate(142.05538862181584 10) rotate(0 376.8631629955585 250.62420133693468)"><path d="M-0.2 0.45 C221.16 1.07, 440.78 1.55, 754.31 0.1 M-0.08 -0.1 C261.4 -0.34, 521.68 -0.01, 753.77 -0.38 M754.18 -0.44 C751.1 138.79, 751.52 279.17, 753.24 501.3 M754.04 0.11 C752.18 133.57, 751.84 267.67, 753.65 501.06 M754.51 501.99 C473.24 499.09, 192.19 498.59, 0.49 501.07 M753.47 501.45 C591.25 501.36, 429.11 501.69, -0.31 500.86 M0.13 501.15 C0.99 384.15, 1.73 266.07, 0.46 0.61 M0.24 501.6 C-0.69 366.29, -0.5 231.55, -0.16 0.18" stroke="#000000" stroke-width="2" fill="none"></path></g><g mask="url(#mask-uisR1Yg4eO1pQhXmIVRUP)" stroke-linecap="round"><g stroke-opacity="0" fill-opacity="0" transform="translate(559.0722074147072 216.32487603931304) rotate(0 88.7771192225005 51.4328983473531)"><path d="M1.56 -0.84 C43.74 25.69, 89.71 52.03, 176.7 103.11 M0.86 0 C53.82 33.69, 109.45 64.65, 175.67 103.7" stroke="#000000" stroke-width="2" fill="none"></path></g><g stroke-opacity="0" fill-opacity="0" transform="translate(559.0722074147072 216.32487603931304) rotate(0 88.7771192225005 51.4328983473531)"><path d="M177.16 104.29 L162.53 102.22 L165.68 89.72 L177.15 105.59" stroke="none" stroke-width="0" fill="#000000" fill-rule="evenodd"></path><path d="M176.98 103 C171.62 103.63, 169.24 103.28, 161.43 101.14 M176.39 103.7 C170.38 103.85, 166.46 102.09, 160.57 101.63 M159.51 101.67 C162.02 100.3, 163.73 95.89, 166.72 90.36 M160.82 101.69 C162.13 98.57, 164.4 95.36, 167.59 91.74 M167.62 91.2 C169.15 93.03, 172.12 96.66, 174.4 103.16 M166.82 90.82 C169.76 95.26, 171.82 98.34, 175.19 103.07 M175.67 103.7 C175.67 103.7, 175.67 103.7, 175.67 103.7 M175.67 103.7 C175.67 103.7, 175.67 103.7, 175.67 103.7" stroke="#000000" stroke-width="2" fill="none"></path></g></g><mask id="mask-uisR1Yg4eO1pQhXmIVRUP"><rect x="0" y="0" fill="#fff" width="834.9450873693647" height="420.8501436675929"></rect><rect x="626.5486635663524" y="256.58750985345296" fill="#000" width="40.91996765136719" height="24" opacity="1"></rect></mask><g stroke-opacity="0" fill-opacity="0" transform="translate(626.5486635663524 256.5875098534532) rotate(0 21.30066307085532 11.170264533213185)"><text x="20.459983825683594" y="0" font-family="Virgil, Segoe UI Emoji" font-size="20px" fill="#000000" text-anchor="middle" style="white-space: pre;" direction="ltr" dominant-baseline="text-before-edge">Sync</text></g><g transform="translate(212.4168108669635 139.42248731761083) rotate(0 4.6875 9.599999999999909)"><text x="0" y="0" font-family="Cascadia, Segoe UI Emoji" font-size="16px" fill="#2b8a3e" text-anchor="start" style="white-space: pre;" direction="ltr" dominant-baseline="text-before-edge"></text></g><g transform="translate(153.12907275073098 21.969107605971658) rotate(0 51.5625 9.599999999999909)"><text x="0" y="0" font-family="Cascadia, Segoe UI Emoji" font-size="16px" fill="#495057" text-anchor="start" style="white-space: pre;" direction="ltr" dominant-baseline="text-before-edge">K8s Cluster</text></g><g stroke-linecap="round" transform="translate(339.3698501988441 183.07115899068958) rotate(0 20.834426504308 20.834426504308112)"><path d="M41.67 20.83 C41.67 22.04, 41.56 23.26, 41.35 24.45 C41.14 25.64, 40.82 26.83, 40.41 27.96 C40 29.09, 39.48 30.21, 38.88 31.25 C38.27 32.3, 37.57 33.3, 36.79 34.23 C36.02 35.15, 35.15 36.02, 34.23 36.79 C33.3 37.57, 32.3 38.27, 31.25 38.88 C30.21 39.48, 29.09 40, 27.96 40.41 C26.83 40.82, 25.64 41.14, 24.45 41.35 C23.26 41.56, 22.04 41.67, 20.83 41.67 C19.63 41.67, 18.4 41.56, 17.22 41.35 C16.03 41.14, 14.84 40.82, 13.71 40.41 C12.58 40, 11.46 39.48, 10.42 38.88 C9.37 38.27, 8.37 37.57, 7.44 36.79 C6.52 36.02, 5.65 35.15, 4.87 34.23 C4.1 33.3, 3.39 32.3, 2.79 31.25 C2.19 30.21, 1.67 29.09, 1.26 27.96 C0.84 26.83, 0.53 25.64, 0.32 24.45 C0.11 23.26, 0 22.04, 0 20.83 C0 19.63, 0.11 18.4, 0.32 17.22 C0.53 16.03, 0.84 14.84, 1.26 13.71 C1.67 12.58, 2.19 11.46, 2.79 10.42 C3.39 9.37, 4.1 8.37, 4.87 7.44 C5.65 6.52, 6.52 5.65, 7.44 4.87 C8.37 4.1, 9.37 3.39, 10.42 2.79 C11.46 2.19, 12.58 1.67, 13.71 1.26 C14.84 0.84, 16.03 0.53, 17.22 0.32 C18.4 0.11, 19.63 0, 20.83 0 C22.04 0, 23.26 0.11, 24.45 0.32 C25.64 0.53, 26.83 0.84, 27.96 1.26 C29.09 1.67, 30.21 2.19, 31.25 2.79 C32.3 3.39, 33.3 4.1, 34.23 4.87 C35.15 5.65, 36.02 6.52, 36.79 7.44 C37.57 8.37, 38.27 9.37, 38.88 10.42 C39.48 11.46, 40 12.58, 40.41 13.71 C40.82 14.84, 41.14 16.03, 41.35 17.22 C41.56 18.4, 41.62 20.23, 41.67 20.83 C41.72 21.44, 41.72 20.23, 41.67 20.83" stroke="#c92a2a" stroke-width="4" fill="none"></path></g><g stroke-linecap="round"><g transform="translate(345.5033114562972 189.48542166780135) rotate(0 15.132859680208924 14.055375115613515)"><path d="M0 0 C6.69 6.21, 13.37 12.42, 30.27 28.11 M0 0 C6.29 5.84, 12.58 11.68, 30.27 28.11" stroke="#c92a2a" stroke-width="4" fill="none"></path></g></g><mask></mask><g mask="url(#mask-LYUuYLrnVLfd_V9_gfoUx)" stroke-linecap="round"><g transform="translate(767.491642281736 209.64390484446585) rotate(0 -0.08932207774324041 53.430396476629994)"><path d="M0 0 C-0.05 30, -0.1 60, -0.18 106.86 M0 0 C-0.06 38.08, -0.13 76.16, -0.18 106.86" stroke="#000000" stroke-width="4" fill="none"></path></g><g transform="translate(767.491642281736 209.64390484446585) rotate(0 -0.08932207774324041 53.430396476629994)"><path d="M-0.18 106.86 L-6.5 93.26 L6.18 93.28 L-0.18 106.86" stroke="none" stroke-width="0" fill="#000000" fill-rule="evenodd"></path><path d="M-0.18 106.86 C-1.95 103.04, -3.73 99.22, -6.5 93.26 M-0.18 106.86 C-2.43 102.01, -4.68 97.16, -6.5 93.26 M-6.5 93.26 C-1.69 93.26, 3.11 93.27, 6.18 93.28 M-6.5 93.26 C-1.45 93.26, 3.6 93.27, 6.18 93.28 M6.18 93.28 C4.69 96.47, 3.19 99.66, -0.18 106.86 M6.18 93.28 C4.17 97.57, 2.16 101.87, -0.18 106.86 M-0.18 106.86 C-0.18 106.86, -0.18 106.86, -0.18 106.86 M-0.18 106.86 C-0.18 106.86, -0.18 106.86, -0.18 106.86" stroke="#000000" stroke-width="4" fill="none"></path></g></g><mask id="mask-LYUuYLrnVLfd_V9_gfoUx"><rect x="0" y="0" fill="#fff" width="867.6702864372224" height="416.50469779772584"></rect><rect x="667.7929452039928" y="251.07430132109585" fill="#000" width="199.21875" height="24" opacity="1"></rect></mask><g transform="translate(667.7929452039928 251.07430132109585) rotate(0 99.609375 12)"><text x="99.609375" y="0" font-family="Cascadia, Segoe UI Emoji" font-size="20px" fill="#000000" text-anchor="middle" style="white-space: pre;" direction="ltr" dominant-baseline="text-before-edge">migrate &amp; vertify</text></g><g transform="translate(312.70002274682884 164.5433436673111) rotate(0 10.546875 21.59999999999991)"><text x="0" y="0" font-family="Cascadia, Segoe UI Emoji" font-size="36px" fill="#5c940d" text-anchor="start" style="white-space: pre;" direction="ltr" dominant-baseline="text-before-edge">1</text></g><g stroke-linecap="round"><g transform="translate(729.2528165555763 93.64832997099438) rotate(0 38.097690207329784 41.55403369831038)" fill-rule="evenodd"><path d="M1.9 -1.28 L-0.8 82.35 L2.35 85.34 L19.73 92.28 L42.56 90.42 L63.62 91.51 L77.43 86.36 L75.31 0.25 L66.75 -6.56 L36.76 -9.26 L11.7 -6.14 L3.49 -4.41 L-0.37 -1.55" stroke="none" stroke-width="0" fill="#ced4da" fill-rule="evenodd"></path><path d="M-0.23 0.66 C0.19 13.33, 1.35 61.27, 1.38 75.01 C1.42 88.74, -0.31 80.81, -0.01 83.06 C0.28 85.31, 0.02 87.08, 3.16 88.52 C6.3 89.95, 12.56 91.16, 18.83 91.66 C25.1 92.16, 33.19 91.73, 40.78 91.52 C48.36 91.32, 58.51 91.13, 64.34 90.43 C70.18 89.73, 73.84 88.4, 75.79 87.34 C77.73 86.27, 75.89 85.81, 76.01 84.06 C76.13 82.31, 76.37 89.87, 76.51 76.84 C76.64 63.81, 76.94 18.78, 76.82 5.88 C76.69 -7.03, 76.73 1.02, 75.75 -0.61 C74.78 -2.23, 73.33 -3.08, 70.97 -3.86 C68.61 -4.65, 67.36 -4.61, 61.58 -5.32 C55.79 -6.02, 43.58 -7.72, 36.26 -8.1 C28.94 -8.48, 23.01 -8.44, 17.67 -7.59 C12.33 -6.75, 7.34 -4.1, 4.24 -3.03 C1.14 -1.96, -0.4 -1.84, -0.93 -1.17 C-1.46 -0.49, 1.11 0.63, 1.07 1.02 M-1.81 -0.05 C-1.34 12.91, 0.86 62.43, 1.03 76.44 C1.2 90.45, -1.12 82.33, -0.79 84 C-0.47 85.68, -0.14 85.69, 2.98 86.52 C6.1 87.34, 11.41 88.29, 17.92 88.95 C24.43 89.61, 34.72 90.4, 42.05 90.46 C49.37 90.52, 56.36 89.79, 61.86 89.31 C67.37 88.82, 72.48 88.57, 75.1 87.55 C77.72 86.52, 77.26 84.96, 77.57 83.15 C77.89 81.34, 77.07 89.45, 76.99 76.69 C76.92 63.94, 77 19.61, 77.11 6.63 C77.22 -6.35, 78.67 0.68, 77.64 -1.19 C76.6 -3.07, 73.67 -3.97, 70.92 -4.62 C68.17 -5.26, 66.95 -4.39, 61.14 -5.08 C55.32 -5.77, 43.16 -8.47, 36.03 -8.74 C28.9 -9.02, 23.81 -7.82, 18.38 -6.72 C12.96 -5.63, 6.38 -3.07, 3.48 -2.18 C0.58 -1.29, 1.52 -2.06, 0.98 -1.39 C0.44 -0.72, 0.63 1.59, 0.25 1.81" stroke="#364fc7" stroke-width="1" fill="none"></path></g></g><mask></mask><g stroke-linecap="round"><g transform="translate(729.7767459938513 150.77461362872418) rotate(0 39.26616613538601 3.873974527349219)"><path d="M1.13 -0.19 C1.5 0.15, 0.53 1.45, 2.01 2.71 C3.48 3.96, 6.4 6.27, 9.99 7.33 C13.58 8.39, 18.46 8.94, 23.54 9.08 C28.62 9.21, 33.88 8.39, 40.47 8.12 C47.06 7.86, 57.32 8.16, 63.1 7.49 C68.89 6.81, 72.96 5.26, 75.17 4.1 C77.38 2.93, 76.12 1.17, 76.36 0.51 M0.26 -1.34 C0.5 -0.92, -0.99 2.73, 1.05 3.88 C3.08 5.02, 9.18 5.01, 12.46 5.55 C15.73 6.08, 15.68 6.59, 20.69 7.08 C25.7 7.57, 35.73 8.56, 42.51 8.49 C49.3 8.42, 55.78 7.53, 61.39 6.67 C67 5.8, 73.29 4.3, 76.15 3.3 C79.02 2.3, 78.21 1.35, 78.58 0.65" stroke="#364fc7" stroke-width="1" fill="none"></path></g></g><mask></mask><g stroke-linecap="round"><g transform="translate(728.7448886713474 121.81055829350225) rotate(0 38.740765249868545 4.367481652529705)"><path d="M-0.03 -0.71 C-0.01 0.07, -0.76 3.13, 1.22 4.47 C3.21 5.81, 8.38 6.76, 11.87 7.34 C15.37 7.92, 17.21 7.76, 22.19 7.96 C27.17 8.17, 35.02 8.57, 41.77 8.59 C48.53 8.61, 57.39 8.88, 62.72 8.11 C68.04 7.34, 71.41 5.28, 73.73 3.96 C76.05 2.64, 76.07 0.99, 76.63 0.19 M-1.5 1.54 C-1.2 2.02, 1.31 2.23, 3.51 2.9 C5.7 3.57, 8.54 4.54, 11.67 5.56 C14.8 6.58, 17.43 8.44, 22.29 9.04 C27.15 9.65, 34.42 9.44, 40.84 9.2 C47.26 8.96, 55.29 8.64, 60.8 7.62 C66.32 6.6, 70.92 4.33, 73.95 3.09 C76.98 1.84, 78.73 0.46, 78.98 0.15" stroke="#364fc7" stroke-width="1" fill="none"></path></g></g><mask></mask><g stroke-linecap="round" transform="translate(727.6869396892654 86.51606134531357) rotate(0 38.29876800932748 7.745637696423955)"><path d="M35.43 -0.02 C43.43 -0.15, 54.5 1.38, 60.99 2.37 C67.47 3.36, 72.23 4.39, 74.35 5.91 C76.48 7.43, 77.08 10.08, 73.74 11.5 C70.4 12.92, 62.01 13.82, 54.33 14.42 C46.64 15.03, 35.62 15.41, 27.62 15.13 C19.62 14.86, 10.85 14.14, 6.31 12.77 C1.77 11.4, -0.45 8.78, 0.36 6.9 C1.17 5.03, 5.08 2.74, 11.16 1.52 C17.25 0.29, 31.87 -0.1, 36.87 -0.45 C41.87 -0.8, 41.01 -0.82, 41.17 -0.58 M26.97 1.11 C34.12 0.4, 45.4 -1.22, 53.2 -0.64 C60.99 -0.06, 70.11 2.61, 73.76 4.56 C77.41 6.52, 77.27 9.34, 75.08 11.1 C72.9 12.86, 67.39 14.4, 60.64 15.14 C53.89 15.89, 42.53 15.9, 34.58 15.59 C26.62 15.27, 18.5 14.52, 12.94 13.26 C7.37 12.01, 2.27 9.82, 1.18 8.04 C0.09 6.26, 2.13 3.74, 6.39 2.59 C10.66 1.44, 23.41 1.51, 26.78 1.14 C30.14 0.78, 26.47 0.35, 26.6 0.38" stroke="none" stroke-width="0" fill="#fff"></path><path d="M54.81 1.61 C61.96 2.33, 69.99 3.82, 73.53 5.08 C77.07 6.34, 78.2 7.72, 76.06 9.16 C73.92 10.59, 67.53 12.64, 60.69 13.69 C53.86 14.73, 43.4 15.6, 35.05 15.41 C26.69 15.23, 16.44 13.84, 10.58 12.58 C4.71 11.33, 0.41 9.39, -0.14 7.9 C-0.69 6.41, 2.34 5.08, 7.27 3.65 C12.2 2.23, 20.64 -0.18, 29.45 -0.64 C38.27 -1.1, 54.4 0.27, 60.16 0.9 C65.92 1.52, 64.33 3.05, 64.01 3.12 M19.54 2.27 C26.29 1.1, 40.3 -0.75, 48.46 -0.75 C56.62 -0.76, 63.69 0.81, 68.52 2.22 C73.36 3.64, 77.6 5.7, 77.47 7.72 C77.33 9.73, 73.28 13.17, 67.7 14.31 C62.12 15.46, 52.32 14.4, 43.97 14.57 C35.61 14.75, 24.52 15.93, 17.56 15.35 C10.59 14.76, 4.8 12.67, 2.18 11.06 C-0.44 9.46, -1.19 7.62, 1.86 5.74 C4.91 3.86, 17.3 0.76, 20.49 -0.2 C23.67 -1.16, 20.33 -0.19, 20.95 -0.02" stroke="#364fc7" stroke-width="1" fill="none"></path></g><g stroke-linecap="round" transform="translate(764.1789267944879 110.99272902521625) rotate(0 5.613051577080874 6.091879242227833)"><path d="M7.36 1.06 C8.24 1.22, 8.2 1.37, 8.94 2.27 C9.69 3.17, 11.74 5.25, 11.86 6.46 C11.97 7.68, 10.65 8.65, 9.63 9.56 C8.61 10.48, 6.97 11.55, 5.73 11.96 C4.49 12.36, 3.03 12.63, 2.18 11.99 C1.33 11.35, 0.92 9.54, 0.62 8.1 C0.33 6.67, 0.21 4.65, 0.4 3.37 C0.6 2.09, 0.67 1.11, 1.8 0.44 C2.93 -0.22, 6.31 -0.64, 7.18 -0.62 C8.05 -0.61, 7.22 0.25, 7.04 0.53 M4.42 -1.29 C5.86 -1.58, 8.82 0.1, 9.86 1.31 C10.91 2.53, 10.55 4.58, 10.67 6 C10.78 7.41, 11.18 8.85, 10.56 9.8 C9.94 10.76, 7.82 11.38, 6.96 11.73 C6.11 12.09, 6.25 12.37, 5.42 11.93 C4.59 11.48, 2.91 10.27, 1.99 9.07 C1.06 7.87, 0.07 5.81, -0.15 4.73 C-0.37 3.66, 0 3.42, 0.65 2.62 C1.3 1.83, 3.21 0.32, 3.75 -0.04 C4.28 -0.41, 3.82 0.25, 3.85 0.44" stroke="none" stroke-width="0" fill="#868e96"></path><path d="M5.32 0.57 C6.59 0.1, 8.5 -0.22, 9.57 0.33 C10.65 0.89, 11.47 2.54, 11.75 3.9 C12.03 5.25, 11.91 7.29, 11.25 8.47 C10.59 9.64, 8.97 10.44, 7.77 10.96 C6.57 11.47, 5.15 11.71, 4.06 11.58 C2.97 11.44, 1.78 11.27, 1.22 10.14 C0.66 9.02, 0.66 6.31, 0.69 4.85 C0.72 3.39, 0.48 2.06, 1.39 1.4 C2.3 0.74, 4.96 1.11, 6.15 0.91 C7.34 0.71, 8.61 0.07, 8.53 0.19 M9.35 -0.41 C10.6 -0.36, 9.8 1.32, 10.24 2.58 C10.67 3.84, 11.96 5.52, 11.98 7.14 C12 8.77, 11.31 11.62, 10.36 12.31 C9.42 13, 7.72 11.43, 6.31 11.3 C4.9 11.18, 2.87 12.16, 1.91 11.57 C0.95 10.98, 0.93 9.08, 0.57 7.77 C0.21 6.46, -0.75 5.12, -0.25 3.69 C0.25 2.26, 2.27 -0.12, 3.56 -0.81 C4.86 -1.5, 6.55 -0.57, 7.51 -0.45 C8.46 -0.33, 9.25 -0.18, 9.3 -0.07" stroke="#364fc7" stroke-width="1" fill="none"></path></g><g stroke-linecap="round" transform="translate(764.5300685784215 137.20934331228273) rotate(0 5.613051577080874 6.091879242227833)"><path d="M4.58 0.22 C5.67 0.03, 8.71 1.12, 9.73 1.84 C10.76 2.56, 10.76 3.37, 10.73 4.54 C10.71 5.71, 10.19 7.59, 9.55 8.88 C8.92 10.18, 7.84 11.84, 6.93 12.3 C6.01 12.76, 5.08 12.29, 4.08 11.66 C3.08 11.02, 1.76 9.65, 0.95 8.5 C0.13 7.35, -1.05 6.04, -0.83 4.75 C-0.6 3.46, 1.04 1.52, 2.3 0.79 C3.57 0.05, 5.93 0.29, 6.79 0.35 C7.65 0.4, 7.51 1.13, 7.46 1.11 M8.13 0.43 C9.31 1.15, 9.38 2.88, 9.87 4.11 C10.36 5.34, 11.28 6.72, 11.06 7.8 C10.84 8.87, 9.16 9.83, 8.53 10.55 C7.91 11.27, 8.2 12.12, 7.33 12.12 C6.46 12.12, 4.55 11.43, 3.33 10.55 C2.11 9.66, 0.64 7.84, 0.01 6.81 C-0.63 5.77, -0.77 5.37, -0.46 4.32 C-0.14 3.27, 0.85 1.12, 1.9 0.48 C2.94 -0.15, 5.17 0.46, 5.82 0.51 C6.47 0.56, 5.87 0.84, 5.81 0.78" stroke="none" stroke-width="0" fill="#868e96"></path><path d="M8.81 -0.13 C9.95 0.15, 10.98 1.73, 11.43 3.01 C11.89 4.3, 12.02 6.33, 11.53 7.57 C11.05 8.81, 9.62 9.77, 8.52 10.47 C7.41 11.16, 6.04 11.66, 4.92 11.72 C3.8 11.79, 2.5 11.85, 1.79 10.86 C1.09 9.87, 0.86 7.25, 0.7 5.8 C0.55 4.34, 0.38 2.94, 0.85 2.14 C1.31 1.34, 2.19 1.34, 3.5 1.01 C4.81 0.68, 7.94 -0.06, 8.71 0.16 C9.48 0.38, 8.05 2.28, 8.11 2.32 M7.76 -0.19 C8.73 0.39, 10.95 1.73, 11.73 3.3 C12.51 4.86, 12.77 8.01, 12.45 9.19 C12.12 10.37, 10.98 9.69, 9.76 10.37 C8.54 11.04, 6.4 13.1, 5.11 13.25 C3.82 13.41, 3.08 12.26, 2.02 11.29 C0.96 10.31, -1 9.06, -1.23 7.4 C-1.46 5.75, -0.25 2.73, 0.62 1.35 C1.49 -0.02, 2.47 -0.62, 3.97 -0.85 C5.47 -1.08, 8.9 -0.16, 9.62 -0.04 C10.34 0.09, 8.62 -0.11, 8.29 -0.1" stroke="#364fc7" stroke-width="1" fill="none"></path></g><g stroke-linecap="round" transform="translate(765.1789267944879 165.97806988358843) rotate(357.5021844865888 5.613051577080874 6.091879242227833)"><path d="M8.93 1.27 C10.05 1.7, 10.29 2.43, 10.46 3.54 C10.63 4.65, 10.38 6.54, 9.94 7.92 C9.49 9.31, 8.61 11.17, 7.79 11.83 C6.97 12.5, 6.06 12.32, 5.01 11.9 C3.97 11.48, 2.5 10.36, 1.52 9.34 C0.53 8.32, -0.91 7.09, -0.89 5.79 C-0.86 4.49, 0.75 2.46, 1.64 1.55 C2.54 0.63, 3.3 0.27, 4.5 0.33 C5.69 0.39, 7.88 1.63, 8.79 1.93 C9.7 2.23, 9.82 2.19, 9.94 2.12 M2.87 2.05 C3.68 1.61, 5.86 1.22, 6.92 1.33 C7.97 1.44, 8.26 1.83, 9.19 2.71 C10.11 3.58, 12.24 5.37, 12.47 6.57 C12.7 7.76, 11.65 9.09, 10.56 9.88 C9.47 10.68, 7.46 11, 5.94 11.34 C4.41 11.68, 2.59 12.55, 1.4 11.93 C0.21 11.31, -0.83 8.96, -1.19 7.61 C-1.55 6.26, -1.29 4.92, -0.77 3.82 C-0.24 2.72, 1.54 1.65, 1.96 1.01 C2.39 0.38, 1.42 -0.11, 1.8 0" stroke="none" stroke-width="0" fill="#868e96"></path><path d="M7.85 -0.24 C8.9 0.12, 10.21 1.53, 10.71 2.58 C11.21 3.63, 11.08 4.84, 10.84 6.07 C10.61 7.3, 10.08 8.89, 9.31 9.98 C8.53 11.06, 7.23 12.55, 6.19 12.58 C5.14 12.61, 4.07 11.09, 3.05 10.18 C2.03 9.27, 0.57 8.12, 0.05 7.13 C-0.47 6.15, -0.64 5.49, -0.07 4.27 C0.49 3.05, 2.18 0.26, 3.42 -0.18 C4.67 -0.62, 6.26 1.5, 7.38 1.65 C8.51 1.79, 9.9 0.6, 10.17 0.69 M4.78 -0.15 C6.16 -0.26, 8.02 1.28, 9.17 1.7 C10.32 2.11, 11.32 1.22, 11.68 2.34 C12.04 3.47, 11.67 6.85, 11.33 8.45 C10.99 10.05, 10.82 11.16, 9.64 11.95 C8.45 12.75, 5.59 13.61, 4.21 13.22 C2.83 12.83, 2.1 10.81, 1.34 9.61 C0.58 8.4, -0.52 7.22, -0.36 5.98 C-0.21 4.74, 1.53 3.26, 2.26 2.16 C2.98 1.07, 3.77 -0.1, 3.99 -0.58 C4.22 -1.07, 3.52 -1.16, 3.61 -0.74" stroke="#364fc7" stroke-width="1" fill="none"></path></g><g transform="translate(688.534087476942 187.56821148243125) rotate(0 78.86823272705078 10.200000000000045)"><text x="78.86823272705078" y="0" font-family="Virgil, Segoe UI Emoji" font-size="17.4778970902999px" fill="#364fc7" text-anchor="middle" style="white-space: pre;" direction="ltr" dominant-baseline="text-before-edge">DB - v1.0- Backup</text></g><g mask="url(#mask-08hpbaSq_APivcmiDmKMu)" stroke-linecap="round"><g transform="translate(569.369649130745 146.88575321389726) rotate(0 69.59223859896781 0)"><path d="M0 0 C33.18 0, 66.36 0, 139.18 0 M0 0 C51.67 0, 103.35 0, 139.18 0" stroke="#000000" stroke-width="4" fill="none"></path></g><g transform="translate(569.369649130745 146.88575321389726) rotate(0 69.59223859896781 0)"><path d="M139.18 0 L125.59 6.34 L125.59 -6.34 L139.18 0" stroke="none" stroke-width="0" fill="#000000" fill-rule="evenodd"></path><path d="M139.18 0 C135.94 1.51, 132.7 3.02, 125.59 6.34 M139.18 0 C134.14 2.35, 129.09 4.71, 125.59 6.34 M125.59 6.34 C125.59 2.33, 125.59 -1.69, 125.59 -6.34 M125.59 6.34 C125.59 1.8, 125.59 -2.74, 125.59 -6.34 M125.59 -6.34 C128.44 -5.01, 131.29 -3.68, 139.18 0 M125.59 -6.34 C130.04 -4.26, 134.5 -2.19, 139.18 0 M139.18 0 C139.18 0, 139.18 0, 139.18 0 M139.18 0 C139.18 0, 139.18 0, 139.18 0" stroke="#000000" stroke-width="4" fill="none"></path></g></g><mask id="mask-08hpbaSq_APivcmiDmKMu"><rect x="0" y="0" fill="#fff" width="808.5541263286806" height="246.88575321389726"></rect><rect x="603.8056377297128" y="134.88575321389726" fill="#000" width="70.3125" height="24" opacity="1"></rect></mask><g transform="translate(603.8056377297128 134.88575321389726) rotate(0 35.15625 12)"><text x="35.15625" y="0" font-family="Cascadia, Segoe UI Emoji" font-size="20px" fill="#000000" text-anchor="middle" style="white-space: pre;" direction="ltr" dominant-baseline="text-before-edge">backup</text></g><g transform="translate(629.1465415749657 84.69182296768122) rotate(0 10.546875 21.59999999999991)"><text x="0" y="0" font-family="Cascadia, Segoe UI Emoji" font-size="36px" fill="#5c940d" text-anchor="start" style="white-space: pre;" direction="ltr" dominant-baseline="text-before-edge">2</text></g><g transform="translate(640.458968303493 246.73960777664888) rotate(0 10.546875 21.59999999999991)"><text x="0" y="0" font-family="Cascadia, Segoe UI Emoji" font-size="36px" fill="#5c940d" text-anchor="start" style="white-space: pre;" direction="ltr" dominant-baseline="text-before-edge">3</text></g><g mask="url(#mask-jmIDgDcP62EJDl36YNPt4)" stroke-linecap="round"><g transform="translate(263.34001287347985 274.85061865898433) rotate(0 223.40931349988068 54.97782807722638)"><path d="M0 0 C98.64 24.27, 197.29 48.55, 446.82 109.96 M0 0 C125.53 30.89, 251.05 61.78, 446.82 109.96" stroke="#000000" stroke-width="4" fill="none"></path></g><g transform="translate(263.34001287347985 274.85061865898433) rotate(0 223.40931349988068 54.97782807722638)"><path d="M446.82 109.96 L432.1 112.86 L435.13 100.55 L446.82 109.96" stroke="none" stroke-width="0" fill="#000000" fill-rule="evenodd"></path><path d="M446.82 109.96 C443.57 110.6, 440.32 111.24, 432.1 112.86 M446.82 109.96 C442.68 110.77, 438.55 111.59, 432.1 112.86 M432.1 112.86 C433.25 108.21, 434.39 103.55, 435.13 100.55 M432.1 112.86 C432.94 109.48, 433.77 106.1, 435.13 100.55 M435.13 100.55 C437.85 102.74, 440.57 104.93, 446.82 109.96 M435.13 100.55 C438.94 103.61, 442.74 106.67, 446.82 109.96 M446.82 109.96 C446.82 109.96, 446.82 109.96, 446.82 109.96 M446.82 109.96 C446.82 109.96, 446.82 109.96, 446.82 109.96" stroke="#000000" stroke-width="4" fill="none"></path></g></g><mask id="mask-jmIDgDcP62EJDl36YNPt4"><rect x="0" y="0" fill="#fff" width="810.1586398732412" height="484.8062748134371"></rect><rect x="357.84307637336053" y="317.82844673621094" fill="#000" width="257.8125" height="24" opacity="1"></rect></mask><g transform="translate(357.84307637336053 317.82844673621094) rotate(0 128.90625 11.999999999999773)"><text x="128.90625" y="0" font-family="Cascadia, Segoe UI Emoji" font-size="20px" fill="#000000" text-anchor="middle" style="white-space: pre;" direction="ltr" dominant-baseline="text-before-edge">restart &amp; receive reqs</text></g><g transform="translate(455.1437163004805 275.6208515787416) rotate(0 10.546875 21.59999999999991)"><text x="0" y="0" font-family="Cascadia, Segoe UI Emoji" font-size="36px" fill="#5c940d" text-anchor="start" style="white-space: pre;" direction="ltr" dominant-baseline="text-before-edge">4</text></g></svg>