<svg version="1.1" xmlns="http://www.w3.org/2000/svg" viewBox="0 0 394.78359744175975 143.90596243120171" width="394.78359744175975" height="143.90596243120171">
  <!-- svg-source:excalidraw -->
  
  <defs>
    <style class="style-fonts">
      @font-face {
        font-family: "Virgil";
        src: url("https://excalidraw.com/Virgil.woff2");
      }
      @font-face {
        font-family: "Cascadia";
        src: url("https://excalidraw.com/Cascadia.woff2");
      }
    </style>
  </defs>
  <g stroke-linecap="round"><g transform="translate(12.677835523946783 19.586080919764754) rotate(0 38.51270784727936 41.692201720880576)" fill-rule="evenodd"><path d="M1.35 -0.45 L-0.15 84.51 L-0.09 85.81 L17.04 89.19 L41.71 91.16 L62.43 90.64 L78.31 85.01 L78.5 -0.78 L67.94 -4.14 L37.08 -9.55 L8.07 -6.68 L3.36 -2.55 L0.1 -1.21" stroke="none" stroke-width="0" fill="#ced4da" fill-rule="evenodd"></path><path d="M0.13 0.01 C0.19 12.38, 0.66 61.36, 0.68 75.18 C0.7 88.99, -0.26 80.71, 0.27 82.9 C0.79 85.1, 1.04 87.05, 3.85 88.33 C6.65 89.61, 10.77 90.18, 17.07 90.58 C23.38 90.98, 34.1 90.81, 41.67 90.73 C49.24 90.65, 56.85 90.72, 62.51 90.11 C68.18 89.49, 73.36 88.05, 75.65 87.02 C77.94 86, 76.13 85.91, 76.25 83.97 C76.37 82.03, 76.11 88.48, 76.36 75.36 C76.61 62.23, 77.78 17.74, 77.77 5.22 C77.77 -7.29, 77.42 1.85, 76.33 0.27 C75.24 -1.31, 73.84 -3.02, 71.26 -4.25 C68.68 -5.47, 66.39 -6.34, 60.84 -7.07 C55.29 -7.8, 45.11 -8.5, 37.95 -8.65 C30.79 -8.8, 23.47 -8.82, 17.88 -7.96 C12.28 -7.11, 7.42 -4.7, 4.35 -3.52 C1.29 -2.33, 0.23 -1.59, -0.52 -0.84 C-1.27 -0.09, -0.27 0.86, -0.13 0.99 M-1.26 -1.03 C-1.34 11.46, -0.2 62.57, -0.05 76.7 C0.1 90.83, -1.04 82.18, -0.37 83.77 C0.31 85.36, 0.81 85.04, 4.03 86.24 C7.24 87.43, 12.95 89.85, 18.91 90.96 C24.86 92.08, 32.44 93.26, 39.74 92.91 C47.05 92.55, 56.87 89.79, 62.73 88.81 C68.59 87.84, 72.36 88.03, 74.89 87.07 C77.43 86.1, 77.63 85.12, 77.94 83.02 C78.26 80.91, 76.66 87.33, 76.76 74.44 C76.87 61.54, 78.89 18.02, 78.57 5.64 C78.25 -6.74, 76.06 1.96, 74.85 0.15 C73.65 -1.66, 73.83 -3.89, 71.36 -5.21 C68.88 -6.52, 65.47 -7.02, 60.01 -7.75 C54.55 -8.48, 45.49 -9.66, 38.61 -9.58 C31.72 -9.51, 24.52 -8.4, 18.7 -7.29 C12.87 -6.18, 6.5 -3.99, 3.65 -2.92 C0.81 -1.86, 2.48 -1.67, 1.6 -0.89 C0.73 -0.11, -1.48 1.32, -1.58 1.76" stroke="#364fc7" stroke-width="1" fill="none"></path></g></g><mask></mask><g stroke-linecap="round"><g transform="translate(13.201764962221773 76.71236457749455) rotate(0 39.06639698688841 4.027638794758559)"><path d="M0.42 -0.03 C0.78 0.4, 0.58 1.36, 2.29 2.55 C4 3.75, 7.43 6.24, 10.68 7.15 C13.93 8.06, 16.67 7.97, 21.79 8 C26.9 8.03, 34.78 7.47, 41.36 7.33 C47.94 7.19, 55.66 7.75, 61.27 7.16 C66.88 6.57, 72.48 4.9, 75.04 3.78 C77.6 2.66, 76.37 1.27, 76.61 0.43 M-0.81 -1.08 C-0.6 -0.53, -0.3 2.58, 1.47 3.64 C3.25 4.7, 6.48 4.36, 9.85 5.26 C13.21 6.17, 16.62 8.76, 21.68 9.1 C26.74 9.43, 33.45 7.76, 40.21 7.28 C46.98 6.79, 56.3 6.91, 62.26 6.17 C68.21 5.43, 73.17 3.76, 75.95 2.82 C78.73 1.88, 78.59 0.9, 78.95 0.52" stroke="#364fc7" stroke-width="1" fill="none"></path></g></g><mask></mask><g stroke-linecap="round"><g transform="translate(12.169907639717962 47.748309242271716) rotate(0 38.84086228941533 3.306634045505234)"><path d="M0.25 -0.86 C0.5 -0.14, 0.26 3.1, 1.91 4.29 C3.55 5.47, 6.59 5.78, 10.12 6.26 C13.65 6.75, 18.11 6.84, 23.08 7.17 C28.05 7.5, 33.36 8.16, 39.94 8.27 C46.52 8.37, 56.91 8.53, 62.58 7.8 C68.25 7.07, 71.65 5.38, 73.97 3.87 C76.29 2.35, 75.8 -0.4, 76.48 -1.29 M-1.07 1.31 C-1.03 1.7, -0.78 1.58, 0.89 2.62 C2.57 3.67, 5.2 6.71, 9 7.58 C12.79 8.44, 18.2 7.64, 23.65 7.83 C29.1 8.02, 35.55 8.82, 41.7 8.71 C47.86 8.59, 55.16 8.1, 60.6 7.14 C66.04 6.19, 71.29 4.49, 74.32 2.95 C77.34 1.41, 78.32 -1.65, 78.75 -2.1" stroke="#364fc7" stroke-width="1" fill="none"></path></g></g><mask></mask><g stroke-linecap="round" transform="translate(11.11195865763591 12.453812294083036) rotate(0 38.29876800932749 7.745637696423955)"><path d="M39.51 0.65 C47.48 0.76, 57.83 1.83, 63.98 2.93 C70.14 4.03, 75.19 5.77, 76.45 7.25 C77.72 8.73, 76.02 10.34, 71.59 11.79 C67.17 13.25, 57.63 15.37, 49.9 15.97 C42.17 16.58, 32.88 16.17, 25.22 15.45 C17.56 14.73, 8.17 13.29, 3.94 11.66 C-0.28 10.04, -1.74 7.26, -0.11 5.7 C1.51 4.13, 6.11 3.12, 13.68 2.3 C21.24 1.48, 38.96 1.02, 45.26 0.78 C51.57 0.53, 51.41 0.93, 51.51 0.8 M24.44 -0.58 C31.72 -1.53, 43.17 -0.84, 51.04 -0.31 C58.91 0.22, 67.48 0.98, 71.65 2.6 C75.83 4.22, 77.46 7.49, 76.08 9.4 C74.7 11.3, 69.16 13.22, 63.38 14.02 C57.6 14.82, 49.47 14.04, 41.39 14.19 C33.32 14.34, 21.87 15.79, 14.93 14.92 C7.98 14.05, 1.42 10.96, -0.28 8.97 C-1.99 6.99, 0.62 4.57, 4.71 3 C8.8 1.43, 20.92 -0.25, 24.23 -0.45 C27.54 -0.65, 24.57 1.64, 24.56 1.8" stroke="none" stroke-width="0" fill="#fff"></path><path d="M26.88 -0.36 C34.24 -0.92, 46.07 0.37, 53.8 1.08 C61.53 1.78, 69.53 2.53, 73.26 3.85 C76.99 5.17, 78.36 7.19, 76.18 9.01 C74.01 10.83, 67.08 13.69, 60.2 14.75 C53.32 15.81, 42.88 15.64, 34.9 15.37 C26.91 15.11, 18.11 14.3, 12.3 13.14 C6.48 11.97, 1.12 9.92, 0.02 8.39 C-1.09 6.86, -0.12 5.42, 5.67 3.97 C11.46 2.51, 28.65 0.17, 34.74 -0.31 C40.83 -0.79, 42.09 0.98, 42.2 1.1 M26.28 0.32 C33.69 -0.55, 45.45 -0.56, 53.04 0.17 C60.63 0.91, 68.19 3.24, 71.85 4.73 C75.51 6.22, 76.66 7.79, 74.99 9.12 C73.33 10.45, 68.01 11.7, 61.86 12.71 C55.72 13.72, 46.35 14.96, 38.12 15.19 C29.89 15.41, 18.58 15.09, 12.5 14.06 C6.43 13.04, 2.65 10.7, 1.68 9.03 C0.7 7.35, 2.55 5.33, 6.63 4.02 C10.72 2.72, 22.98 1.98, 26.19 1.21 C29.4 0.43, 25.97 -0.45, 25.9 -0.64" stroke="#364fc7" stroke-width="1" fill="none"></path></g><g stroke-linecap="round" transform="translate(47.603945762858416 36.93047997398662) rotate(0 5.613051577080853 6.091879242227833)"><path d="M5.84 0.99 C6.99 0.89, 8.44 1.35, 9.42 2.01 C10.4 2.66, 11.65 3.6, 11.73 4.92 C11.82 6.24, 10.46 8.69, 9.93 9.92 C9.4 11.14, 9.7 11.91, 8.56 12.26 C7.41 12.62, 4.52 12.66, 3.08 12.07 C1.64 11.48, 0.56 9.78, -0.06 8.73 C-0.69 7.68, -0.89 6.87, -0.68 5.76 C-0.47 4.66, 0.22 3.06, 1.21 2.12 C2.2 1.18, 4.31 0.6, 5.27 0.12 C6.23 -0.35, 7.01 -0.78, 6.98 -0.73 M8.58 -0.44 C9.73 -0.15, 11.03 0.38, 11.43 1.68 C11.83 2.98, 11.46 5.79, 10.98 7.34 C10.5 8.9, 9.19 10.43, 8.57 11.02 C7.94 11.61, 8.3 10.7, 7.23 10.87 C6.15 11.04, 3.48 12.68, 2.1 12.06 C0.71 11.44, -0.89 8.77, -1.07 7.14 C-1.24 5.51, 0.18 3.55, 1.05 2.28 C1.91 1.01, 2.95 -0.33, 4.11 -0.5 C5.26 -0.67, 7.59 1.26, 7.97 1.26 C8.35 1.26, 6.35 -0.56, 6.38 -0.5" stroke="none" stroke-width="0" fill="#868e96"></path><path d="M7.11 0.62 C8.46 0.89, 10.01 1.2, 10.8 2.1 C11.6 3, 12.22 4.5, 11.89 6.01 C11.57 7.51, 9.97 10.12, 8.86 11.13 C7.75 12.14, 6.23 12.09, 5.23 12.06 C4.24 12.02, 3.77 11.66, 2.9 10.9 C2.02 10.14, 0.52 8.64, -0.01 7.51 C-0.54 6.37, -0.71 5.28, -0.27 4.07 C0.17 2.86, 1.45 0.72, 2.61 0.25 C3.77 -0.21, 5.82 1.26, 6.7 1.28 C7.57 1.3, 7.87 0.45, 7.88 0.38 M8.87 0.17 C9.88 0.73, 10.47 2.91, 10.69 4.12 C10.91 5.33, 10.55 6.45, 10.17 7.42 C9.79 8.39, 9.14 9.2, 8.41 9.94 C7.67 10.68, 6.98 11.7, 5.75 11.87 C4.53 12.04, 1.83 11.81, 1.08 10.97 C0.32 10.14, 1.07 8.17, 1.24 6.84 C1.41 5.51, 1.57 3.95, 2.1 2.99 C2.62 2.02, 3.46 1.65, 4.39 1.03 C5.32 0.42, 7.32 -0.44, 7.68 -0.7 C8.03 -0.96, 6.51 -0.89, 6.51 -0.51" stroke="#364fc7" stroke-width="1" fill="none"></path></g><g stroke-linecap="round" transform="translate(47.955087546792015 63.14709426105219) rotate(0 5.613051577080853 6.091879242227833)"><path d="M7.69 0.98 C8.84 1.14, 10.54 1.78, 11.02 2.93 C11.5 4.08, 10.7 6.52, 10.57 7.89 C10.44 9.26, 11.16 10.4, 10.24 11.15 C9.32 11.91, 6.53 12.53, 5.03 12.4 C3.53 12.26, 2.18 11.09, 1.24 10.34 C0.29 9.59, -0.43 8.99, -0.64 7.9 C-0.85 6.81, -0.61 5.02, -0.02 3.79 C0.57 2.56, 1.42 1.19, 2.9 0.53 C4.39 -0.13, 8 -0.3, 8.88 -0.19 C9.75 -0.08, 8.22 0.84, 8.16 1.19 M4.65 -0.46 C5.39 -0.79, 6.27 0.33, 7.05 0.97 C7.83 1.62, 8.45 2.63, 9.33 3.4 C10.21 4.17, 12.36 4.21, 12.33 5.57 C12.3 6.93, 10.43 10.54, 9.15 11.56 C7.86 12.57, 5.7 11.98, 4.63 11.67 C3.56 11.37, 3.34 10.61, 2.73 9.73 C2.12 8.84, 1.19 7.27, 0.98 6.38 C0.78 5.48, 1.21 5.47, 1.5 4.35 C1.8 3.23, 2.23 0.13, 2.76 -0.35 C3.3 -0.84, 4.35 1.03, 4.7 1.44" stroke="none" stroke-width="0" fill="#868e96"></path><path d="M4.37 -0.13 C5.53 -0.78, 7.38 -0.85, 8.28 -0.18 C9.18 0.48, 9.44 2.65, 9.76 3.87 C10.08 5.08, 10.24 6, 10.22 7.12 C10.21 8.25, 10.46 9.79, 9.64 10.6 C8.83 11.41, 6.74 11.88, 5.33 11.98 C3.92 12.09, 2.15 12.11, 1.17 11.23 C0.2 10.36, -0.31 7.97, -0.52 6.74 C-0.74 5.51, -0.87 5.02, -0.13 3.86 C0.61 2.71, 3.23 0.43, 3.91 -0.19 C4.58 -0.81, 3.72 -0.09, 3.92 0.12 M5.48 0.74 C6.3 0.66, 7.33 0.69, 8.18 1.2 C9.02 1.7, 10.09 2.54, 10.57 3.78 C11.05 5.03, 11.65 7.25, 11.06 8.66 C10.47 10.06, 8.04 11.67, 7.04 12.22 C6.04 12.76, 5.91 12.39, 5.07 11.95 C4.23 11.51, 2.78 10.57, 2.01 9.58 C1.23 8.59, 0.47 7.56, 0.41 6.02 C0.36 4.48, 1.06 1.54, 1.68 0.35 C2.3 -0.85, 3.49 -1.18, 4.12 -1.13 C4.75 -1.08, 5.24 0.49, 5.47 0.63" stroke="#364fc7" stroke-width="1" fill="none"></path></g><g stroke-linecap="round" transform="translate(48.603945762858416 91.9158208323588) rotate(357.5021844865888 5.613051577080853 6.091879242227833)"><path d="M8.89 0.74 C9.78 1.3, 9.74 3.44, 10.23 4.73 C10.73 6.02, 12.26 7.37, 11.86 8.5 C11.46 9.63, 9.16 10.97, 7.84 11.49 C6.52 12.01, 5.12 11.73, 3.93 11.6 C2.73 11.48, 1.45 11.54, 0.67 10.75 C-0.1 9.97, -0.69 8.28, -0.71 6.89 C-0.73 5.5, -0.42 3.7, 0.54 2.42 C1.51 1.15, 3.78 -0.6, 5.1 -0.78 C6.43 -0.96, 7.58 0.66, 8.5 1.33 C9.41 2.01, 10.64 2.99, 10.58 3.26 M4.18 0.84 C4.91 0.76, 5.92 1.02, 7.21 1.3 C8.51 1.57, 11.37 1.2, 11.95 2.47 C12.53 3.74, 11.45 7.55, 10.69 8.92 C9.92 10.3, 8.25 10.4, 7.37 10.73 C6.49 11.06, 6.23 11.18, 5.39 10.91 C4.54 10.65, 3.07 9.73, 2.32 9.14 C1.57 8.56, 1.19 8.66, 0.89 7.4 C0.58 6.13, -0.3 2.62, 0.49 1.55 C1.28 0.49, 4.76 1.03, 5.62 1 C6.47 0.97, 5.59 1.43, 5.61 1.35" stroke="none" stroke-width="0" fill="#868e96"></path><path d="M7.47 -0.44 C8.37 -0.05, 8.82 1.99, 9.29 3.1 C9.77 4.21, 10.16 5.07, 10.32 6.21 C10.48 7.35, 10.95 9.02, 10.26 9.97 C9.57 10.92, 7.58 11.63, 6.18 11.93 C4.78 12.23, 2.94 12.49, 1.85 11.78 C0.77 11.06, 0.07 8.82, -0.32 7.63 C-0.72 6.45, -1.02 5.9, -0.51 4.68 C0 3.46, 1.53 1.06, 2.74 0.31 C3.94 -0.44, 5.72 0.1, 6.72 0.21 C7.72 0.31, 8.66 0.74, 8.73 0.97 M4.08 -0.06 C5.11 -0.58, 6.94 -0.73, 8.18 -0.04 C9.41 0.64, 11.17 2.55, 11.49 4.06 C11.81 5.57, 10.45 7.73, 10.09 8.99 C9.73 10.25, 10.09 11.07, 9.32 11.61 C8.55 12.16, 6.77 12.47, 5.46 12.28 C4.15 12.1, 2.4 11.79, 1.46 10.5 C0.52 9.2, 0.03 6.13, -0.17 4.51 C-0.38 2.88, -0.63 1.42, 0.24 0.76 C1.1 0.1, 4.22 0.8, 5.02 0.54 C5.83 0.29, 5.07 -0.83, 5.07 -0.75" stroke="#364fc7" stroke-width="1" fill="none"></path></g><g transform="translate(10 113.50596243120162) rotate(0 40.82733917236328 10.200000000000045)"><text x="40.82733917236328" y="0" font-family="Virgil, Segoe UI Emoji" font-size="17.4778970902999px" fill="#364fc7" text-anchor="middle" style="white-space: pre;" direction="ltr" dominant-baseline="text-before-edge">DB - v1.0</text></g><g stroke-linecap="round"><g transform="translate(301.95461991639013 19.214109801112045) rotate(0 38.67509654085052 41.28584217454318)" fill-rule="evenodd"><path d="M1.68 1.83 L-0.2 84.84 L1.49 87.34 L19.33 91.02 L39.26 92.97 L61.71 91.2 L76.16 86.76 L78.56 -1.17 L67.08 -3.19 L37.85 -6.44 L9.13 -6.67 L3.91 -2.4 L-1.65 -0.65" stroke="none" stroke-width="0" fill="#ced4da" fill-rule="evenodd"></path><path d="M0.49 0.03 C0.8 12.33, 0.83 60.97, 0.89 74.82 C0.96 88.67, 0.5 80.91, 0.89 83.13 C1.27 85.36, 0.43 87.05, 3.2 88.16 C5.98 89.27, 11.36 89.24, 17.54 89.79 C23.73 90.33, 32.88 91.41, 40.32 91.41 C47.76 91.42, 56.3 90.88, 62.19 89.83 C68.07 88.78, 73.31 86.03, 75.62 85.11 C77.94 84.19, 75.99 85.84, 76.08 84.3 C76.17 82.76, 75.97 89.01, 76.17 75.86 C76.37 62.72, 77.06 18, 77.29 5.43 C77.53 -7.14, 78.73 2.22, 77.57 0.46 C76.42 -1.3, 73.24 -4.21, 70.38 -5.13 C67.52 -6.05, 66.07 -4.45, 60.4 -5.06 C54.74 -5.68, 43.22 -8.65, 36.38 -8.83 C29.53 -9.01, 24.83 -7.16, 19.33 -6.13 C13.83 -5.09, 6.52 -3.67, 3.37 -2.63 C0.23 -1.6, 1.14 -0.36, 0.47 0.09 C-0.2 0.54, -0.44 -0.1, -0.64 0.07 M-0.72 -0.99 C-0.42 11.99, 0.06 61.97, 0.28 76.15 C0.5 90.34, 0.12 82.48, 0.58 84.12 C1.05 85.76, 0.49 85.03, 3.05 85.97 C5.61 86.91, 9.58 89.03, 15.96 89.75 C22.34 90.48, 33.63 90.52, 41.35 90.29 C49.06 90.06, 56.65 88.8, 62.23 88.38 C67.82 87.97, 72.27 88.63, 74.85 87.81 C77.42 87, 77.41 85.62, 77.68 83.52 C77.96 81.42, 76.45 88.13, 76.47 75.2 C76.5 62.27, 77.79 18.42, 77.84 5.95 C77.88 -6.51, 78.05 1.91, 76.75 0.43 C75.45 -1.04, 72.92 -2.04, 70.02 -2.9 C67.12 -3.75, 64.98 -4.14, 59.34 -4.69 C53.71 -5.24, 43.23 -5.62, 36.21 -6.2 C29.2 -6.78, 22.93 -8.92, 17.25 -8.15 C11.58 -7.38, 5.13 -3.02, 2.16 -1.57 C-0.81 -0.13, -0.4 0.21, -0.55 0.53 C-0.69 0.85, 1.31 0.47, 1.29 0.36" stroke="#2b8a3e" stroke-width="1" fill="none"></path></g></g><mask></mask><g stroke-linecap="round"><g transform="translate(302.4785493546651 76.34039345884185) rotate(0 39.10112296317675 3.430639344146357)"><path d="M0.64 -0.38 C1.04 0.07, 1.34 1.56, 2.91 2.78 C4.48 4.01, 6.81 6.24, 10.04 6.97 C13.26 7.71, 17.26 7.03, 22.25 7.21 C27.25 7.38, 33.56 8.07, 40.01 8.02 C46.46 7.96, 55.11 7.9, 60.94 6.88 C66.78 5.86, 72.43 2.89, 75.01 1.87 C77.59 0.85, 76.23 1.2, 76.44 0.76 M-0.48 -1.63 C-0.2 -1.03, 0.25 2.89, 2.42 3.99 C4.59 5.1, 9.2 4.35, 12.53 5 C15.86 5.65, 17.51 7.33, 22.39 7.89 C27.27 8.44, 35.25 8.68, 41.81 8.33 C48.37 7.97, 56.08 6.54, 61.76 5.74 C67.44 4.95, 73.08 4.36, 75.9 3.57 C78.72 2.78, 78.37 1.4, 78.69 1.02" stroke="#2b8a3e" stroke-width="1" fill="none"></path></g></g><mask></mask><g stroke-linecap="round"><g transform="translate(301.4466920321613 47.3763381236181) rotate(0 39.168689910219655 3.8086508911512738)"><path d="M0.88 -0.63 C0.98 0.12, -0.35 3.09, 1.27 4.11 C2.89 5.13, 7.18 4.85, 10.59 5.47 C14 6.1, 16.89 7.44, 21.73 7.86 C26.57 8.28, 32.81 8.31, 39.61 7.98 C46.42 7.66, 56.86 6.52, 62.55 5.89 C68.25 5.26, 71.51 5.31, 73.8 4.2 C76.09 3.08, 75.66 0.12, 76.29 -0.79 M-0.12 1.65 C0.31 2.09, 1.94 1.57, 3.58 2.35 C5.22 3.14, 6.71 5.28, 9.71 6.37 C12.71 7.45, 16.34 8.56, 21.59 8.88 C26.84 9.2, 34.71 8.44, 41.21 8.28 C47.7 8.11, 55.08 8.7, 60.56 7.89 C66.03 7.09, 71.07 4.99, 74.06 3.46 C77.04 1.92, 78.11 -0.86, 78.46 -1.34" stroke="#2b8a3e" stroke-width="1" fill="none"></path></g></g><mask></mask><g stroke-linecap="round" transform="translate(300.38874305007926 12.081841175431236) rotate(0 38.29876800932749 7.745637696423955)"><path d="M23.6 1.47 C30.75 0.53, 42.16 -0.68, 50 -0.25 C57.83 0.19, 66.32 2.73, 70.61 4.1 C74.9 5.47, 76.59 6.56, 75.74 7.98 C74.89 9.4, 71.32 11.46, 65.48 12.64 C59.65 13.82, 49.1 14.7, 40.76 15.08 C32.41 15.46, 22.09 15.82, 15.39 14.94 C8.7 14.06, 2.48 11.51, 0.57 9.81 C-1.34 8.1, -0.9 6.42, 3.93 4.73 C8.77 3.03, 23.72 0.37, 29.57 -0.39 C35.42 -1.14, 38.76 -0.12, 39.05 0.19 M43.44 1.38 C50.83 1.49, 58.69 1.68, 64.41 2.65 C70.13 3.62, 76.88 5.41, 77.75 7.2 C78.62 8.99, 74.4 12.09, 69.64 13.39 C64.88 14.68, 57.03 14.92, 49.19 14.98 C41.35 15.04, 30.02 14.22, 22.6 13.73 C15.19 13.24, 8.31 13.27, 4.72 12.01 C1.13 10.76, -1.01 7.91, 1.06 6.21 C3.12 4.52, 10.17 2.89, 17.1 1.84 C24.03 0.8, 38.54 0.09, 42.64 -0.08 C46.73 -0.25, 41.88 0.49, 41.68 0.81" stroke="none" stroke-width="0" fill="#fff"></path><path d="M34.76 -0.91 C42.57 -0.98, 53.46 0.78, 60.05 1.79 C66.64 2.79, 71.97 3.7, 74.29 5.11 C76.62 6.53, 77.34 8.6, 74 10.27 C70.65 11.94, 61.93 14.13, 54.22 15.11 C46.51 16.1, 35.5 16.81, 27.73 16.17 C19.96 15.53, 12.36 12.87, 7.6 11.27 C2.84 9.66, -1.55 8.15, -0.81 6.52 C-0.07 4.89, 5.29 2.43, 12.06 1.49 C18.82 0.55, 34.03 1.07, 39.79 0.89 C45.54 0.7, 46.42 0.32, 46.59 0.38 M39.52 1.37 C47.67 1.58, 59.67 2.4, 65.8 3.47 C71.94 4.55, 75.54 6.23, 76.34 7.82 C77.14 9.42, 74.91 11.76, 70.61 13.03 C66.3 14.31, 58.64 15, 50.51 15.48 C42.37 15.96, 29.76 16.48, 21.82 15.92 C13.88 15.36, 6.42 13.55, 2.89 12.12 C-0.65 10.69, -1.67 9.12, 0.61 7.35 C2.9 5.58, 10 2.49, 16.6 1.51 C23.19 0.54, 36.15 1.54, 40.19 1.51 C44.23 1.47, 40.91 1.59, 40.83 1.28" stroke="#2b8a3e" stroke-width="1" fill="none"></path></g><g stroke-linecap="round" transform="translate(336.88073015530176 36.55850885533391) rotate(0 5.613051577080853 6.091879242227833)"><path d="M8.57 -0.15 C9.62 0.2, 10.65 2.67, 10.97 3.8 C11.29 4.93, 10.68 5.59, 10.5 6.65 C10.31 7.7, 10.7 9.27, 9.87 10.13 C9.04 10.98, 6.86 11.54, 5.5 11.79 C4.14 12.04, 2.69 12.39, 1.7 11.64 C0.71 10.88, -0.3 8.64, -0.45 7.26 C-0.61 5.88, 0.2 4.61, 0.77 3.36 C1.34 2.11, 1.63 0.23, 2.98 -0.23 C4.33 -0.68, 7.97 0.35, 8.89 0.63 C9.81 0.91, 8.63 1.24, 8.48 1.45 M4.32 0.31 C5.46 0.02, 9.32 0.49, 10.51 1.47 C11.69 2.46, 11.18 4.95, 11.42 6.19 C11.66 7.43, 12.43 8.13, 11.93 8.9 C11.44 9.68, 9.61 10.18, 8.45 10.84 C7.3 11.51, 6.35 13.09, 5 12.89 C3.65 12.7, 1.11 10.9, 0.35 9.67 C-0.41 8.44, 0.08 6.89, 0.44 5.49 C0.8 4.1, 1.72 2.09, 2.52 1.28 C3.32 0.46, 4.79 0.64, 5.26 0.62 C5.73 0.59, 5.21 1.18, 5.34 1.15" stroke="none" stroke-width="0" fill="#868e96"></path><path d="M3.76 0.68 C4.69 0.29, 5.48 -0.46, 6.77 -0.15 C8.07 0.16, 10.88 1.22, 11.55 2.53 C12.21 3.85, 11.3 6.2, 10.76 7.76 C10.22 9.31, 9.1 11.27, 8.3 11.85 C7.51 12.44, 7.25 11.55, 6.01 11.24 C4.77 10.94, 1.72 10.88, 0.88 10.03 C0.03 9.17, 1.07 7.16, 0.94 6.11 C0.82 5.05, -0.53 4.68, 0.13 3.7 C0.78 2.72, 4.05 0.75, 4.88 0.24 C5.72 -0.27, 5.21 0.64, 5.15 0.64 M7.03 1.37 C8.33 1.27, 8.61 1.71, 9.35 2.52 C10.09 3.34, 11.08 5.06, 11.45 6.24 C11.82 7.42, 12.47 8.49, 11.57 9.61 C10.67 10.72, 7.57 12.42, 6.03 12.93 C4.49 13.43, 3.3 13.07, 2.34 12.64 C1.37 12.22, 0.43 11.67, 0.27 10.37 C0.1 9.07, 1.06 6.1, 1.32 4.84 C1.58 3.58, 1.03 3.43, 1.84 2.81 C2.65 2.19, 5.6 1.75, 6.17 1.12 C6.74 0.48, 5.25 -1.02, 5.26 -1" stroke="#2b8a3e" stroke-width="1" fill="none"></path></g><g stroke-linecap="round" transform="translate(337.23187193923536 62.77512314239857) rotate(0 5.613051577080853 6.091879242227833)"><path d="M8.29 1.16 C9.11 1.57, 9.43 1.82, 10.01 2.76 C10.6 3.7, 11.98 5.5, 11.8 6.81 C11.63 8.12, 10.07 9.54, 8.95 10.6 C7.82 11.65, 6.33 13.1, 5.05 13.13 C3.76 13.15, 2.07 11.73, 1.23 10.74 C0.39 9.75, 0.19 8.62, 0 7.19 C-0.18 5.77, -0.7 3.33, 0.12 2.17 C0.93 1.02, 3.35 0.33, 4.88 0.29 C6.41 0.25, 8.39 1.39, 9.3 1.92 C10.21 2.44, 10.41 3.31, 10.33 3.45 M9.29 0.62 C10.62 1.22, 10.46 3.55, 10.99 4.69 C11.53 5.83, 12.71 6.55, 12.5 7.46 C12.29 8.36, 10.76 9.16, 9.74 10.13 C8.73 11.09, 7.83 13.11, 6.41 13.25 C4.99 13.38, 2.23 11.96, 1.22 10.93 C0.21 9.9, 0.31 8.48, 0.36 7.06 C0.42 5.65, 0.96 3.47, 1.53 2.43 C2.11 1.38, 2.79 0.94, 3.82 0.81 C4.85 0.67, 6.97 1.67, 7.72 1.63 C8.47 1.58, 8.55 0.85, 8.34 0.54" stroke="none" stroke-width="0" fill="#868e96"></path><path d="M2.08 0.06 C3.25 -0.77, 6.55 -1.03, 7.83 -0.58 C9.11 -0.13, 9.32 1.45, 9.76 2.78 C10.2 4.1, 10.39 6.25, 10.49 7.34 C10.59 8.43, 11.21 8.6, 10.35 9.31 C9.5 10.01, 6.5 11.39, 5.35 11.57 C4.2 11.76, 4.43 10.89, 3.45 10.42 C2.48 9.95, -0.1 9.86, -0.5 8.75 C-0.9 7.65, 0.29 5.1, 1.05 3.78 C1.81 2.46, 3.52 1.51, 4.05 0.85 C4.58 0.19, 4.27 -0.11, 4.23 -0.19 M8.08 1.6 C8.97 2.02, 10.34 3.57, 11.02 4.65 C11.71 5.73, 12.79 6.83, 12.19 8.08 C11.59 9.34, 8.8 11.37, 7.41 12.19 C6.01 13.02, 4.86 13.12, 3.82 13.04 C2.78 12.96, 1.61 12.8, 1.17 11.71 C0.74 10.62, 1.28 7.78, 1.22 6.5 C1.15 5.22, 0.21 4.88, 0.78 4.01 C1.35 3.14, 3.52 2.05, 4.64 1.3 C5.77 0.55, 6.92 -0.52, 7.56 -0.51 C8.2 -0.51, 8.64 1.14, 8.48 1.34" stroke="#2b8a3e" stroke-width="1" fill="none"></path></g><g stroke-linecap="round" transform="translate(337.88073015530176 91.54384971370519) rotate(357.5021844865888 5.613051577080853 6.091879242227833)"><path d="M3.44 -0.38 C4.57 -1.02, 7.43 -0.75, 8.63 -0.18 C9.83 0.39, 10.29 1.58, 10.65 3.03 C11.02 4.48, 11.21 7.15, 10.84 8.52 C10.46 9.89, 9.34 10.57, 8.39 11.25 C7.45 11.92, 6.44 12.8, 5.19 12.58 C3.94 12.36, 1.61 10.89, 0.9 9.92 C0.18 8.95, 0.86 7.88, 0.89 6.77 C0.92 5.65, 0.23 4.22, 1.09 3.22 C1.95 2.22, 4.97 1.08, 6.05 0.77 C7.13 0.46, 7.47 1.54, 7.58 1.37 M6.46 1.15 C7.64 1.15, 10.17 0.99, 11.12 1.58 C12.07 2.16, 12.11 3.13, 12.17 4.66 C12.23 6.19, 12.44 9.43, 11.51 10.75 C10.58 12.07, 7.93 12.35, 6.6 12.57 C5.27 12.79, 4.45 12.76, 3.51 12.08 C2.58 11.39, 1.59 9.64, 0.98 8.46 C0.36 7.29, -0.37 6.11, -0.18 5.04 C0.02 3.98, 1.03 2.94, 2.15 2.08 C3.27 1.22, 6.09 0.42, 6.54 -0.13 C7 -0.68, 5.03 -1.33, 4.87 -1.23" stroke="none" stroke-width="0" fill="#868e96"></path><path d="M7.68 -0.62 C8.92 -0.29, 9.2 1.34, 9.67 2.64 C10.14 3.94, 10.36 6.08, 10.49 7.17 C10.62 8.26, 11.29 8.45, 10.46 9.18 C9.63 9.91, 6.65 11.33, 5.51 11.55 C4.36 11.77, 4.58 10.95, 3.58 10.51 C2.59 10.07, -0.02 10.01, -0.45 8.91 C-0.89 7.82, 0.35 5.22, 1 3.93 C1.64 2.65, 2.37 1.88, 3.41 1.17 C4.46 0.47, 6.58 -0.08, 7.28 -0.3 C7.98 -0.52, 7.51 -0.46, 7.62 -0.13 M8.37 1.66 C9.62 2.03, 11.71 2.75, 11.93 3.95 C12.14 5.15, 10.39 7.49, 9.65 8.84 C8.92 10.19, 8.37 11.26, 7.53 12.04 C6.69 12.82, 5.4 13.82, 4.6 13.53 C3.81 13.24, 3.58 11.21, 2.77 10.29 C1.96 9.36, -0.06 9.11, -0.27 7.99 C-0.49 6.88, 0.8 5.11, 1.48 3.61 C2.15 2.12, 2.58 -0.55, 3.76 -0.95 C4.94 -1.35, 8.04 1.04, 8.55 1.24 C9.05 1.44, 6.73 0.08, 6.8 0.24" stroke="#2b8a3e" stroke-width="1" fill="none"></path></g><g transform="translate(295.4246496878535 113.133991312548) rotate(0 44.679473876953125 10.200000000000045)"><text x="44.679473876953125" y="0" font-family="Virgil, Segoe UI Emoji" font-size="17.4778970902999px" fill="#2b8a3e" text-anchor="middle" style="white-space: pre;" direction="ltr" dominant-baseline="text-before-edge">DB - v2.0</text></g><g stroke-linecap="round"><g stroke-opacity="0.5" fill-opacity="0.5" transform="translate(100.2063939935515 71.95298121560063) rotate(0 95.15453228454197 0)"><path d="M0 0 C40.71 0, 81.42 0, 190.31 0 M0 0 C56.62 0, 113.24 0, 190.31 0" stroke="#000000" stroke-width="4" fill="none"></path></g><g stroke-opacity="0.5" fill-opacity="0.5" transform="translate(100.2063939935515 71.95298121560063) rotate(0 95.15453228454197 0)"><path d="M190.31 0 L176.71 6.34 L176.71 -6.34 L190.31 0" stroke="none" stroke-width="0" fill="#000000" fill-rule="evenodd"></path><path d="M190.31 0 C187.4 1.36, 184.49 2.71, 176.71 6.34 M190.31 0 C186.26 1.89, 182.22 3.77, 176.71 6.34 M176.71 6.34 C176.71 3.71, 176.71 1.08, 176.71 -6.34 M176.71 6.34 C176.71 1.58, 176.71 -3.18, 176.71 -6.34 M176.71 -6.34 C181.77 -3.98, 186.82 -1.63, 190.31 0 M176.71 -6.34 C179.46 -5.06, 182.21 -3.78, 190.31 0 M190.31 0 C190.31 0, 190.31 0, 190.31 0 M190.31 0 C190.31 0, 190.31 0, 190.31 0" stroke="#000000" stroke-width="4" fill="none"></path></g></g><mask></mask><g stroke-linecap="round" transform="translate(136.89208328406642 44.542539707490505) rotate(0 41.04642251295377 27.410441508109898)"><path d="M13.71 0 L68.39 0 L74.38 0.86 L76.74 1.93 L80.17 5.35 L81.88 10.49 L82.09 41.12 L81.24 47.11 L80.17 49.47 L76.74 52.89 L71.6 54.61 L68.39 54.82 L13.71 54.82 L10.49 54.61 L5.35 52.89 L1.93 49.47 L0.21 44.33 L0.21 10.49 L1.93 5.35 L3.43 3.43 L7.71 0.86 L13.71 0" stroke="none" stroke-width="0" fill="#fd7e14"></path><path d="M13.71 0 M13.71 0 C32.34 0, 50.97 0, 68.39 0 M13.71 0 C25.84 0, 37.97 0, 68.39 0 M68.39 0 C77.52 0, 82.09 4.57, 82.09 13.71 M68.39 0 C77.52 0, 82.09 4.57, 82.09 13.71 M82.09 13.71 C82.09 24.35, 82.09 34.99, 82.09 41.12 M82.09 13.71 C82.09 20.65, 82.09 27.59, 82.09 41.12 M82.09 41.12 C82.09 50.25, 77.52 54.82, 68.39 54.82 M82.09 41.12 C82.09 50.25, 77.52 54.82, 68.39 54.82 M68.39 54.82 C48.09 54.82, 27.79 54.82, 13.71 54.82 M68.39 54.82 C51.7 54.82, 35.02 54.82, 13.71 54.82 M13.71 54.82 C4.57 54.82, 0 50.25, 0 41.12 M13.71 54.82 C4.57 54.82, 0 50.25, 0 41.12 M0 41.12 C0 33.33, 0 25.54, 0 13.71 M0 41.12 C0 35.35, 0 29.59, 0 13.71 M0 13.71 C0 4.57, 4.57 0, 13.71 0 M0 13.71 C0 4.57, 4.57 0, 13.71 0" stroke="#000000" stroke-width="4" fill="none"></path></g><g stroke-linecap="round"><g transform="translate(216.62049909088876 80.47245727784502) rotate(0 -39.636211034747134 -0.4403395393403571)"><path d="M0 0 C-6.53 -0.01, -25.97 0.08, -39.18 -0.07 C-52.39 -0.22, -72.59 -0.76, -79.27 -0.9 M0 0 C-6.53 -0.01, -25.97 0.08, -39.18 -0.07 C-52.39 -0.22, -72.59 -0.76, -79.27 -0.9" stroke="#ffffff" stroke-width="4" fill="none"></path></g></g><mask></mask><g stroke-linecap="round"><g transform="translate(137.14105907596866 60.2568097379949) rotate(0 39.52684748438435 1.308574188565899)"><path d="M0 0 C6.85 0.42, 27.9 2.2, 41.07 2.53 C54.25 2.87, 72.72 2.09, 79.05 2 M0 0 C6.85 0.42, 27.9 2.2, 41.07 2.53 C54.25 2.87, 72.72 2.09, 79.05 2" stroke="#ffffff" stroke-width="4" fill="none"></path></g></g><mask></mask><g stroke-linecap="round"><g transform="translate(160.69147270163046 62.858953493462195) rotate(0 -0.02601591742131859 7.785490878617566)"><path d="M0 0 C-0.01 2.6, -0.04 12.98, -0.05 15.57 M0 0 C-0.01 2.6, -0.04 12.98, -0.05 15.57" stroke="#ffffff" stroke-width="4" fill="none"></path></g></g><mask></mask><g stroke-linecap="round"><g transform="translate(194.1126060356704 64.82592591887669) rotate(0 -0.5515380388941367 7.826990940402766)"><path d="M0 0 C-0.18 2.61, -0.92 13.04, -1.1 15.65 M0 0 C-0.18 2.61, -0.92 13.04, -1.1 15.65" stroke="#ffffff" stroke-width="4" fill="none"></path></g></g><mask></mask><g stroke-linecap="round"><g transform="translate(175.31540558460563 46.333280756759905) rotate(0 0.18387219439637192 8.14149519618445)"><path d="M0 0 C0.06 2.71, 0.31 13.57, 0.37 16.28 M0 0 C0.06 2.71, 0.31 13.57, 0.37 16.28" stroke="#ffffff" stroke-width="4" fill="none"></path></g></g><mask></mask><g stroke-linecap="round"><g transform="translate(177.4966705932237 80.60067724069086) rotate(0 0.7674693346693857 8.2077117933095)"><path d="M0 0 C0.26 2.74, 1.28 13.68, 1.53 16.42 M0 0 C0.26 2.74, 1.28 13.68, 1.53 16.42" stroke="#ffffff" stroke-width="4" fill="none"></path></g></g><mask></mask><g stroke-linecap="round" transform="translate(136.89208328406642 44.542539707490505) rotate(0 41.04642251295377 27.410441508109898)"><path d="M13.71 0 M13.71 0 C31.43 0, 49.15 0, 68.39 0 M13.71 0 C33.54 0, 53.37 0, 68.39 0 M68.39 0 C77.52 0, 82.09 4.57, 82.09 13.71 M68.39 0 C77.52 0, 82.09 4.57, 82.09 13.71 M82.09 13.71 C82.09 20.52, 82.09 27.34, 82.09 41.12 M82.09 13.71 C82.09 22.07, 82.09 30.44, 82.09 41.12 M82.09 41.12 C82.09 50.25, 77.52 54.82, 68.39 54.82 M82.09 41.12 C82.09 50.25, 77.52 54.82, 68.39 54.82 M68.39 54.82 C57.35 54.82, 46.32 54.82, 13.71 54.82 M68.39 54.82 C52.5 54.82, 36.62 54.82, 13.71 54.82 M13.71 54.82 C4.57 54.82, 0 50.25, 0 41.12 M13.71 54.82 C4.57 54.82, 0 50.25, 0 41.12 M0 41.12 C0 32.94, 0 24.76, 0 13.71 M0 41.12 C0 34.74, 0 28.36, 0 13.71 M0 13.71 C0 4.57, 4.57 0, 13.71 0 M0 13.71 C0 4.57, 4.57 0, 13.71 0" stroke="#000000" stroke-width="4" fill="none"></path></g><g stroke-linecap="round" transform="translate(225.17116168239954 59.19862055986778) rotate(0 12.754360655732228 12.754360655732171)"><path d="M25.51 12.75 C25.51 13.49, 25.44 14.24, 25.31 14.97 C25.19 15.7, 24.99 16.42, 24.74 17.12 C24.49 17.81, 24.17 18.49, 23.8 19.13 C23.43 19.77, 23 20.39, 22.52 20.95 C22.05 21.52, 21.52 22.05, 20.95 22.52 C20.39 23, 19.77 23.43, 19.13 23.8 C18.49 24.17, 17.81 24.49, 17.12 24.74 C16.42 24.99, 15.7 25.19, 14.97 25.31 C14.24 25.44, 13.49 25.51, 12.75 25.51 C12.02 25.51, 11.27 25.44, 10.54 25.31 C9.81 25.19, 9.09 24.99, 8.39 24.74 C7.7 24.49, 7.02 24.17, 6.38 23.8 C5.74 23.43, 5.12 23, 4.56 22.52 C3.99 22.05, 3.46 21.52, 2.98 20.95 C2.51 20.39, 2.08 19.77, 1.71 19.13 C1.34 18.49, 1.02 17.81, 0.77 17.12 C0.52 16.42, 0.32 15.7, 0.19 14.97 C0.07 14.24, 0 13.49, 0 12.75 C0 12.02, 0.07 11.27, 0.19 10.54 C0.32 9.81, 0.52 9.09, 0.77 8.39 C1.02 7.7, 1.34 7.02, 1.71 6.38 C2.08 5.74, 2.51 5.12, 2.98 4.56 C3.46 3.99, 3.99 3.46, 4.56 2.98 C5.12 2.51, 5.74 2.08, 6.38 1.71 C7.02 1.34, 7.7 1.02, 8.39 0.77 C9.09 0.52, 9.81 0.32, 10.54 0.19 C11.27 0.07, 12.02 0, 12.75 0 C13.49 0, 14.24 0.07, 14.97 0.19 C15.7 0.32, 16.42 0.52, 17.12 0.77 C17.81 1.02, 18.49 1.34, 19.13 1.71 C19.77 2.08, 20.39 2.51, 20.95 2.98 C21.52 3.46, 22.05 3.99, 22.52 4.56 C23 5.12, 23.43 5.74, 23.8 6.38 C24.17 7.02, 24.49 7.7, 24.74 8.39 C24.99 9.09, 25.19 9.81, 25.31 10.54 C25.44 11.27, 25.48 12.39, 25.51 12.75 C25.54 13.12, 25.54 12.39, 25.51 12.75" stroke="#c92a2a" stroke-width="4" fill="none"></path></g><g stroke-linecap="round"><g transform="translate(229.89202899117038 63.348601184354266) rotate(0 9.263991503392901 8.604380031246365)"><path d="M0 0 C6.76 6.28, 13.52 12.56, 18.53 17.21 M0 0 C3.93 3.65, 7.86 7.3, 18.53 17.21" stroke="#c92a2a" stroke-width="4" fill="none"></path></g></g><mask></mask></svg>