<svg version="1.1" xmlns="http://www.w3.org/2000/svg" viewBox="0 0 486.50511668801676 473.3490151265062" width="486.50511668801676" height="473.3490151265062">
  <!-- svg-source:excalidraw -->
  
  <defs>
    <style class="style-fonts">
      @font-face {
        font-family: "Virgil";
        src: url("https://excalidraw.com/Virgil.woff2");
      }
      @font-face {
        font-family: "Cascadia";
        src: url("https://excalidraw.com/Cascadia.woff2");
      }
    </style>
  </defs>
  <g stroke-linecap="round" transform="translate(10 10) rotate(0 190.75562033976388 226.6745075632531)"><path d="M0 0 C135.11 0, 270.22 0, 381.51 0 M0 0 C104.56 0, 209.11 0, 381.51 0 M381.51 0 C381.51 97.57, 381.51 195.14, 381.51 453.35 M381.51 0 C381.51 99.47, 381.51 198.94, 381.51 453.35 M381.51 453.35 C286.57 453.35, 191.62 453.35, 0 453.35 M381.51 453.35 C253.06 453.35, 124.61 453.35, 0 453.35 M0 453.35 C0 332.64, 0 211.93, 0 0 M0 453.35 C0 301.96, 0 150.58, 0 0" stroke="#000000" stroke-width="1" fill="none"></path></g><g transform="translate(32.878359918863 34.81743762236988) rotate(0 24.609375 16.80000000000001)"><text x="0" y="0" font-family="Cascadia, Segoe UI Emoji" font-size="28px" fill="#000000" text-anchor="start" style="white-space: pre;" direction="ltr" dominant-baseline="text-before-edge">WAL</text></g><g stroke-linecap="round"><g transform="translate(92.73474784476616 102.06024120795803) rotate(0 101.32829743538252 0)"><path d="M0 0 C71.68 0, 143.37 0, 202.66 0 M0 0 C53.93 0, 107.85 0, 202.66 0" stroke="#000000" stroke-width="1" fill="none"></path></g></g><mask></mask><g stroke-linecap="round"><g transform="translate(92.73474784476616 146.63145856344568) rotate(0 101.32829743538252 0)"><path d="M0 0 C53.49 0, 106.97 0, 202.66 0 M0 0 C72.45 0, 144.9 0, 202.66 0" stroke="#000000" stroke-width="1" fill="none"></path></g></g><mask></mask><g stroke-linecap="round"><g transform="translate(92.73474784476616 196.11010479889808) rotate(0 101.32829743538252 0)"><path d="M0 0 C55.83 0, 111.66 0, 202.66 0 M0 0 C69.23 0, 138.45 0, 202.66 0" stroke="#000000" stroke-width="1" fill="none"></path></g></g><mask></mask><g stroke-linecap="round"><g transform="translate(92.73474784476616 238.60899029589825) rotate(0 101.32829743538252 0)"><path d="M0 0 C55.77 0, 111.54 0, 202.66 0 M0 0 C71.58 0, 143.17 0, 202.66 0" stroke="#000000" stroke-width="1" fill="none"></path></g></g><mask></mask><g stroke-linecap="round"><g transform="translate(92.73474784476616 285.31227413107115) rotate(0 101.32829743538252 0)"><path d="M0 0 C66.52 0, 133.04 0, 202.66 0 M0 0 C40.87 0, 81.75 0, 202.66 0" stroke="#000000" stroke-width="1" fill="none"></path></g></g><mask></mask><g mask="url(#mask-qZKnkM_aI7cMAjsQCnO12)" stroke-linecap="round"><g transform="translate(476.3573776351026 194.3226611338173) rotate(0 -78.53724196288584 0)"><path d="M0 0 C-60.41 0, -120.82 0, -157.07 0 M0 0 C-44.37 0, -88.73 0, -157.07 0" stroke="#000000" stroke-width="1" fill="none"></path></g><g transform="translate(476.3573776351026 194.3226611338173) rotate(0 -78.53724196288584 0)"><path d="M-157.07 0 L-143.48 -6.34 L-143.48 6.34 L-157.07 0" stroke="none" stroke-width="0" fill="#000000" fill-rule="evenodd"></path><path d="M-157.07 0 C-151.85 -2.44, -146.62 -4.88, -143.48 -6.34 M-157.07 0 C-153.23 -1.79, -149.39 -3.58, -143.48 -6.34 M-143.48 -6.34 C-143.48 -3, -143.48 0.35, -143.48 6.34 M-143.48 -6.34 C-143.48 -2.38, -143.48 1.58, -143.48 6.34 M-143.48 6.34 C-146.51 4.92, -149.55 3.51, -157.07 0 M-143.48 6.34 C-148.66 3.92, -153.84 1.51, -157.07 0 M-157.07 0 C-157.07 0, -157.07 0, -157.07 0 M-157.07 0 C-157.07 0, -157.07 0, -157.07 0" stroke="#000000" stroke-width="1" fill="none"></path></g></g><mask id="mask-qZKnkM_aI7cMAjsQCnO12"><rect x="0" y="0" fill="#fff" width="733.4318615608743" height="294.3226611338173"></rect><rect x="360.3201356722168" y="184.72266113381727" fill="#000" width="75" height="19.2" opacity="1"></rect></mask><g transform="translate(360.32013567221657 184.72266113381727) rotate(0 37.50000000000006 9.600000000000023)"><text x="37.5" y="0" font-family="Cascadia, Segoe UI Emoji" font-size="16px" fill="#000000" text-anchor="middle" style="white-space: pre;" direction="ltr" dominant-baseline="text-before-edge">sent_lsn</text></g><g stroke-linecap="round"><g transform="translate(92.73474784476616 320.70503719093153) rotate(0 101.32829743538252 0)"><path d="M0 0 C79.13 0, 158.26 0, 202.66 0 M0 0 C79.49 0, 158.97 0, 202.66 0" stroke="#000000" stroke-width="1" fill="none"></path></g></g><mask></mask><g stroke-linecap="round"><g transform="translate(92.73474784476616 363.2039226879317) rotate(0 101.32829743538252 0)"><path d="M0 0 C73.97 0, 147.94 0, 202.66 0 M0 0 C63.51 0, 127.02 0, 202.66 0" stroke="#000000" stroke-width="1" fill="none"></path></g></g><mask></mask><g stroke-linecap="round"><g transform="translate(92.73474784476616 409.9072065231046) rotate(0 101.32829743538252 0)"><path d="M0 0 C51.17 0, 102.34 0, 202.66 0 M0 0 C77.57 0, 155.14 0, 202.66 0" stroke="#000000" stroke-width="1" fill="none"></path></g></g><mask></mask><g mask="url(#mask-KEGcEOfhKBxaXHnyJWWpC)" stroke-linecap="round"><g transform="translate(476.50511668801676 410.0611380469609) rotate(0 -78.53724196288584 0)"><path d="M0 0 C-49.56 0, -99.11 0, -157.07 0 M0 0 C-33.81 0, -67.63 0, -157.07 0" stroke="#000000" stroke-width="1" fill="none"></path></g><g transform="translate(476.50511668801676 410.0611380469609) rotate(0 -78.53724196288584 0)"><path d="M-157.07 0 L-143.48 -6.34 L-143.48 6.34 L-157.07 0" stroke="none" stroke-width="0" fill="#000000" fill-rule="evenodd"></path><path d="M-157.07 0 C-152.79 -2, -148.5 -4, -143.48 -6.34 M-157.07 0 C-154.15 -1.36, -151.22 -2.73, -143.48 -6.34 M-143.48 -6.34 C-143.48 -1.29, -143.48 3.77, -143.48 6.34 M-143.48 -6.34 C-143.48 -2.54, -143.48 1.26, -143.48 6.34 M-143.48 6.34 C-146.91 4.74, -150.35 3.14, -157.07 0 M-143.48 6.34 C-146.92 4.73, -150.37 3.13, -157.07 0 M-157.07 0 C-157.07 0, -157.07 0, -157.07 0 M-157.07 0 C-157.07 0, -157.07 0, -157.07 0" stroke="#000000" stroke-width="1" fill="none"></path></g></g><mask id="mask-KEGcEOfhKBxaXHnyJWWpC"><rect x="0" y="0" fill="#fff" width="733.5796006137884" height="510.0611380469609"></rect><rect x="355.78037472513097" y="400.46113804696085" fill="#000" width="84.375" height="19.2" opacity="1"></rect></mask><g transform="translate(355.78037472513074 400.46113804696074) rotate(0 42.18750000000006 9.600000000000023)"><text x="42.1875" y="0" font-family="Cascadia, Segoe UI Emoji" font-size="16px" fill="#000000" text-anchor="middle" style="white-space: pre;" direction="ltr" dominant-baseline="text-before-edge">flush_lsn</text></g></svg>