<svg version="1.1" xmlns="http://www.w3.org/2000/svg" viewBox="0 0 648.1078495157751 487.5286288294842" width="648.1078495157751" height="487.5286288294842">
  <!-- svg-source:excalidraw -->
  
  <defs>
    <style class="style-fonts">
      @font-face {
        font-family: "Virgil";
        src: url("https://excalidraw.com/Virgil.woff2");
      }
      @font-face {
        font-family: "Cascadia";
        src: url("https://excalidraw.com/Cascadia.woff2");
      }
    </style>
  </defs>
  <g transform="translate(12.787220648507628 280.6481186623373) rotate(0 22.339981079101562 12)"><text x="0" y="0" font-family="Virgil, Segoe UI Emoji" font-size="20px" fill="#000000" text-anchor="start" style="white-space: pre;" direction="ltr" dominant-baseline="text-before-edge">User</text></g><g stroke-linecap="round"><g transform="translate(10 270.9951926523586) rotate(0 25.819645202628976 -21.79569932933714)" fill-rule="evenodd"><path d="M13.47 -38.64 C13.47 -38.64, 13.47 -38.64, 13.47 -38.64 M13.47 -38.64 C13.47 -38.64, 13.47 -38.64, 13.47 -38.64 M7.04 -19.05 C14.43 -27.55, 21.81 -36.04, 26.72 -41.69 M7.04 -19.05 C13.12 -26.05, 19.21 -33.05, 26.72 -41.69 M0.61 0.53 C12.94 -13.64, 25.26 -27.82, 35.39 -39.47 M0.61 0.53 C12.68 -13.35, 24.75 -27.23, 35.39 -39.47 M11.24 0.5 C17.51 -6.7, 23.77 -13.91, 40.77 -33.46 M11.24 0.5 C20.4 -10.03, 29.55 -20.56, 40.77 -33.46 M21.87 0.47 C27.33 -5.81, 32.78 -12.08, 46.81 -28.21 M21.87 0.47 C31.47 -10.57, 41.06 -21.61, 46.81 -28.21 M29.22 4.2 C37.61 -5.44, 46 -15.09, 50.87 -20.7 M29.22 4.2 C34.4 -1.74, 39.57 -7.69, 50.87 -20.7 M41.82 1.91 C46.44 -3.41, 51.06 -8.72, 54.94 -13.19 M41.82 1.91 C45.66 -2.51, 49.5 -6.92, 54.94 -13.19 M0 0 C0 0, 0 0, 0 0 M0 0 C0 0, 0 0, 0 0 M12.04 -0.13 C9.11 -2.68, 6.19 -5.22, 1.47 -9.32 M12.04 -0.13 C8.1 -3.56, 4.16 -6.99, 1.47 -9.32 M24.84 0.39 C17.99 -5.56, 11.15 -11.51, 2.95 -18.64 M24.84 0.39 C19.35 -4.38, 13.87 -9.14, 2.95 -18.64 M30.08 -5.65 C21.89 -12.77, 13.7 -19.89, 6.69 -25.99 M30.08 -5.65 C23.72 -11.18, 17.36 -16.71, 6.69 -25.99 M45.9 -2.5 C31.44 -15.07, 16.97 -27.65, 9.67 -33.99 M45.9 -2.5 C31.45 -15.06, 17.01 -27.62, 9.67 -33.99 M52.66 -7.23 C42.86 -15.74, 33.07 -24.25, 14.92 -40.03 M52.66 -7.23 C42.23 -16.29, 31.79 -25.36, 14.92 -40.03 M51.11 -19.17 C42.12 -26.99, 33.13 -34.8, 20.92 -45.41 M51.11 -19.17 C44.89 -24.58, 38.67 -29.98, 20.92 -45.41" stroke="#ced4da" stroke-width="1" fill="none"></path><path d="M0 0 C0.92 -4.85, 1.58 -21.76, 5.52 -29.07 C9.46 -36.38, 17.61 -43.34, 23.65 -43.87 C29.69 -44.4, 37.51 -39.05, 41.78 -32.24 C46.05 -25.43, 56.23 -8.39, 49.27 -3.02 C42.31 2.36, 8.21 -0.5, 0 0 M0 0 C0.92 -4.85, 1.58 -21.76, 5.52 -29.07 C9.46 -36.38, 17.61 -43.34, 23.65 -43.87 C29.69 -44.4, 37.51 -39.05, 41.78 -32.24 C46.05 -25.43, 56.23 -8.39, 49.27 -3.02 C42.31 2.36, 8.21 -0.5, 0 0" stroke="#000000" stroke-width="2" fill="none"></path></g></g><mask></mask><g stroke-linecap="round" transform="translate(22.453870836315673 204.30414486650216) rotate(0 12.612971703843186 11.03635024086293)"><path d="M2.98 3.91 C2.98 3.91, 2.98 3.91, 2.98 3.91 M2.98 3.91 C2.98 3.91, 2.98 3.91, 2.98 3.91 M2.45 16.71 C6.28 12.31, 10.11 7.9, 16.23 0.86 M2.45 16.71 C5.86 12.79, 9.26 8.88, 16.23 0.86 M8.49 21.96 C12.76 17.04, 17.04 12.12, 23.58 4.6 M8.49 21.96 C14.24 15.34, 19.99 8.73, 23.58 4.6 M4.36 19.37 C4.36 19.37, 4.36 19.37, 4.36 19.37 M4.36 19.37 C4.36 19.37, 4.36 19.37, 4.36 19.37 M17.91 20.55 C13.43 16.65, 8.95 12.76, 1.31 6.11 M17.91 20.55 C11.86 15.28, 5.81 10.02, 1.31 6.11 M24.67 15.82 C21.18 12.78, 17.69 9.75, 7.31 0.73 M24.67 15.82 C18.62 10.56, 12.56 5.29, 7.31 0.73" stroke="#ced4da" stroke-width="1" fill="none"></path><path d="M25.23 11.04 C25.23 11.68, 25.16 12.32, 25.03 12.95 C24.91 13.58, 24.71 14.21, 24.47 14.81 C24.22 15.41, 23.9 16, 23.54 16.55 C23.17 17.11, 22.74 17.64, 22.28 18.13 C21.81 18.62, 21.28 19.08, 20.72 19.49 C20.16 19.9, 19.55 20.27, 18.92 20.59 C18.29 20.91, 17.61 21.19, 16.93 21.41 C16.24 21.63, 15.52 21.79, 14.8 21.91 C14.08 22.02, 13.34 22.07, 12.61 22.07 C11.88 22.07, 11.14 22.02, 10.42 21.91 C9.7 21.79, 8.99 21.63, 8.3 21.41 C7.61 21.19, 6.94 20.91, 6.31 20.59 C5.67 20.27, 5.06 19.9, 4.51 19.49 C3.95 19.08, 3.42 18.62, 2.95 18.13 C2.48 17.64, 2.05 17.11, 1.69 16.55 C1.32 16, 1.01 15.41, 0.76 14.81 C0.51 14.21, 0.32 13.58, 0.19 12.95 C0.06 12.32, 0 11.68, 0 11.04 C0 10.4, 0.06 9.75, 0.19 9.12 C0.32 8.49, 0.51 7.86, 0.76 7.26 C1.01 6.66, 1.32 6.07, 1.69 5.52 C2.05 4.96, 2.48 4.43, 2.95 3.94 C3.42 3.45, 3.95 2.99, 4.51 2.58 C5.06 2.17, 5.67 1.8, 6.31 1.48 C6.94 1.16, 7.61 0.88, 8.3 0.67 C8.99 0.45, 9.7 0.28, 10.42 0.17 C11.14 0.06, 11.88 0, 12.61 0 C13.34 0, 14.08 0.06, 14.8 0.17 C15.52 0.28, 16.24 0.45, 16.93 0.67 C17.61 0.88, 18.29 1.16, 18.92 1.48 C19.55 1.8, 20.16 2.17, 20.72 2.58 C21.28 2.99, 21.81 3.45, 22.28 3.94 C22.74 4.43, 23.17 4.96, 23.54 5.52 C23.9 6.07, 24.22 6.66, 24.47 7.26 C24.71 7.86, 24.91 8.49, 25.03 9.12 C25.16 9.75, 25.19 10.72, 25.23 11.04 C25.26 11.36, 25.26 10.72, 25.23 11.04" stroke="#000000" stroke-width="2" fill="none"></path></g><g stroke-linecap="round"><g transform="translate(79.37188186808453 254.6660867684368) rotate(0 85.30599382656874 -68.51047759478206)"><path d="M0 0 C28.67 0, 57.34 0, 87.2 0 M0 0 C30.75 0, 61.5 0, 87.2 0 M87.2 0 C119.76 -53.48, 152.31 -106.95, 170.61 -137.02 M87.2 0 C104.85 -28.99, 122.49 -57.98, 170.61 -137.02" stroke="#000000" stroke-width="4" fill="none"></path></g><g transform="translate(79.37188186808453 254.6660867684368) rotate(0 85.30599382656874 -68.51047759478206)"><path d="M170.61 -137.02 L168.96 -122.11 L158.13 -128.7 L170.61 -137.02" stroke="none" stroke-width="0" fill="#000000" fill-rule="evenodd"></path><path d="M170.61 -137.02 C170.07 -132.12, 169.52 -127.22, 168.96 -122.11 M170.61 -137.02 C170.03 -131.76, 169.45 -126.51, 168.96 -122.11 M168.96 -122.11 C164.73 -124.69, 160.5 -127.26, 158.13 -128.7 M168.96 -122.11 C166.67 -123.51, 164.38 -124.9, 158.13 -128.7 M158.13 -128.7 C162.48 -131.6, 166.83 -134.5, 170.61 -137.02 M158.13 -128.7 C161.73 -131.11, 165.34 -133.51, 170.61 -137.02 M170.61 -137.02 C170.61 -137.02, 170.61 -137.02, 170.61 -137.02 M170.61 -137.02 C170.61 -137.02, 170.61 -137.02, 170.61 -137.02" stroke="#000000" stroke-width="4" fill="none"></path></g></g><mask></mask><g stroke-linecap="round" transform="translate(276.07641220052597 10) rotate(0 76.1658942166705 88.10880989469774)"><path d="M0 0 C55.81 0, 111.62 0, 152.33 0 M0 0 C48.69 0, 97.38 0, 152.33 0 M152.33 0 C152.33 39.95, 152.33 79.89, 152.33 176.22 M152.33 0 C152.33 64.08, 152.33 128.16, 152.33 176.22 M152.33 176.22 C120.75 176.22, 89.17 176.22, 0 176.22 M152.33 176.22 C101.11 176.22, 49.89 176.22, 0 176.22 M0 176.22 C0 115.41, 0 54.61, 0 0 M0 176.22 C0 140.88, 0 105.53, 0 0" stroke="#000000" stroke-width="4" fill="none"></path></g><g transform="translate(317.08605641719646 38.10880989469797) rotate(0 35.15625 60)"><text x="35.15625" y="0" font-family="Cascadia, Segoe UI Emoji" font-size="20px" fill="#000000" text-anchor="middle" style="white-space: pre;" direction="ltr" dominant-baseline="text-before-edge">CRD</text><text x="35.15625" y="24" font-family="Cascadia, Segoe UI Emoji" font-size="20px" fill="#000000" text-anchor="middle" style="white-space: pre;" direction="ltr" dominant-baseline="text-before-edge">------</text><text x="35.15625" y="48" font-family="Cascadia, Segoe UI Emoji" font-size="20px" fill="#000000" text-anchor="middle" style="white-space: pre;" direction="ltr" dominant-baseline="text-before-edge">------</text><text x="35.15625" y="72" font-family="Cascadia, Segoe UI Emoji" font-size="20px" fill="#000000" text-anchor="middle" style="white-space: pre;" direction="ltr" dominant-baseline="text-before-edge">------</text><text x="35.15625" y="96" font-family="Cascadia, Segoe UI Emoji" font-size="20px" fill="#000000" text-anchor="middle" style="white-space: pre;" direction="ltr" dominant-baseline="text-before-edge">&lt;/&gt;</text></g><g transform="translate(264.35168141719646 198.43940557970154) rotate(0 87.890625 12)"><text x="0" y="0" font-family="Cascadia, Segoe UI Emoji" font-size="20px" fill="#000000" text-anchor="start" style="white-space: pre;" direction="ltr" dominant-baseline="text-before-edge">Custom Resource</text></g><g stroke-linecap="round" transform="translate(313.2893005213484 406.12045534727577) rotate(0 36.97044669174636 35.704086741104106)"><path d="M73.94 35.7 C73.94 37.57, 73.79 39.45, 73.49 41.29 C73.18 43.13, 72.73 44.97, 72.13 46.74 C71.54 48.51, 70.79 50.25, 69.91 51.91 C69.04 53.57, 68.01 55.18, 66.88 56.69 C65.75 58.2, 64.48 59.63, 63.11 60.95 C61.75 62.27, 60.26 63.49, 58.7 64.59 C57.14 65.68, 55.47 66.67, 53.75 67.52 C52.04 68.36, 50.23 69.09, 48.39 69.66 C46.56 70.24, 44.66 70.68, 42.75 70.97 C40.85 71.26, 38.9 71.41, 36.97 71.41 C35.04 71.41, 33.09 71.26, 31.19 70.97 C29.28 70.68, 27.38 70.24, 25.55 69.66 C23.71 69.09, 21.9 68.36, 20.19 67.52 C18.47 66.67, 16.8 65.68, 15.24 64.59 C13.68 63.49, 12.19 62.27, 10.83 60.95 C9.47 59.63, 8.19 58.2, 7.06 56.69 C5.93 55.18, 4.9 53.57, 4.03 51.91 C3.15 50.25, 2.41 48.51, 1.81 46.74 C1.21 44.97, 0.76 43.13, 0.46 41.29 C0.15 39.45, 0 37.57, 0 35.7 C0 33.84, 0.15 31.96, 0.46 30.12 C0.76 28.28, 1.21 26.44, 1.81 24.67 C2.41 22.9, 3.15 21.15, 4.03 19.49 C4.9 17.84, 5.93 16.22, 7.06 14.72 C8.19 13.21, 9.47 11.77, 10.83 10.46 C12.19 9.14, 13.68 7.91, 15.24 6.82 C16.8 5.72, 18.47 4.74, 20.19 3.89 C21.9 3.05, 23.71 2.32, 25.55 1.75 C27.38 1.17, 29.28 0.73, 31.19 0.44 C33.09 0.15, 35.04 0, 36.97 0 C38.9 0, 40.85 0.15, 42.75 0.44 C44.66 0.73, 46.56 1.17, 48.39 1.75 C50.23 2.32, 52.04 3.05, 53.75 3.89 C55.47 4.74, 57.14 5.72, 58.7 6.82 C60.26 7.91, 61.75 9.14, 63.11 10.46 C64.48 11.77, 65.75 13.21, 66.88 14.72 C68.01 16.22, 69.04 17.84, 69.91 19.49 C70.79 21.15, 71.54 22.9, 72.13 24.67 C72.73 26.44, 73.18 28.28, 73.49 30.12 C73.79 31.96, 73.87 34.77, 73.94 35.7 C74.02 36.63, 74.02 34.77, 73.94 35.7" stroke="none" stroke-width="0" fill="#228be6"></path><path d="M73.94 35.7 C73.94 37.57, 73.79 39.45, 73.49 41.29 C73.18 43.13, 72.73 44.97, 72.13 46.74 C71.54 48.51, 70.79 50.25, 69.91 51.91 C69.04 53.57, 68.01 55.18, 66.88 56.69 C65.75 58.2, 64.48 59.63, 63.11 60.95 C61.75 62.27, 60.26 63.49, 58.7 64.59 C57.14 65.68, 55.47 66.67, 53.75 67.52 C52.04 68.36, 50.23 69.09, 48.39 69.66 C46.56 70.24, 44.66 70.68, 42.75 70.97 C40.85 71.26, 38.9 71.41, 36.97 71.41 C35.04 71.41, 33.09 71.26, 31.19 70.97 C29.28 70.68, 27.38 70.24, 25.55 69.66 C23.71 69.09, 21.9 68.36, 20.19 67.52 C18.47 66.67, 16.8 65.68, 15.24 64.59 C13.68 63.49, 12.19 62.27, 10.83 60.95 C9.47 59.63, 8.19 58.2, 7.06 56.69 C5.93 55.18, 4.9 53.57, 4.03 51.91 C3.15 50.25, 2.41 48.51, 1.81 46.74 C1.21 44.97, 0.76 43.13, 0.46 41.29 C0.15 39.45, 0 37.57, 0 35.7 C0 33.84, 0.15 31.96, 0.46 30.12 C0.76 28.28, 1.21 26.44, 1.81 24.67 C2.41 22.9, 3.15 21.15, 4.03 19.49 C4.9 17.84, 5.93 16.22, 7.06 14.72 C8.19 13.21, 9.47 11.77, 10.83 10.46 C12.19 9.14, 13.68 7.91, 15.24 6.82 C16.8 5.72, 18.47 4.74, 20.19 3.89 C21.9 3.05, 23.71 2.32, 25.55 1.75 C27.38 1.17, 29.28 0.73, 31.19 0.44 C33.09 0.15, 35.04 0, 36.97 0 C38.9 0, 40.85 0.15, 42.75 0.44 C44.66 0.73, 46.56 1.17, 48.39 1.75 C50.23 2.32, 52.04 3.05, 53.75 3.89 C55.47 4.74, 57.14 5.72, 58.7 6.82 C60.26 7.91, 61.75 9.14, 63.11 10.46 C64.48 11.77, 65.75 13.21, 66.88 14.72 C68.01 16.22, 69.04 17.84, 69.91 19.49 C70.79 21.15, 71.54 22.9, 72.13 24.67 C72.73 26.44, 73.18 28.28, 73.49 30.12 C73.79 31.96, 73.87 34.77, 73.94 35.7 C74.02 36.63, 74.02 34.77, 73.94 35.7" stroke="#228be6" stroke-width="1" fill="none"></path></g><g stroke-linecap="round"><g transform="translate(349.69859709980346 411.1488028652793) rotate(0 -11.063110863447719 7.257981910755234)"><path d="M0 0 C-6.01 3.95, -12.03 7.89, -22.13 14.52 M0 0 C-6.94 4.55, -13.88 9.11, -22.13 14.52" stroke="#ffffff" stroke-width="4" fill="none"></path></g></g><mask></mask><g stroke-linecap="round"><g transform="translate(350.3148095738329 411.28736727960995) rotate(0 11.632616366764523 7.58081605385928)"><path d="M0 0 C7.19 4.69, 14.39 9.38, 23.27 15.16 M0 0 C7.26 4.73, 14.51 9.46, 23.27 15.16" stroke="#ffffff" stroke-width="4" fill="none"></path></g></g><mask></mask><g stroke-linecap="round"><g transform="translate(326.78823341661337 426.18759314069985) rotate(0 -3.115319239079895 11.142191825224472)"><path d="M0 0 C-1.5 5.35, -2.99 10.71, -6.23 22.28 M0 0 C-1.42 5.07, -2.84 10.14, -6.23 22.28" stroke="#ffffff" stroke-width="4" fill="none"></path></g></g><mask></mask><g stroke-linecap="round"><g transform="translate(373.5800423073622 426.97180490025903) rotate(0 3.1369028808479698 9.672069517050545)"><path d="M0 0 C2.41 7.44, 4.82 14.87, 6.27 19.34 M0 0 C2.33 7.19, 4.66 14.38, 6.27 19.34" stroke="#ffffff" stroke-width="4" fill="none"></path></g></g><mask></mask><g stroke-linecap="round"><g transform="translate(320.3825627744168 449.4829696576412) rotate(0 8.6923734806237 9.526301482356644)"><path d="M0 0 C4.94 5.41, 9.87 10.82, 17.38 19.05 M0 0 C6.23 6.83, 12.47 13.67, 17.38 19.05" stroke="#ffffff" stroke-width="4" fill="none"></path></g></g><mask></mask><g stroke-linecap="round"><g transform="translate(339.0095109529682 469.2765752164187) rotate(0 12.057168665932409 0.02159062209454987)"><path d="M0 0 C8.92 0.02, 17.84 0.03, 24.11 0.04 M0 0 C9.44 0.02, 18.87 0.03, 24.11 0.04" stroke="#ffffff" stroke-width="4" fill="none"></path></g></g><mask></mask><g stroke-linecap="round"><g transform="translate(380.136844937781 447.5797852127798) rotate(0 -7.951277775875724 10.325581931826605)"><path d="M0 0 C-5.2 6.76, -10.41 13.52, -15.9 20.65 M0 0 C-3.89 5.05, -7.78 10.11, -15.9 20.65" stroke="#ffffff" stroke-width="4" fill="none"></path></g></g><mask></mask><g stroke-linecap="round" transform="translate(337.080895584922 431.45467490997044) rotate(0 13.565460543655945 12.262973014996874)"><path d="M27.13 12.26 C27.13 12.97, 27.06 13.69, 26.92 14.39 C26.79 15.09, 26.58 15.79, 26.31 16.46 C26.04 17.12, 25.71 17.78, 25.31 18.39 C24.92 19.01, 24.46 19.6, 23.96 20.15 C23.45 20.69, 22.89 21.2, 22.29 21.66 C21.68 22.11, 21.03 22.53, 20.35 22.88 C19.67 23.24, 18.94 23.54, 18.21 23.79 C17.47 24.03, 16.69 24.22, 15.92 24.34 C15.15 24.46, 14.35 24.53, 13.57 24.53 C12.78 24.53, 11.98 24.46, 11.21 24.34 C10.44 24.22, 9.66 24.03, 8.93 23.79 C8.19 23.54, 7.46 23.24, 6.78 22.88 C6.1 22.53, 5.45 22.11, 4.85 21.66 C4.24 21.2, 3.68 20.69, 3.17 20.15 C2.67 19.6, 2.21 19.01, 1.82 18.39 C1.42 17.78, 1.09 17.12, 0.82 16.46 C0.55 15.79, 0.34 15.09, 0.21 14.39 C0.07 13.69, 0 12.97, 0 12.26 C0 11.55, 0.07 10.83, 0.21 10.13 C0.34 9.43, 0.55 8.74, 0.82 8.07 C1.09 7.4, 1.42 6.75, 1.82 6.13 C2.21 5.52, 2.67 4.92, 3.17 4.38 C3.68 3.84, 4.24 3.33, 4.85 2.87 C5.45 2.41, 6.1 2, 6.78 1.64 C7.46 1.29, 8.19 0.98, 8.93 0.74 C9.66 0.5, 10.44 0.31, 11.21 0.19 C11.98 0.06, 12.78 0, 13.57 0 C14.35 0, 15.15 0.06, 15.92 0.19 C16.69 0.31, 17.47 0.5, 18.21 0.74 C18.94 0.98, 19.67 1.29, 20.35 1.64 C21.03 2, 21.68 2.41, 22.29 2.87 C22.89 3.33, 23.45 3.84, 23.96 4.38 C24.46 4.92, 24.92 5.52, 25.31 6.13 C25.71 6.75, 26.04 7.4, 26.31 8.07 C26.58 8.74, 26.79 9.43, 26.92 10.13 C27.06 10.83, 27.1 11.91, 27.13 12.26 C27.17 12.62, 27.17 11.91, 27.13 12.26" stroke="#ffffff" stroke-width="4" fill="none"></path></g><g stroke-linecap="round" transform="translate(345.8597630730644 439.58373596308) rotate(0 4.831332414828466 4.348195561049579)"><path d="M9.66 4.35 C9.66 4.6, 9.64 4.86, 9.59 5.1 C9.54 5.35, 9.47 5.6, 9.37 5.84 C9.28 6.07, 9.16 6.3, 9.02 6.52 C8.88 6.74, 8.71 6.95, 8.53 7.14 C8.35 7.34, 8.15 7.52, 7.94 7.68 C7.72 7.84, 7.49 7.99, 7.25 8.11 C7 8.24, 6.75 8.35, 6.48 8.43 C6.22 8.52, 5.95 8.59, 5.67 8.63 C5.39 8.67, 5.11 8.7, 4.83 8.7 C4.55 8.7, 4.27 8.67, 3.99 8.63 C3.72 8.59, 3.44 8.52, 3.18 8.43 C2.92 8.35, 2.66 8.24, 2.42 8.11 C2.17 7.99, 1.94 7.84, 1.73 7.68 C1.51 7.52, 1.31 7.34, 1.13 7.14 C0.95 6.95, 0.79 6.74, 0.65 6.52 C0.51 6.3, 0.39 6.07, 0.29 5.84 C0.2 5.6, 0.12 5.35, 0.07 5.1 C0.02 4.86, 0 4.6, 0 4.35 C0 4.1, 0.02 3.84, 0.07 3.59 C0.12 3.35, 0.2 3.1, 0.29 2.86 C0.39 2.62, 0.51 2.39, 0.65 2.17 C0.79 1.96, 0.95 1.75, 1.13 1.55 C1.31 1.36, 1.51 1.18, 1.73 1.02 C1.94 0.86, 2.17 0.71, 2.42 0.58 C2.66 0.46, 2.92 0.35, 3.18 0.26 C3.44 0.18, 3.72 0.11, 3.99 0.07 C4.27 0.02, 4.55 0, 4.83 0 C5.11 0, 5.39 0.02, 5.67 0.07 C5.95 0.11, 6.22 0.18, 6.48 0.26 C6.75 0.35, 7 0.46, 7.25 0.58 C7.49 0.71, 7.72 0.86, 7.94 1.02 C8.15 1.18, 8.35 1.36, 8.53 1.55 C8.71 1.75, 8.88 1.96, 9.02 2.17 C9.16 2.39, 9.28 2.62, 9.37 2.86 C9.47 3.1, 9.54 3.35, 9.59 3.59 C9.64 3.84, 9.65 4.22, 9.66 4.35 C9.67 4.47, 9.67 4.22, 9.66 4.35" stroke="#ffffff" stroke-width="4" fill="none"></path></g><g stroke-linecap="round"><g transform="translate(346.4395262655146 441.3230100591618) rotate(0 -6.017179999329073 -5.322803064501159)"><path d="M0 0 C-4.46 -3.95, -8.92 -7.89, -12.03 -10.65 M0 0 C-4.04 -3.57, -8.08 -7.15, -12.03 -10.65" stroke="#ffffff" stroke-width="4" fill="none"></path></g></g><mask></mask><g stroke-linecap="round"><g transform="translate(371.3645902408996 446.7631989777765) rotate(0 -7.230284913153241 -1.0510011815381404)"><path d="M0 0 C-5 -0.73, -10.01 -1.46, -14.46 -2.1 M0 0 C-4.65 -0.68, -9.31 -1.35, -14.46 -2.1" stroke="#ffffff" stroke-width="4" fill="none"></path></g></g><mask></mask><g stroke-linecap="round"><g transform="translate(359.60998468672346 461.4417170175507) rotate(0 -3.361149317413606 -6.357893688892318)"><path d="M0 0 C-1.54 -2.91, -3.07 -5.81, -6.72 -12.72 M0 0 C-1.63 -3.08, -3.25 -6.15, -6.72 -12.72" stroke="#ffffff" stroke-width="4" fill="none"></path></g></g><mask></mask><g stroke-linecap="round"><g transform="translate(347.0533795641345 447.3716658577009) rotate(0 -3.37509264541859 7.1054886927539656)"><path d="M0 0 C-2.07 4.35, -4.13 8.7, -6.75 14.21 M0 0 C-2.55 5.36, -5.09 10.73, -6.75 14.21" stroke="#ffffff" stroke-width="4" fill="none"></path></g></g><mask></mask><g stroke-linecap="round"><g transform="translate(350.2954800494076 423.9663248641991) rotate(0 0.3040958175141668 7.843262517742801)"><path d="M0 0 C0.17 4.42, 0.34 8.83, 0.61 15.69 M0 0 C0.17 4.27, 0.33 8.53, 0.61 15.69" stroke="#ffffff" stroke-width="4" fill="none"></path></g></g><mask></mask><g stroke-linecap="round"><g transform="translate(366.7955983101672 431.08569978242986) rotate(0 -6.1434387607000644 4.9126426683288855)"><path d="M0 0 C-2.89 2.31, -5.78 4.62, -12.29 9.83 M0 0 C-3.9 3.12, -7.79 6.23, -12.29 9.83" stroke="#ffffff" stroke-width="4" fill="none"></path></g></g><mask></mask><g stroke-linecap="round"><g transform="translate(345.2871591773337 445.43608116414043) rotate(0 -7.8368637659166325 1.0849007515849962)"><path d="M0 0 C-4.61 0.64, -9.21 1.28, -15.67 2.17 M0 0 C-3.7 0.51, -7.4 1.02, -15.67 2.17" stroke="#ffffff" stroke-width="4" fill="none"></path></g></g><mask></mask><g transform="translate(281.92980641719646 378.67300484774387) rotate(0 70.3125 12)"><text x="70.3125" y="0" font-family="Cascadia, Segoe UI Emoji" font-size="20px" fill="#000000" text-anchor="middle" style="white-space: pre;" direction="ltr" dominant-baseline="text-before-edge">K8s Operator</text></g><g mask="url(#mask-I1N71rhyFKVptH2G9a_QJ)" stroke-linecap="round"><g transform="translate(293.9361628937311 362.7146556492007) rotate(0 0 -60.626231228895904)"><path d="M0 0 C0 -31.71, 0 -63.42, 0 -121.25 M0 0 C0 -34.77, 0 -69.53, 0 -121.25" stroke="#000000" stroke-width="4" fill="none"></path></g><g transform="translate(293.9361628937311 362.7146556492007) rotate(0 0 -60.626231228895904)"><path d="M0 -121.25 L6.34 -107.66 L-6.34 -107.66 L0 -121.25" stroke="none" stroke-width="0" fill="#000000" fill-rule="evenodd"></path><path d="M0 -121.25 C1.66 -117.7, 3.32 -114.14, 6.34 -107.66 M0 -121.25 C1.82 -117.35, 3.64 -113.46, 6.34 -107.66 M6.34 -107.66 C3.44 -107.66, 0.55 -107.66, -6.34 -107.66 M6.34 -107.66 C3.54 -107.66, 0.73 -107.66, -6.34 -107.66 M-6.34 -107.66 C-4.97 -110.59, -3.6 -113.52, 0 -121.25 M-6.34 -107.66 C-4.15 -112.36, -1.95 -117.06, 0 -121.25 M0 -121.25 C0 -121.25, 0 -121.25, 0 -121.25 M0 -121.25 C0 -121.25, 0 -121.25, 0 -121.25" stroke="#000000" stroke-width="4" fill="none"></path></g></g><mask id="mask-I1N71rhyFKVptH2G9a_QJ"><rect x="0" y="0" fill="#fff" width="393.9361628937311" height="583.9671181069925"></rect><rect x="264.6392878937311" y="290.0884244203048" fill="#000" width="58.59375" height="24" opacity="1"></rect></mask><g transform="translate(264.6392878937311 290.0884244203048) rotate(0 29.296875 12)"><text x="29.296875" y="0" font-family="Cascadia, Segoe UI Emoji" font-size="20px" fill="#000000" text-anchor="middle" style="white-space: pre;" direction="ltr" dominant-baseline="text-before-edge">Watch</text></g><g mask="url(#mask-zwTyb5CY8Nw3UR74fpCnf)" stroke-linecap="round"><g transform="translate(410.5806601470447 243.0687275338846) rotate(0 0 59.01969688641998)"><path d="M0 0 C0 26.84, 0 53.68, 0 118.04 M0 0 C0 43.11, 0 86.22, 0 118.04" stroke="#000000" stroke-width="4" fill="none"></path></g><g transform="translate(410.5806601470447 243.0687275338846) rotate(0 0 59.01969688641998)"><path d="M0 118.04 L-6.34 104.44 L6.34 104.44 L0 118.04" stroke="none" stroke-width="0" fill="#000000" fill-rule="evenodd"></path><path d="M0 118.04 C-1.44 114.95, -2.88 111.86, -6.34 104.44 M0 118.04 C-2.32 113.07, -4.63 108.11, -6.34 104.44 M-6.34 104.44 C-2.04 104.44, 2.27 104.44, 6.34 104.44 M-6.34 104.44 C-3.01 104.44, 0.31 104.44, 6.34 104.44 M6.34 104.44 C3.93 109.62, 1.51 114.8, 0 118.04 M6.34 104.44 C4.35 108.72, 2.35 112.99, 0 118.04 M0 118.04 C0 118.04, 0 118.04, 0 118.04 M0 118.04 C0 118.04, 0 118.04, 0 118.04" stroke="#000000" stroke-width="4" fill="none"></path></g></g><mask id="mask-zwTyb5CY8Nw3UR74fpCnf"><rect x="0" y="0" fill="#fff" width="510.5806601470447" height="461.10812130672457"></rect><rect x="340.2681601470447" y="290.0884244203048" fill="#000" width="140.625" height="24" opacity="1"></rect></mask><g transform="translate(340.2681601470447 290.0884244203048) rotate(0 70.3125 11.999999999999773)"><text x="70.3125" y="0" font-family="Cascadia, Segoe UI Emoji" font-size="20px" fill="#000000" text-anchor="middle" style="white-space: pre;" direction="ltr" dominant-baseline="text-before-edge">Change Event</text></g><g stroke-linecap="round" transform="translate(558.1392186199271 179.26795319030134) rotate(0 36.97044669174636 35.70408674110422)"><path d="M73.94 35.7 C73.94 37.57, 73.79 39.45, 73.49 41.29 C73.18 43.13, 72.73 44.97, 72.13 46.74 C71.54 48.51, 70.79 50.25, 69.91 51.91 C69.04 53.57, 68.01 55.18, 66.88 56.69 C65.75 58.2, 64.48 59.63, 63.11 60.95 C61.75 62.27, 60.26 63.49, 58.7 64.59 C57.14 65.68, 55.47 66.67, 53.75 67.52 C52.04 68.36, 50.23 69.09, 48.39 69.66 C46.56 70.24, 44.66 70.68, 42.75 70.97 C40.85 71.26, 38.9 71.41, 36.97 71.41 C35.04 71.41, 33.09 71.26, 31.19 70.97 C29.28 70.68, 27.38 70.24, 25.55 69.66 C23.71 69.09, 21.9 68.36, 20.19 67.52 C18.47 66.67, 16.8 65.68, 15.24 64.59 C13.68 63.49, 12.19 62.27, 10.83 60.95 C9.47 59.63, 8.19 58.2, 7.06 56.69 C5.93 55.18, 4.9 53.57, 4.03 51.91 C3.15 50.25, 2.41 48.51, 1.81 46.74 C1.21 44.97, 0.76 43.13, 0.46 41.29 C0.15 39.45, 0 37.57, 0 35.7 C0 33.84, 0.15 31.96, 0.46 30.12 C0.76 28.28, 1.21 26.44, 1.81 24.67 C2.41 22.9, 3.15 21.15, 4.03 19.49 C4.9 17.84, 5.93 16.22, 7.06 14.72 C8.19 13.21, 9.47 11.77, 10.83 10.46 C12.19 9.14, 13.68 7.91, 15.24 6.82 C16.8 5.72, 18.47 4.74, 20.19 3.89 C21.9 3.05, 23.71 2.32, 25.55 1.75 C27.38 1.17, 29.28 0.73, 31.19 0.44 C33.09 0.15, 35.04 0, 36.97 0 C38.9 0, 40.85 0.15, 42.75 0.44 C44.66 0.73, 46.56 1.17, 48.39 1.75 C50.23 2.32, 52.04 3.05, 53.75 3.89 C55.47 4.74, 57.14 5.72, 58.7 6.82 C60.26 7.91, 61.75 9.14, 63.11 10.46 C64.48 11.77, 65.75 13.21, 66.88 14.72 C68.01 16.22, 69.04 17.84, 69.91 19.49 C70.79 21.15, 71.54 22.9, 72.13 24.67 C72.73 26.44, 73.18 28.28, 73.49 30.12 C73.79 31.96, 73.87 34.77, 73.94 35.7 C74.02 36.63, 74.02 34.77, 73.94 35.7" stroke="none" stroke-width="0" fill="#228be6"></path><path d="M73.94 35.7 C73.94 37.57, 73.79 39.45, 73.49 41.29 C73.18 43.13, 72.73 44.97, 72.13 46.74 C71.54 48.51, 70.79 50.25, 69.91 51.91 C69.04 53.57, 68.01 55.18, 66.88 56.69 C65.75 58.2, 64.48 59.63, 63.11 60.95 C61.75 62.27, 60.26 63.49, 58.7 64.59 C57.14 65.68, 55.47 66.67, 53.75 67.52 C52.04 68.36, 50.23 69.09, 48.39 69.66 C46.56 70.24, 44.66 70.68, 42.75 70.97 C40.85 71.26, 38.9 71.41, 36.97 71.41 C35.04 71.41, 33.09 71.26, 31.19 70.97 C29.28 70.68, 27.38 70.24, 25.55 69.66 C23.71 69.09, 21.9 68.36, 20.19 67.52 C18.47 66.67, 16.8 65.68, 15.24 64.59 C13.68 63.49, 12.19 62.27, 10.83 60.95 C9.47 59.63, 8.19 58.2, 7.06 56.69 C5.93 55.18, 4.9 53.57, 4.03 51.91 C3.15 50.25, 2.41 48.51, 1.81 46.74 C1.21 44.97, 0.76 43.13, 0.46 41.29 C0.15 39.45, 0 37.57, 0 35.7 C0 33.84, 0.15 31.96, 0.46 30.12 C0.76 28.28, 1.21 26.44, 1.81 24.67 C2.41 22.9, 3.15 21.15, 4.03 19.49 C4.9 17.84, 5.93 16.22, 7.06 14.72 C8.19 13.21, 9.47 11.77, 10.83 10.46 C12.19 9.14, 13.68 7.91, 15.24 6.82 C16.8 5.72, 18.47 4.74, 20.19 3.89 C21.9 3.05, 23.71 2.32, 25.55 1.75 C27.38 1.17, 29.28 0.73, 31.19 0.44 C33.09 0.15, 35.04 0, 36.97 0 C38.9 0, 40.85 0.15, 42.75 0.44 C44.66 0.73, 46.56 1.17, 48.39 1.75 C50.23 2.32, 52.04 3.05, 53.75 3.89 C55.47 4.74, 57.14 5.72, 58.7 6.82 C60.26 7.91, 61.75 9.14, 63.11 10.46 C64.48 11.77, 65.75 13.21, 66.88 14.72 C68.01 16.22, 69.04 17.84, 69.91 19.49 C70.79 21.15, 71.54 22.9, 72.13 24.67 C72.73 26.44, 73.18 28.28, 73.49 30.12 C73.79 31.96, 73.87 34.77, 73.94 35.7 C74.02 36.63, 74.02 34.77, 73.94 35.7" stroke="#228be6" stroke-width="1" fill="none"></path></g><g stroke-linecap="round"><g transform="translate(594.5485151983819 184.29630070830535) rotate(0 -11.063110863447719 7.257981910755234)"><path d="M0 0 C-7.63 5.01, -15.26 10.01, -22.13 14.52 M0 0 C-7.53 4.94, -15.05 9.87, -22.13 14.52" stroke="#ffffff" stroke-width="4" fill="none"></path></g></g><mask></mask><g stroke-linecap="round"><g transform="translate(595.1647276724113 184.43486512263553) rotate(0 11.632616366764523 7.58081605385928)"><path d="M0 0 C6.73 4.39, 13.46 8.77, 23.27 15.16 M0 0 C6.86 4.47, 13.73 8.94, 23.27 15.16" stroke="#ffffff" stroke-width="4" fill="none"></path></g></g><mask></mask><g stroke-linecap="round"><g transform="translate(571.6381515151922 199.33509098372542) rotate(0 -3.115319239079895 11.142191825224472)"><path d="M0 0 C-2.33 8.32, -4.65 16.64, -6.23 22.28 M0 0 C-2.35 8.4, -4.7 16.8, -6.23 22.28" stroke="#ffffff" stroke-width="4" fill="none"></path></g></g><mask></mask><g stroke-linecap="round"><g transform="translate(618.4299604059408 200.1193027432846) rotate(0 3.1369028808479698 9.672069517050659)"><path d="M0 0 C2.31 7.13, 4.63 14.26, 6.27 19.34 M0 0 C1.58 4.86, 3.15 9.73, 6.27 19.34" stroke="#ffffff" stroke-width="4" fill="none"></path></g></g><mask></mask><g stroke-linecap="round"><g transform="translate(565.2324808729952 222.63046750066678) rotate(0 8.6923734806237 9.526301482356757)"><path d="M0 0 C3.54 3.88, 7.09 7.77, 17.38 19.05 M0 0 C5.67 6.21, 11.34 12.42, 17.38 19.05" stroke="#ffffff" stroke-width="4" fill="none"></path></g></g><mask></mask><g stroke-linecap="round"><g transform="translate(583.8594290515468 242.42407305944425) rotate(0 12.057168665932409 0.021590622094436185)"><path d="M0 0 C8.41 0.02, 16.82 0.03, 24.11 0.04 M0 0 C5.2 0.01, 10.39 0.02, 24.11 0.04" stroke="#ffffff" stroke-width="4" fill="none"></path></g></g><mask></mask><g stroke-linecap="round"><g transform="translate(624.9867630363594 220.7272830558054) rotate(0 -7.951277775875724 10.325581931826491)"><path d="M0 0 C-4.75 6.17, -9.5 12.33, -15.9 20.65 M0 0 C-4.89 6.35, -9.78 12.69, -15.9 20.65" stroke="#ffffff" stroke-width="4" fill="none"></path></g></g><mask></mask><g stroke-linecap="round" transform="translate(581.9308136835004 204.602172752996) rotate(0 13.565460543655945 12.26297301499676)"><path d="M27.13 12.26 C27.13 12.97, 27.06 13.69, 26.92 14.39 C26.79 15.09, 26.58 15.79, 26.31 16.46 C26.04 17.12, 25.71 17.78, 25.31 18.39 C24.92 19.01, 24.46 19.6, 23.96 20.15 C23.45 20.69, 22.89 21.2, 22.29 21.66 C21.68 22.11, 21.03 22.53, 20.35 22.88 C19.67 23.24, 18.94 23.54, 18.21 23.79 C17.47 24.03, 16.69 24.22, 15.92 24.34 C15.15 24.46, 14.35 24.53, 13.57 24.53 C12.78 24.53, 11.98 24.46, 11.21 24.34 C10.44 24.22, 9.66 24.03, 8.93 23.79 C8.19 23.54, 7.46 23.24, 6.78 22.88 C6.1 22.53, 5.45 22.11, 4.85 21.66 C4.24 21.2, 3.68 20.69, 3.17 20.15 C2.67 19.6, 2.21 19.01, 1.82 18.39 C1.42 17.78, 1.09 17.12, 0.82 16.46 C0.55 15.79, 0.34 15.09, 0.21 14.39 C0.07 13.69, 0 12.97, 0 12.26 C0 11.55, 0.07 10.83, 0.21 10.13 C0.34 9.43, 0.55 8.74, 0.82 8.07 C1.09 7.4, 1.42 6.75, 1.82 6.13 C2.21 5.52, 2.67 4.92, 3.17 4.38 C3.68 3.84, 4.24 3.33, 4.85 2.87 C5.45 2.41, 6.1 2, 6.78 1.64 C7.46 1.29, 8.19 0.98, 8.93 0.74 C9.66 0.5, 10.44 0.31, 11.21 0.19 C11.98 0.06, 12.78 0, 13.57 0 C14.35 0, 15.15 0.06, 15.92 0.19 C16.69 0.31, 17.47 0.5, 18.21 0.74 C18.94 0.98, 19.67 1.29, 20.35 1.64 C21.03 2, 21.68 2.41, 22.29 2.87 C22.89 3.33, 23.45 3.84, 23.96 4.38 C24.46 4.92, 24.92 5.52, 25.31 6.13 C25.71 6.75, 26.04 7.4, 26.31 8.07 C26.58 8.74, 26.79 9.43, 26.92 10.13 C27.06 10.83, 27.1 11.91, 27.13 12.26 C27.17 12.62, 27.17 11.91, 27.13 12.26" stroke="#ffffff" stroke-width="4" fill="none"></path></g><g stroke-linecap="round" transform="translate(590.7096811716431 212.7312338061056) rotate(0 4.831332414828466 4.348195561049579)"><path d="M9.66 4.35 C9.66 4.6, 9.64 4.86, 9.59 5.1 C9.54 5.35, 9.47 5.6, 9.37 5.84 C9.28 6.07, 9.16 6.3, 9.02 6.52 C8.88 6.74, 8.71 6.95, 8.53 7.14 C8.35 7.34, 8.15 7.52, 7.94 7.68 C7.72 7.84, 7.49 7.99, 7.25 8.11 C7 8.24, 6.75 8.35, 6.48 8.43 C6.22 8.52, 5.95 8.59, 5.67 8.63 C5.39 8.67, 5.11 8.7, 4.83 8.7 C4.55 8.7, 4.27 8.67, 3.99 8.63 C3.72 8.59, 3.44 8.52, 3.18 8.43 C2.92 8.35, 2.66 8.24, 2.42 8.11 C2.17 7.99, 1.94 7.84, 1.73 7.68 C1.51 7.52, 1.31 7.34, 1.13 7.14 C0.95 6.95, 0.79 6.74, 0.65 6.52 C0.51 6.3, 0.39 6.07, 0.29 5.84 C0.2 5.6, 0.12 5.35, 0.07 5.1 C0.02 4.86, 0 4.6, 0 4.35 C0 4.1, 0.02 3.84, 0.07 3.59 C0.12 3.35, 0.2 3.1, 0.29 2.86 C0.39 2.62, 0.51 2.39, 0.65 2.17 C0.79 1.96, 0.95 1.75, 1.13 1.55 C1.31 1.36, 1.51 1.18, 1.73 1.02 C1.94 0.86, 2.17 0.71, 2.42 0.58 C2.66 0.46, 2.92 0.35, 3.18 0.26 C3.44 0.18, 3.72 0.11, 3.99 0.07 C4.27 0.02, 4.55 0, 4.83 0 C5.11 0, 5.39 0.02, 5.67 0.07 C5.95 0.11, 6.22 0.18, 6.48 0.26 C6.75 0.35, 7 0.46, 7.25 0.58 C7.49 0.71, 7.72 0.86, 7.94 1.02 C8.15 1.18, 8.35 1.36, 8.53 1.55 C8.71 1.75, 8.88 1.96, 9.02 2.17 C9.16 2.39, 9.28 2.62, 9.37 2.86 C9.47 3.1, 9.54 3.35, 9.59 3.59 C9.64 3.84, 9.65 4.22, 9.66 4.35 C9.67 4.47, 9.67 4.22, 9.66 4.35" stroke="#ffffff" stroke-width="4" fill="none"></path></g><g stroke-linecap="round"><g transform="translate(591.2894443640932 214.47050790218782) rotate(0 -6.017179999329073 -5.322803064501159)"><path d="M0 0 C-3.41 -3.02, -6.82 -6.03, -12.03 -10.65 M0 0 C-4.17 -3.69, -8.35 -7.38, -12.03 -10.65" stroke="#ffffff" stroke-width="4" fill="none"></path></g></g><mask></mask><g stroke-linecap="round"><g transform="translate(616.2145083394782 219.91069682080206) rotate(0 -7.230284913153241 -1.0510011815381404)"><path d="M0 0 C-3.87 -0.56, -7.74 -1.12, -14.46 -2.1 M0 0 C-5.51 -0.8, -11.02 -1.6, -14.46 -2.1" stroke="#ffffff" stroke-width="4" fill="none"></path></g></g><mask></mask><g stroke-linecap="round"><g transform="translate(604.4599027853021 234.58921486057625) rotate(0 -3.361149317413606 -6.357893688892318)"><path d="M0 0 C-1.8 -3.41, -3.6 -6.82, -6.72 -12.72 M0 0 C-2.33 -4.41, -4.67 -8.83, -6.72 -12.72" stroke="#ffffff" stroke-width="4" fill="none"></path></g></g><mask></mask><g stroke-linecap="round"><g transform="translate(591.9032976627129 220.5191637007265) rotate(0 -3.37509264541859 7.105488692754079)"><path d="M0 0 C-2.06 4.33, -4.12 8.66, -6.75 14.21 M0 0 C-2.35 4.95, -4.7 9.9, -6.75 14.21" stroke="#ffffff" stroke-width="4" fill="none"></path></g></g><mask></mask><g stroke-linecap="round"><g transform="translate(595.145398147986 197.11382270722424) rotate(0 0.3040958175141668 7.843262517742687)"><path d="M0 0 C0.13 3.36, 0.26 6.72, 0.61 15.69 M0 0 C0.13 3.47, 0.27 6.94, 0.61 15.69" stroke="#ffffff" stroke-width="4" fill="none"></path></g></g><mask></mask><g stroke-linecap="round"><g transform="translate(611.6455164087458 204.23319762545543) rotate(0 -6.1434387607000644 4.912642668328772)"><path d="M0 0 C-4.08 3.27, -8.17 6.53, -12.29 9.83 M0 0 C-3.67 2.93, -7.34 5.87, -12.29 9.83" stroke="#ffffff" stroke-width="4" fill="none"></path></g></g><mask></mask><g stroke-linecap="round"><g transform="translate(590.1370772759126 218.583579007166) rotate(0 -7.8368637659166325 1.08490075158511)"><path d="M0 0 C-4.41 0.61, -8.81 1.22, -15.67 2.17 M0 0 C-4.36 0.6, -8.73 1.21, -15.67 2.17" stroke="#ffffff" stroke-width="4" fill="none"></path></g></g><mask></mask><g transform="translate(556.0765995157751 151.820502690769) rotate(0 41.015625 12)"><text x="41.015625" y="0" font-family="Cascadia, Segoe UI Emoji" font-size="20px" fill="#000000" text-anchor="middle" style="white-space: pre;" direction="ltr" dominant-baseline="text-before-edge">K8s API</text></g><g stroke-linecap="round"><g transform="translate(397.3888913575081 447.7452443611246) rotate(0 100.37101164330488 -88.50690708396519)"><path d="M0 0 C72.21 0, 144.41 0, 200.74 0 M0 0 C78.33 0, 156.66 0, 200.74 0 M200.74 0 C200.74 -59.83, 200.74 -119.67, 200.74 -177.01 M200.74 0 C200.74 -44.95, 200.74 -89.89, 200.74 -177.01" stroke="#000000" stroke-width="4" fill="none"></path></g><g transform="translate(397.3888913575081 447.7452443611246) rotate(0 100.37101164330488 -88.50690708396519)"><path d="M200.74 -177.01 L207.08 -163.42 L194.4 -163.42 L200.74 -177.01" stroke="none" stroke-width="0" fill="#000000" fill-rule="evenodd"></path><path d="M200.74 -177.01 C203.02 -172.12, 205.3 -167.23, 207.08 -163.42 M200.74 -177.01 C203.22 -171.71, 205.69 -166.4, 207.08 -163.42 M207.08 -163.42 C202.8 -163.42, 198.51 -163.42, 194.4 -163.42 M207.08 -163.42 C203.86 -163.42, 200.64 -163.42, 194.4 -163.42 M194.4 -163.42 C196.68 -168.3, 198.96 -173.18, 200.74 -177.01 M194.4 -163.42 C196.14 -167.15, 197.88 -170.88, 200.74 -177.01 M200.74 -177.01 C200.74 -177.01, 200.74 -177.01, 200.74 -177.01 M200.74 -177.01 C200.74 -177.01, 200.74 -177.01, 200.74 -177.01" stroke="#000000" stroke-width="4" fill="none"></path></g></g><mask></mask></svg>