<svg version="1.1" xmlns="http://www.w3.org/2000/svg" viewBox="0 0 517.4400975928388 170.67121239253038" width="517.4400975928388" height="170.67121239253038">
  <!-- svg-source:excalidraw -->
  
  <defs>
    <style class="style-fonts">
      @font-face {
        font-family: "Virgil";
        src: url("https://excalidraw.com/Virgil.woff2");
      }
      @font-face {
        font-family: "Cascadia";
        src: url("https://excalidraw.com/Cascadia.woff2");
      }
    </style>
  </defs>
  <g stroke-linecap="round"><g transform="translate(15.181767971509657 17.48854496488798) rotate(0 38.43662623737035 42.81304055125577)" fill-rule="evenodd"><path d="M0.68 1.5 L-1.19 84.8 L1.66 86.97 L19.27 88.84 L41.01 93.32 L61.47 90.1 L75.77 85.09 L77.71 -1.29 L68.29 -6.74 L36.22 -6.62 L10.78 -6.73 L5.25 -2.25 L-1.99 -0.22" stroke="none" stroke-width="0" fill="#ced4da" fill-rule="evenodd"></path><path d="M0.17 -0.04 C0.09 12.67, 0.3 62.42, 0.28 76.37 C0.27 90.31, -0.6 81.73, 0.08 83.62 C0.76 85.51, 1.52 86.66, 4.35 87.7 C7.17 88.75, 10.98 89.4, 17.02 89.91 C23.07 90.42, 33.03 90.9, 40.61 90.77 C48.18 90.63, 56.75 89.79, 62.5 89.1 C68.25 88.41, 72.62 87.49, 75.09 86.66 C77.55 85.82, 76.94 85.77, 77.3 84.12 C77.66 82.47, 77.41 89.82, 77.26 76.75 C77.11 63.68, 76.71 18.66, 76.4 5.68 C76.08 -7.31, 76.32 0.58, 75.36 -1.14 C74.4 -2.86, 72.95 -3.82, 70.64 -4.65 C68.33 -5.49, 67.02 -5.75, 61.5 -6.14 C55.98 -6.52, 44.82 -6.81, 37.53 -6.96 C30.23 -7.11, 23.34 -7.74, 17.72 -7.02 C12.09 -6.31, 6.92 -3.74, 3.77 -2.65 C0.63 -1.55, -0.62 -0.77, -1.15 -0.48 C-1.68 -0.19, 0.52 -1.07, 0.58 -0.91 M-1.2 -1.11 C-1.51 11.29, -0.74 60.53, -0.65 74.85 C-0.56 89.18, -1.56 82.52, -0.65 84.86 C0.26 87.21, 1.55 88.09, 4.79 88.93 C8.04 89.78, 12.66 89.27, 18.83 89.94 C24.99 90.61, 34.47 92.8, 41.78 92.97 C49.09 93.14, 57.34 92.01, 62.71 90.94 C68.08 89.86, 71.83 87.79, 74.03 86.51 C76.22 85.22, 75.19 84.9, 75.88 83.24 C76.57 81.58, 78.04 89.37, 78.14 76.56 C78.24 63.74, 76.66 19.42, 76.47 6.33 C76.29 -6.77, 78.04 0.02, 77.03 -2 C76.02 -4.03, 73.09 -5.1, 70.42 -5.82 C67.75 -6.55, 66.43 -6.14, 61.02 -6.33 C55.61 -6.53, 45.06 -7.09, 37.96 -7.01 C30.87 -6.93, 24.32 -6.76, 18.46 -5.86 C12.59 -4.96, 5.74 -2.51, 2.77 -1.59 C-0.2 -0.67, 1.19 -0.42, 0.64 -0.34 C0.09 -0.26, -0.28 -1.01, -0.51 -1.13" stroke="#364fc7" stroke-width="1" fill="none"></path></g></g><mask></mask><g stroke-linecap="round"><g transform="translate(15.705697409784648 74.61482862261778) rotate(0 38.00673233555599 3.896071184428706)"><path d="M-0.04 0.03 C0.48 0.58, 1.41 2.38, 3.2 3.48 C4.98 4.59, 7.41 6.02, 10.66 6.65 C13.91 7.29, 17.81 7.1, 22.71 7.28 C27.61 7.46, 33.63 7.89, 40.06 7.72 C46.49 7.54, 55.69 7.03, 61.28 6.24 C66.87 5.46, 70.91 4.01, 73.62 2.99 C76.33 1.96, 76.79 0.62, 77.54 0.09 M-1.53 -1 C-1.07 -0.26, 0.97 4.14, 2.86 5.06 C4.75 5.97, 6.45 4.02, 9.82 4.51 C13.19 5, 17.74 7.44, 23.08 8 C28.43 8.56, 35.36 7.8, 41.89 7.87 C48.42 7.94, 56.96 9.48, 62.27 8.43 C67.59 7.39, 71.38 3.01, 73.79 1.61 C76.19 0.2, 76.17 0.51, 76.71 0" stroke="#364fc7" stroke-width="1" fill="none"></path></g></g><mask></mask><g stroke-linecap="round"><g transform="translate(14.673840087280837 45.65077328739494) rotate(0 38.119117164322795 4.548582160514002)"><path d="M0.03 1.16 C0.35 1.72, 0.24 2.38, 2.1 3.27 C3.96 4.16, 7.91 5.84, 11.18 6.52 C14.45 7.19, 16.88 7.18, 21.74 7.33 C26.59 7.47, 33.71 7.57, 40.3 7.37 C46.88 7.18, 55.56 6.81, 61.26 6.15 C66.95 5.49, 71.74 4.35, 74.47 3.42 C77.21 2.48, 77.17 1.12, 77.65 0.57 M-1.42 0.73 C-1.26 1.48, -0.81 3.53, 1.19 4.73 C3.19 5.94, 7.21 7.41, 10.61 7.96 C14.01 8.52, 16.33 8.17, 21.6 8.07 C26.87 7.97, 35.47 7.3, 42.25 7.34 C49.02 7.38, 56.76 9.14, 62.24 8.3 C67.71 7.45, 72.64 3.52, 75.08 2.26 C77.52 1, 76.76 1.29, 76.88 0.74" stroke="#364fc7" stroke-width="1" fill="none"></path></g></g><mask></mask><g stroke-linecap="round" transform="translate(13.615891105198784 10.35627633920626) rotate(0 38.29876800932748 7.745637696423955)"><path d="M22.75 0.47 C29.71 -0.46, 42.54 -1.28, 50.46 -0.61 C58.38 0.06, 66.05 2.89, 70.28 4.5 C74.51 6.1, 77 7.39, 75.86 9.01 C74.72 10.63, 69.37 13.24, 63.45 14.22 C57.54 15.21, 48.53 15.01, 40.38 14.92 C32.23 14.84, 21.22 14.58, 14.56 13.72 C7.9 12.85, 2.24 11.43, 0.44 9.73 C-1.37 8.04, -1.61 5.17, 3.73 3.56 C9.06 1.94, 26.19 0.51, 32.47 0.04 C38.75 -0.43, 41.22 0.65, 41.41 0.74 M21.43 1.86 C28.16 1.24, 38.08 -0.45, 45.75 -0.03 C53.42 0.38, 62.48 3.17, 67.44 4.35 C72.41 5.54, 75.65 5.54, 75.53 7.08 C75.41 8.61, 72.15 12.15, 66.72 13.55 C61.29 14.95, 50.96 15.53, 42.95 15.48 C34.94 15.43, 25.4 14.28, 18.66 13.26 C11.92 12.24, 4.91 10.67, 2.52 9.34 C0.13 8.01, 1.17 6.9, 4.32 5.29 C7.47 3.67, 18.84 0.54, 21.42 -0.33 C24 -1.2, 19.72 -0.07, 19.8 0.06" stroke="none" stroke-width="0" fill="#fff"></path><path d="M35.41 -0.56 C43.05 -0.89, 54.17 -0.1, 60.75 0.86 C67.33 1.82, 72.91 3.41, 74.87 5.19 C76.83 6.97, 75.99 9.77, 72.5 11.52 C69 13.26, 61.41 14.98, 53.92 15.66 C46.43 16.34, 35.54 16.27, 27.54 15.58 C19.54 14.88, 10.64 13.05, 5.94 11.48 C1.24 9.91, -1.55 7.81, -0.66 6.16 C0.23 4.51, 3.82 2.58, 11.26 1.57 C18.7 0.56, 37.38 0.1, 43.99 0.07 C50.61 0.04, 51.18 1.29, 50.96 1.4 M45.26 0.87 C52.69 1.14, 61.73 0.63, 67.06 1.89 C72.38 3.15, 77.02 6.73, 77.21 8.43 C77.4 10.14, 73.56 10.89, 68.2 12.12 C62.84 13.35, 53.22 15.25, 45.05 15.81 C36.87 16.37, 26.55 16.43, 19.16 15.5 C11.77 14.56, 3.25 12.18, 0.71 10.19 C-1.83 8.2, 0.72 5.2, 3.93 3.55 C7.14 1.89, 12.98 0.72, 19.98 0.25 C26.98 -0.22, 41.68 0.6, 45.94 0.71 C50.2 0.82, 45.89 1.03, 45.54 0.92" stroke="#364fc7" stroke-width="1" fill="none"></path></g><g stroke-linecap="round" transform="translate(50.10787821042129 34.832944019109846) rotate(0 5.613051577080878 6.091879242227833)"><path d="M8.13 1.25 C8.93 1.86, 9.22 2.37, 9.84 3.43 C10.46 4.48, 12.02 6.37, 11.85 7.57 C11.68 8.77, 9.87 9.77, 8.82 10.62 C7.78 11.47, 6.91 12.78, 5.59 12.65 C4.26 12.52, 1.84 10.97, 0.88 9.84 C-0.07 8.71, -0.26 7.22, -0.15 5.86 C-0.05 4.5, 0.85 2.67, 1.52 1.69 C2.19 0.71, 2.68 0.16, 3.85 -0.04 C5.02 -0.24, 7.6 0.24, 8.51 0.51 C9.43 0.78, 9.43 1.59, 9.34 1.58 M4.52 -0.66 C5.74 -1.53, 5.92 -1.53, 7.11 -1.11 C8.3 -0.7, 11.15 0.44, 11.65 1.84 C12.15 3.25, 10.4 5.85, 10.11 7.3 C9.82 8.75, 10.61 9.54, 9.9 10.55 C9.19 11.55, 7.31 13.16, 5.86 13.35 C4.41 13.55, 2.24 12.51, 1.17 11.72 C0.11 10.94, -0.56 9.98, -0.55 8.66 C-0.55 7.34, 0.73 5.4, 1.21 3.79 C1.69 2.19, 2.09 -0.31, 2.33 -0.97 C2.56 -1.63, 2.57 -0.3, 2.62 -0.15" stroke="none" stroke-width="0" fill="#868e96"></path><path d="M5.92 -0.3 C6.92 -0.2, 8.43 0.37, 9.18 1.41 C9.94 2.45, 10.28 4.45, 10.47 5.93 C10.65 7.42, 10.78 9.28, 10.28 10.33 C9.78 11.38, 8.65 12.13, 7.49 12.25 C6.32 12.37, 4.57 11.84, 3.3 11.03 C2.03 10.21, 0.46 8.64, -0.16 7.36 C-0.77 6.09, -0.78 4.42, -0.39 3.39 C0 2.37, 0.91 1.72, 2.17 1.22 C3.44 0.73, 6.12 0.6, 7.2 0.42 C8.28 0.24, 8.7 0.03, 8.65 0.17 M7.67 -0.96 C8.85 -0.55, 8.45 1.68, 9.12 3.11 C9.8 4.54, 11.75 6.26, 11.72 7.61 C11.69 8.97, 9.78 10.38, 8.93 11.26 C8.08 12.14, 7.52 13.14, 6.64 12.91 C5.75 12.67, 4.7 10.48, 3.63 9.85 C2.55 9.21, 0.95 10.14, 0.19 9.12 C-0.57 8.09, -1.28 5.1, -0.91 3.71 C-0.54 2.32, 1.02 1.37, 2.43 0.76 C3.83 0.15, 6.65 0.33, 7.51 0.06 C8.36 -0.21, 7.79 -1.16, 7.54 -0.88" stroke="#364fc7" stroke-width="1" fill="none"></path></g><g stroke-linecap="round" transform="translate(50.45901999435489 61.04955830617496) rotate(0 5.613051577080878 6.091879242227776)"><path d="M7.5 -0.8 C8.73 -0.41, 9.22 2.14, 9.77 3.4 C10.32 4.65, 10.94 5.46, 10.82 6.74 C10.69 8.02, 9.7 10.26, 9.02 11.07 C8.34 11.88, 7.88 11.6, 6.73 11.59 C5.59 11.58, 3.31 11.57, 2.15 10.99 C0.99 10.41, 0.16 9.44, -0.23 8.11 C-0.61 6.79, -0.71 4.29, -0.17 3.03 C0.36 1.78, 1.7 0.91, 2.97 0.58 C4.24 0.25, 6.43 1.01, 7.43 1.04 C8.42 1.07, 9.06 0.9, 8.93 0.77 M2.08 0.37 C2.75 -0.19, 4.42 1.28, 5.6 1.47 C6.78 1.65, 8.16 0.54, 9.16 1.48 C10.16 2.42, 11.51 5.6, 11.58 7.09 C11.65 8.57, 10.26 9.72, 9.56 10.4 C8.85 11.08, 8.38 11.16, 7.33 11.17 C6.29 11.17, 4.24 10.92, 3.27 10.44 C2.3 9.96, 1.87 9.63, 1.5 8.29 C1.13 6.95, 1.01 3.84, 1.06 2.4 C1.1 0.96, 1.53 0.13, 1.77 -0.33 C2.01 -0.78, 2.43 -0.77, 2.52 -0.35" stroke="none" stroke-width="0" fill="#868e96"></path><path d="M5.8 -0.63 C6.93 -0.62, 8.06 -0.01, 8.95 1.08 C9.84 2.18, 10.89 4.39, 11.16 5.95 C11.43 7.51, 11.23 9.38, 10.57 10.46 C9.9 11.53, 8.47 12.31, 7.17 12.41 C5.87 12.51, 4.05 11.8, 2.78 11.05 C1.52 10.3, 0.13 9.09, -0.42 7.89 C-0.96 6.7, -1.04 5.03, -0.5 3.89 C0.03 2.75, 1.52 1.53, 2.81 1.05 C4.1 0.57, 6.48 1.11, 7.25 1.02 C8.02 0.94, 7.42 0.48, 7.44 0.53 M1.97 -0.38 C3.16 -1.03, 6 0.33, 7.54 0.68 C9.09 1.03, 10.48 0.7, 11.25 1.73 C12.02 2.76, 12.31 5.26, 12.17 6.87 C12.04 8.49, 11.65 10.55, 10.45 11.42 C9.24 12.29, 6.04 12.38, 4.94 12.11 C3.83 11.84, 4.6 10.62, 3.83 9.79 C3.06 8.95, 0.84 8.05, 0.3 7.12 C-0.24 6.19, 0.15 5.2, 0.6 4.22 C1.05 3.25, 2.76 1.98, 3 1.26 C3.23 0.54, 1.76 -0.19, 1.99 -0.08" stroke="#364fc7" stroke-width="1" fill="none"></path></g><g stroke-linecap="round" transform="translate(51.10787821042129 89.81828487748112) rotate(357.5021844865888 5.613051577080878 6.091879242227776)"><path d="M1.96 0.36 C3.1 -0.46, 6.25 -0.49, 7.63 -0.27 C9.01 -0.06, 9.51 0.49, 10.24 1.67 C10.96 2.84, 12.14 5.43, 11.97 6.78 C11.81 8.14, 10.2 8.98, 9.25 9.8 C8.31 10.61, 7.32 11.53, 6.28 11.67 C5.24 11.81, 4.11 11.27, 3.01 10.63 C1.91 9.99, 0.14 9.04, -0.3 7.85 C-0.75 6.65, -0.51 4.68, 0.35 3.46 C1.22 2.24, 4.02 1.24, 4.88 0.53 C5.75 -0.18, 5.73 -0.71, 5.53 -0.82 M6.44 -1.3 C7.62 -1.13, 10.62 -0.08, 11.24 1.23 C11.86 2.54, 10.3 5.09, 10.16 6.55 C10.02 8.01, 10.99 8.89, 10.39 10.01 C9.79 11.13, 7.99 12.92, 6.55 13.28 C5.11 13.63, 2.9 12.8, 1.75 12.15 C0.6 11.5, -0.23 10.67, -0.37 9.39 C-0.5 8.11, 0.58 6.15, 0.92 4.48 C1.27 2.81, 0.9 0.2, 1.7 -0.64 C2.51 -1.49, 5.1 -0.57, 5.74 -0.6 C6.39 -0.64, 5.28 -1.07, 5.59 -0.86" stroke="none" stroke-width="0" fill="#868e96"></path><path d="M3.26 -0.4 C4.3 -0.8, 5.73 -0.27, 7 0.41 C8.28 1.09, 10.08 2.49, 10.9 3.68 C11.71 4.88, 12.14 6.45, 11.9 7.59 C11.65 8.73, 10.61 9.92, 9.44 10.54 C8.26 11.15, 6.22 11.38, 4.84 11.27 C3.45 11.16, 2.01 10.54, 1.12 9.87 C0.23 9.19, -0.46 8.39, -0.5 7.24 C-0.54 6.09, -0.16 4.26, 0.87 2.99 C1.91 1.71, 4.91 -0.01, 5.73 -0.42 C6.54 -0.83, 5.83 0.5, 5.78 0.53 M3.59 0.72 C4.66 0.8, 7.8 1.22, 8.9 1.92 C9.99 2.62, 9.74 3.77, 10.14 4.93 C10.54 6.09, 11.4 8.05, 11.31 8.9 C11.22 9.75, 10.7 9.28, 9.58 10.04 C8.47 10.79, 6.24 13.4, 4.64 13.41 C3.03 13.43, 0.84 11.3, -0.05 10.11 C-0.94 8.91, -1.02 7.6, -0.7 6.26 C-0.39 4.93, 0.86 3.32, 1.85 2.1 C2.84 0.87, 4.9 -0.92, 5.22 -1.07 C5.54 -1.22, 3.76 1.1, 3.79 1.2" stroke="#364fc7" stroke-width="1" fill="none"></path></g><g transform="translate(12.503932447562875 111.40842647632394) rotate(0 40.82733917236328 10.199999999999989)"><text x="40.82733917236328" y="0" font-family="Virgil, Segoe UI Emoji" font-size="17.4778970902999px" fill="#364fc7" text-anchor="middle" style="white-space: pre;" direction="ltr" dominant-baseline="text-before-edge">DB - v1.0</text></g><g stroke-linecap="round"><g transform="translate(423.55936556434847 17.61684861458457) rotate(0 38.80178380824927 42.38227570058302)" fill-rule="evenodd"><path d="M1.82 -1.91 L-1 81.84 L-0.15 85.79 L17.76 88.64 L39.7 90.09 L64.7 88.98 L75.8 86.07 L78.84 -0.29 L67.58 -5.42 L36.85 -8.45 L8.03 -3.75 L5.1 -2.5 L0.38 -1.77" stroke="none" stroke-width="0" fill="#ced4da" fill-rule="evenodd"></path><path d="M-1.18 -0.15 C-1.09 12.07, -0.73 60.21, -0.33 74.26 C0.06 88.32, 0.37 81.88, 1.18 84.17 C2 86.47, 1.69 86.85, 4.55 88.04 C7.42 89.23, 12.19 90.65, 18.36 91.31 C24.53 91.96, 34.25 92.18, 41.55 91.96 C48.85 91.74, 56.52 91.04, 62.16 89.99 C67.81 88.95, 73.1 86.75, 75.4 85.68 C77.69 84.62, 75.53 85.03, 75.91 83.6 C76.3 82.18, 77.53 90.18, 77.7 77.13 C77.87 64.07, 76.96 18.24, 76.92 5.29 C76.87 -7.66, 78.42 0.94, 77.43 -0.57 C76.44 -2.08, 73.67 -2.92, 70.98 -3.76 C68.28 -4.6, 66.84 -5.1, 61.27 -5.61 C55.7 -6.12, 44.62 -6.51, 37.54 -6.82 C30.47 -7.13, 24.61 -7.93, 18.81 -7.48 C13 -7.03, 6 -5.29, 2.71 -4.11 C-0.58 -2.92, -0.35 -1.18, -0.93 -0.36 C-1.5 0.45, -1.07 0.92, -0.73 0.78 M0.4 -1.27 C0.96 11.59, 1.96 61.42, 2.07 75.31 C2.17 89.2, 0.53 80.3, 1.03 82.04 C1.54 83.79, 2.41 84.11, 5.11 85.79 C7.8 87.46, 11.47 91.18, 17.21 92.07 C22.95 92.96, 32.06 91.7, 39.56 91.13 C47.06 90.56, 56.38 89.66, 62.2 88.64 C68.02 87.62, 71.96 86.05, 74.5 85.02 C77.04 83.99, 76.71 83.78, 77.43 82.46 C78.15 81.14, 78.84 89.92, 78.81 77.13 C78.78 64.34, 77.65 18.78, 77.27 5.74 C76.89 -7.3, 77.59 0.57, 76.53 -1.13 C75.48 -2.83, 73.57 -3.73, 70.93 -4.46 C68.29 -5.19, 66.16 -5.14, 60.66 -5.53 C55.17 -5.92, 45.35 -6.63, 37.99 -6.8 C30.62 -6.97, 21.99 -7.05, 16.46 -6.56 C10.93 -6.06, 7.39 -4.89, 4.81 -3.82 C2.23 -2.76, 1.59 -1.04, 0.98 -0.16 C0.38 0.71, 1.56 1.41, 1.16 1.45" stroke="#2b8a3e" stroke-width="1" fill="none"></path></g></g><mask></mask><g stroke-linecap="round"><g transform="translate(424.08329500262346 74.74313227231437) rotate(0 38.60001815297608 3.6345408203409306)"><path d="M-0.15 -0.59 C-0.13 0.37, -0.8 3.34, 1.1 4.58 C2.99 5.83, 7.55 6.19, 11.21 6.86 C14.87 7.53, 18 8.32, 23.05 8.62 C28.09 8.92, 34.89 9.11, 41.46 8.66 C48.03 8.21, 56.96 6.8, 62.47 5.91 C67.98 5.02, 72.17 4.5, 74.52 3.3 C76.87 2.09, 76.05 -0.79, 76.57 -1.3 M-1.68 1.72 C-1.38 2.48, 1.26 2.56, 3.32 3.08 C5.37 3.59, 7.28 4.27, 10.66 4.82 C14.04 5.38, 18.65 5.63, 23.6 6.38 C28.55 7.12, 34.23 9.05, 40.37 9.31 C46.5 9.57, 54.63 9.13, 60.43 7.92 C66.23 6.72, 72.08 3.75, 75.15 2.08 C78.23 0.41, 78.71 -1.63, 78.88 -2.11" stroke="#2b8a3e" stroke-width="1" fill="none"></path></g></g><mask></mask><g stroke-linecap="round"><g transform="translate(423.05143768011965 45.77907693709153) rotate(0 38.920580356623645 4.114478160217345)"><path d="M-0.59 -0.94 C0.14 -0.27, 1.21 2.52, 3.2 3.82 C5.2 5.12, 8.07 6.04, 11.39 6.85 C14.7 7.67, 18.1 8.44, 23.07 8.72 C28.05 9.01, 34.93 8.84, 41.24 8.56 C47.55 8.28, 55.33 8.07, 60.92 7.05 C66.51 6.03, 72.22 3.61, 74.78 2.44 C77.34 1.28, 75.76 0.39, 76.27 0.06 M1.3 1.19 C2.08 1.49, 1.27 1.31, 2.87 1.92 C4.47 2.52, 7.47 4.04, 10.93 4.81 C14.39 5.59, 18.79 5.82, 23.64 6.54 C28.49 7.27, 33.68 9.25, 40.02 9.16 C46.37 9.07, 55.81 6.79, 61.73 6 C67.65 5.21, 72.77 5.45, 75.55 4.44 C78.34 3.43, 78.27 0.77, 78.43 -0.04" stroke="#2b8a3e" stroke-width="1" fill="none"></path></g></g><mask></mask><g stroke-linecap="round" transform="translate(421.9934886980376 10.484579988902851) rotate(0 38.29876800932749 7.745637696423955)"><path d="M51.79 -0.4 C59.09 -0.14, 67.54 1.42, 71.41 3.12 C75.27 4.82, 76.3 7.99, 74.99 9.8 C73.67 11.6, 69.58 13.09, 63.52 13.95 C57.46 14.8, 47.01 15.07, 38.61 14.92 C30.22 14.78, 19.52 14.21, 13.17 13.07 C6.81 11.93, 1.94 9.66, 0.48 8.07 C-0.99 6.49, 0.3 4.9, 4.4 3.55 C8.49 2.21, 16.95 0.47, 25.04 0.01 C33.13 -0.46, 47.97 0.5, 52.92 0.75 C57.88 1.01, 54.89 1.33, 54.77 1.54 M34.24 0.53 C42.01 0.43, 54.62 1.93, 61.3 2.6 C67.98 3.27, 72.57 3.3, 74.34 4.54 C76.11 5.78, 75.36 8.37, 71.91 10.06 C68.46 11.76, 60.84 13.84, 53.63 14.71 C46.41 15.58, 36.4 15.82, 28.62 15.26 C20.83 14.71, 11.73 12.6, 6.9 11.4 C2.06 10.19, -1.37 9.35, -0.39 8.04 C0.59 6.72, 7.09 4.9, 12.8 3.52 C18.51 2.13, 30.29 0.21, 33.88 -0.26 C37.48 -0.74, 34.32 0.56, 34.36 0.67" stroke="none" stroke-width="0" fill="#fff"></path><path d="M45.31 0.71 C53.06 0.85, 62.9 1.91, 67.95 3.07 C73.01 4.24, 75.64 6.18, 75.63 7.7 C75.63 9.22, 73.15 10.86, 67.94 12.2 C62.72 13.54, 52.36 15.25, 44.34 15.75 C36.32 16.25, 26.81 16.22, 19.82 15.19 C12.83 14.16, 5.19 11.29, 2.4 9.57 C-0.39 7.86, 0.38 6.29, 3.08 4.9 C5.77 3.51, 10.61 1.92, 18.59 1.25 C26.56 0.57, 44.66 0.73, 50.93 0.85 C57.21 0.98, 56.4 2.02, 56.24 1.98 M28.63 -0.68 C36.43 -0.73, 48.87 1.12, 56.06 2.23 C63.26 3.33, 68.87 4.78, 71.81 5.96 C74.74 7.14, 75.91 8.08, 73.68 9.29 C71.46 10.5, 65.04 12.19, 58.45 13.22 C51.87 14.25, 42.37 15.64, 34.18 15.45 C25.98 15.27, 15.15 13.13, 9.29 12.11 C3.42 11.08, -0.56 10.92, -1.01 9.32 C-1.47 7.72, 1.39 3.79, 6.54 2.51 C11.69 1.23, 26.01 1.98, 29.9 1.64 C33.78 1.3, 29.87 0.64, 29.85 0.47" stroke="#2b8a3e" stroke-width="1" fill="none"></path></g><g stroke-linecap="round" transform="translate(458.4854758032601 34.961247668806436) rotate(0 5.613051577080881 6.091879242227833)"><path d="M7.18 0.44 C8.04 0.72, 9.19 1.27, 9.94 2.61 C10.69 3.96, 11.83 7.01, 11.67 8.52 C11.52 10.03, 10.2 11.12, 9 11.66 C7.8 12.21, 5.81 12.03, 4.47 11.8 C3.14 11.57, 1.91 11.28, 1 10.27 C0.1 9.25, -0.92 7.04, -0.96 5.69 C-1 4.34, -0.01 3.13, 0.78 2.16 C1.58 1.2, 2.45 0.04, 3.79 -0.1 C5.14 -0.24, 7.84 0.96, 8.86 1.32 C9.88 1.69, 9.84 2.06, 9.88 2.06 M7.34 1.05 C8.6 1.23, 10.82 0.69, 11.26 1.4 C11.7 2.11, 10.4 3.99, 9.99 5.34 C9.57 6.69, 9.38 8.3, 8.76 9.5 C8.14 10.69, 7.29 12.21, 6.27 12.51 C5.24 12.81, 3.76 12.14, 2.63 11.28 C1.5 10.42, -0.31 8.37, -0.51 7.36 C-0.71 6.35, 0.63 6.54, 1.43 5.22 C2.23 3.9, 3.45 0.43, 4.3 -0.55 C5.15 -1.53, 6.05 -0.59, 6.55 -0.67 C7.05 -0.76, 7.34 -1.43, 7.3 -1.05" stroke="none" stroke-width="0" fill="#868e96"></path><path d="M7.56 0.59 C8.66 0.57, 9.87 0.52, 10.48 1.54 C11.09 2.57, 11.42 5.38, 11.2 6.72 C10.98 8.05, 9.92 8.57, 9.15 9.57 C8.38 10.56, 7.57 12.42, 6.58 12.69 C5.59 12.96, 4.4 11.87, 3.2 11.19 C2 10.51, -0.14 9.93, -0.63 8.59 C-1.12 7.26, -0.4 4.48, 0.26 3.18 C0.92 1.88, 1.94 1.16, 3.34 0.78 C4.75 0.4, 7.53 0.67, 8.67 0.89 C9.82 1.11, 10.41 2.11, 10.21 2.09 M2.68 1.39 C4.14 0.69, 7.35 -1.17, 8.87 -1.15 C10.39 -1.13, 11.5 0.36, 11.78 1.51 C12.06 2.66, 11.14 4.26, 10.57 5.77 C10 7.28, 9.17 9.73, 8.36 10.56 C7.55 11.39, 6.94 10.86, 5.73 10.72 C4.51 10.58, 1.84 10.43, 1.07 9.73 C0.31 9.03, 1.31 7.45, 1.14 6.5 C0.96 5.54, -0.63 4.92, 0.01 4.02 C0.66 3.11, 4.38 1.66, 5 1.04 C5.61 0.43, 3.98 0.42, 3.72 0.34" stroke="#2b8a3e" stroke-width="1" fill="none"></path></g><g stroke-linecap="round" transform="translate(458.8366175871937 61.177861955871094) rotate(0 5.613051577080881 6.091879242227776)"><path d="M6.45 -0.69 C7.39 -0.29, 8.02 1.69, 8.94 2.86 C9.87 4.04, 11.75 5.26, 11.99 6.36 C12.24 7.47, 11.39 8.61, 10.42 9.47 C9.46 10.32, 7.49 11.36, 6.21 11.51 C4.92 11.67, 3.83 10.99, 2.71 10.38 C1.59 9.77, -0.06 9.01, -0.51 7.86 C-0.97 6.72, -0.52 4.68, -0.01 3.53 C0.5 2.38, 1.12 1.31, 2.55 0.94 C3.97 0.58, 7.3 1.07, 8.54 1.34 C9.78 1.62, 10.1 2.53, 9.98 2.59 M7.3 1.24 C8.42 1.05, 8.31 0.17, 8.79 0.78 C9.27 1.39, 10.1 3.39, 10.19 4.89 C10.28 6.39, 9.83 8.57, 9.32 9.77 C8.82 10.97, 8.21 11.94, 7.16 12.09 C6.12 12.25, 4.26 11.16, 3.04 10.71 C1.82 10.25, 0.08 10.25, -0.14 9.38 C-0.35 8.51, 1.49 6.94, 1.74 5.48 C2 4.03, 0.77 1.46, 1.4 0.64 C2.04 -0.19, 4.96 0.69, 5.57 0.55 C6.18 0.41, 4.79 -0.34, 5.06 -0.21" stroke="none" stroke-width="0" fill="#868e96"></path><path d="M7.36 0.5 C8.24 0.62, 8.5 1.56, 9.18 2.48 C9.86 3.39, 11.46 4.62, 11.42 5.99 C11.38 7.36, 9.69 9.54, 8.91 10.69 C8.14 11.83, 7.83 12.94, 6.76 12.87 C5.7 12.81, 3.49 11.19, 2.54 10.31 C1.58 9.42, 1.45 8.65, 1.04 7.57 C0.62 6.49, -0.34 4.92, 0.04 3.83 C0.41 2.75, 1.92 1.44, 3.29 1.06 C4.67 0.68, 7.24 1.58, 8.28 1.55 C9.31 1.53, 9.64 1.1, 9.49 0.91 M4.57 1.85 C5.43 1.71, 5.21 1.61, 5.95 1.69 C6.69 1.78, 8.33 1.62, 8.99 2.35 C9.64 3.08, 9.86 4.7, 9.9 6.09 C9.93 7.47, 10.12 9.84, 9.18 10.68 C8.24 11.53, 5.63 10.97, 4.26 11.16 C2.89 11.36, 1.8 12.63, 0.98 11.87 C0.16 11.1, -0.76 7.8, -0.67 6.58 C-0.57 5.37, 0.75 5.57, 1.56 4.56 C2.38 3.54, 3.91 1.23, 4.23 0.5 C4.54 -0.23, 3.59 0.31, 3.45 0.17" stroke="#2b8a3e" stroke-width="1" fill="none"></path></g><g stroke-linecap="round" transform="translate(459.4854758032601 89.94658852717771) rotate(357.5021844865888 5.613051577080881 6.091879242227776)"><path d="M5.36 -0.96 C6.76 -0.76, 9.26 1.4, 10.28 2.59 C11.29 3.77, 11.56 5.02, 11.45 6.14 C11.34 7.25, 10.45 8.31, 9.62 9.28 C8.78 10.24, 7.67 11.67, 6.44 11.92 C5.21 12.17, 3.26 11.36, 2.23 10.75 C1.19 10.14, 0.64 9.35, 0.23 8.26 C-0.19 7.16, -0.64 5.33, -0.24 4.18 C0.15 3.03, 1.18 1.95, 2.57 1.38 C3.97 0.82, 6.99 0.88, 8.11 0.8 C9.24 0.73, 9.39 0.86, 9.32 0.93 M5.19 -0.74 C5.97 -1.49, 5.86 -1.1, 6.61 -0.53 C7.35 0.03, 8.91 1.24, 9.65 2.64 C10.38 4.04, 11.11 6.48, 11 7.88 C10.9 9.28, 10.09 10.41, 9.01 11.04 C7.93 11.66, 5.56 11.47, 4.52 11.62 C3.48 11.78, 3.29 13, 2.76 11.99 C2.22 10.98, 1.66 7.24, 1.31 5.57 C0.96 3.89, 0.1 3.03, 0.63 1.92 C1.16 0.82, 3.99 -0.94, 4.5 -1.06 C5 -1.17, 3.59 1.11, 3.65 1.24" stroke="none" stroke-width="0" fill="#868e96"></path><path d="M7.34 -0.77 C8.36 -0.57, 9.6 1.66, 10.17 2.75 C10.73 3.85, 10.73 4.45, 10.7 5.81 C10.68 7.17, 10.64 9.83, 10 10.9 C9.36 11.96, 8.28 12.03, 6.88 12.2 C5.48 12.37, 2.74 12.75, 1.59 11.93 C0.44 11.11, 0.13 8.66, -0.02 7.29 C-0.17 5.92, 0.09 4.82, 0.7 3.73 C1.3 2.65, 2.22 1.21, 3.62 0.78 C5.03 0.34, 8.29 1.08, 9.13 1.13 C9.97 1.18, 8.99 1.17, 8.67 1.07 M6.31 -1.43 C7.81 -2.07, 9.31 -1.22, 9.98 -0.48 C10.66 0.25, 10.39 1.52, 10.37 2.99 C10.35 4.45, 10.22 7.12, 9.86 8.29 C9.5 9.47, 9.3 9.59, 8.22 10.03 C7.14 10.47, 4.39 11.1, 3.39 10.94 C2.39 10.77, 2.88 9.74, 2.2 9.04 C1.52 8.33, -0.79 7.77, -0.68 6.7 C-0.56 5.63, 1.94 3.76, 2.88 2.62 C3.82 1.48, 4.68 0.35, 4.96 -0.13 C5.23 -0.6, 4.75 -0.52, 4.53 -0.21" stroke="#2b8a3e" stroke-width="1" fill="none"></path></g><g transform="translate(417.02939533581184 111.53673012602053) rotate(0 44.679473876953125 10.199999999999989)"><text x="44.679473876953125" y="0" font-family="Virgil, Segoe UI Emoji" font-size="17.4778970902999px" fill="#2b8a3e" text-anchor="middle" style="white-space: pre;" direction="ltr" dominant-baseline="text-before-edge">DB - v2.0</text></g><g mask="url(#mask-xX8s_SOlgnQdFLs5Iq8dx)" stroke-linecap="round"><g transform="translate(127.67811756122387 70.9683650630102) rotate(0 126.35443123519553 0)"><path d="M0 0 C61.23 0, 122.47 0, 252.71 0 M0 0 C57.47 0, 114.95 0, 252.71 0" stroke="#000000" stroke-width="4" fill="none"></path></g><g transform="translate(127.67811756122387 70.9683650630102) rotate(0 126.35443123519553 0)"><path d="M252.71 0 L239.11 6.34 L239.11 -6.34 L252.71 0" stroke="none" stroke-width="0" fill="#000000" fill-rule="evenodd"></path><path d="M252.71 0 C249.41 1.54, 246.12 3.07, 239.11 6.34 M252.71 0 C249.62 1.44, 246.53 2.88, 239.11 6.34 M239.11 6.34 C239.11 2.83, 239.11 -0.67, 239.11 -6.34 M239.11 6.34 C239.11 2.08, 239.11 -2.18, 239.11 -6.34 M239.11 -6.34 C243.94 -4.09, 248.77 -1.84, 252.71 0 M239.11 -6.34 C244.16 -3.99, 249.2 -1.64, 252.71 0 M252.71 0 C252.71 0, 252.71 0, 252.71 0 M252.71 0 C252.71 0, 252.71 0, 252.71 0" stroke="#000000" stroke-width="4" fill="none"></path></g></g><mask id="mask-xX8s_SOlgnQdFLs5Iq8dx"><rect x="0" y="0" fill="#fff" width="480.38698003161494" height="170.9683650630102"></rect><rect x="202.4700487964194" y="51.76836506301015" fill="#000" width="103.125" height="38.4" opacity="1"></rect></mask><g transform="translate(202.4700487964194 51.76836506301015) rotate(0 51.5625 19.200000000000045)"><text x="51.5625" y="0" font-family="Cascadia, Segoe UI Emoji" font-size="16px" fill="#000000" text-anchor="middle" style="white-space: pre;" direction="ltr" dominant-baseline="text-before-edge">Logical</text><text x="51.5625" y="19.2" font-family="Cascadia, Segoe UI Emoji" font-size="16px" fill="#000000" text-anchor="middle" style="white-space: pre;" direction="ltr" dominant-baseline="text-before-edge">Replication</text></g><g transform="translate(10 141.47121239253033) rotate(0 42.1875 9.600000000000023)"><text x="0" y="0" font-family="Cascadia, Segoe UI Emoji" font-size="16px" fill="#000000" text-anchor="start" style="white-space: pre;" direction="ltr" dominant-baseline="text-before-edge">Publisher</text></g><g transform="translate(413.6900975928388 141.47121239253033) rotate(0 46.875 9.600000000000023)"><text x="0" y="0" font-family="Cascadia, Segoe UI Emoji" font-size="16px" fill="#000000" text-anchor="start" style="white-space: pre;" direction="ltr" dominant-baseline="text-before-edge">Subscriber</text></g></svg>