<svg version="1.1" xmlns="http://www.w3.org/2000/svg" viewBox="0 0 685.037833563021 521.2484026738691" width="685.037833563021" height="521.2484026738691">
  <!-- svg-source:excalidraw -->
  
  <defs>
    <style class="style-fonts">
      @font-face {
        font-family: "Virgil";
        src: url("https://excalidraw.com/Virgil.woff2");
      }
      @font-face {
        font-family: "Cascadia";
        src: url("https://excalidraw.com/Cascadia.woff2");
      }
    </style>
  </defs>
  <g stroke-linecap="round"><g transform="translate(487.00944482471357 91.11022757685623) rotate(0 38.73612830855308 41.344812892115556)" fill-rule="evenodd"><path d="M-0.35 -0.83 L-2.15 81.76 L1.87 85.87 L19.22 88.94 L41.46 90.09 L61.45 91.34 L76.25 83.52 L76.73 -2.88 L67.61 -5.94 L35.45 -7.24 L9.03 -4.2 L2.27 -4.54 L-1.18 -0.19" stroke="none" stroke-width="0" fill="#ced4da" fill-rule="evenodd"></path><path d="M-1.15 0.05 C-1.16 12.67, -0.25 61.71, 0.02 75.62 C0.3 89.54, -0.31 81.44, 0.51 83.54 C1.32 85.64, 1.9 87.09, 4.91 88.24 C7.93 89.38, 12.42 89.91, 18.59 90.42 C24.75 90.94, 34.41 91.46, 41.91 91.32 C49.4 91.17, 57.96 90.42, 63.55 89.58 C69.15 88.74, 73.3 87.27, 75.47 86.27 C77.63 85.27, 76.22 85.3, 76.52 83.57 C76.82 81.83, 77.26 88.76, 77.26 75.87 C77.26 62.97, 76.62 18.79, 76.52 6.2 C76.42 -6.39, 77.3 2.02, 76.65 0.33 C76.01 -1.37, 75.23 -3, 72.63 -3.99 C70.03 -4.98, 66.99 -4.75, 61.07 -5.61 C55.15 -6.46, 44.15 -9.02, 37.1 -9.12 C30.05 -9.21, 24.55 -6.98, 18.76 -6.18 C12.98 -5.39, 5.47 -5.4, 2.37 -4.32 C-0.73 -3.25, 0.66 -0.25, 0.18 0.28 C-0.3 0.82, -0.29 -1.1, -0.49 -1.12 M0.45 -0.97 C0.25 11.28, -0.97 59.43, -1.05 73.72 C-1.12 88, -1.11 82.68, 0 84.74 C1.12 86.8, 2.73 85.09, 5.66 86.09 C8.58 87.09, 11.81 90.05, 17.55 90.73 C23.29 91.4, 32.31 89.99, 40.1 90.14 C47.9 90.3, 58.57 92.37, 64.32 91.66 C70.07 90.96, 72.27 87.47, 74.61 85.92 C76.95 84.38, 77.76 84.19, 78.35 82.4 C78.94 80.61, 78.42 87.75, 78.14 75.21 C77.86 62.66, 77.13 19.63, 76.66 7.13 C76.2 -5.36, 76.49 2.22, 75.35 0.23 C74.2 -1.76, 72.29 -3.86, 69.79 -4.81 C67.3 -5.77, 65.77 -5.22, 60.36 -5.53 C54.94 -5.83, 44.03 -6.18, 37.31 -6.63 C30.59 -7.09, 25.56 -8.65, 20.05 -8.24 C14.55 -7.83, 7.8 -5.66, 4.29 -4.15 C0.78 -2.64, -0.53 0.37, -0.99 0.82 C-1.45 1.27, 1.54 -1.07, 1.52 -1.45" stroke="#364fc7" stroke-width="1" fill="none"></path></g></g><mask></mask><g stroke-linecap="round"><g transform="translate(487.53337426298856 148.23651123458626) rotate(0 37.885913443173905 4.227075101335458)"><path d="M0.05 -0.23 C0.47 0.61, 0.7 2.67, 2.45 3.91 C4.21 5.15, 7.11 6.4, 10.58 7.22 C14.04 8.04, 18.24 8.54, 23.24 8.84 C28.24 9.14, 34.15 9.27, 40.58 9.02 C47.01 8.76, 56.24 8.24, 61.83 7.3 C67.41 6.36, 71.54 4.7, 74.1 3.37 C76.65 2.03, 76.58 -0.1, 77.16 -0.69 M-1.38 -1.4 C-1.08 -0.82, -0.12 0.92, 1.73 2.05 C3.57 3.18, 6 4.6, 9.69 5.37 C13.39 6.15, 19.01 5.97, 23.9 6.72 C28.79 7.47, 32.48 9.91, 39.02 9.85 C45.55 9.8, 57.19 7.66, 63.11 6.38 C69.02 5.1, 72.35 3.45, 74.51 2.19 C76.68 0.93, 75.85 -0.58, 76.12 -1.19" stroke="#364fc7" stroke-width="1" fill="none"></path></g></g><mask></mask><g stroke-linecap="round"><g transform="translate(486.50151694048475 119.2724558993632) rotate(0 37.53036298868214 4.321794379097241)"><path d="M-0.23 0.42 C0.38 0.94, 0.53 2.08, 2.53 3.19 C4.53 4.29, 8.28 6.28, 11.75 7.05 C15.21 7.83, 18.32 7.7, 23.3 7.84 C28.27 7.99, 35.09 8.12, 41.6 7.92 C48.1 7.72, 56.77 7.44, 62.31 6.63 C67.85 5.82, 72.43 4.13, 74.85 3.03 C77.28 1.93, 76.45 0.66, 76.87 0.02 M-1.81 -0.4 C-1.22 0.3, -0.37 3.69, 1.84 4.61 C4.06 5.53, 7.79 4.41, 11.48 5.12 C15.17 5.82, 19.13 8.35, 23.98 8.86 C28.83 9.37, 33.93 8.76, 40.57 8.18 C47.21 7.59, 58 6.44, 63.84 5.36 C69.69 4.28, 73.69 2.59, 75.66 1.68 C77.64 0.77, 75.67 -0.04, 75.69 -0.1" stroke="#364fc7" stroke-width="1" fill="none"></path></g></g><mask></mask><g stroke-linecap="round" transform="translate(485.4435679584027 83.97795895117474) rotate(0 38.29876800932749 7.745637696423955)"><path d="M46.89 0.13 C54.67 0.42, 64.35 1.08, 69.29 2.54 C74.22 4, 76.95 6.99, 76.51 8.9 C76.06 10.81, 72.21 13.06, 66.6 14 C60.98 14.95, 51.2 14.44, 42.81 14.57 C34.42 14.71, 23.28 15.5, 16.27 14.82 C9.26 14.14, 2.78 12.11, 0.77 10.51 C-1.25 8.9, 0.8 6.8, 4.17 5.19 C7.55 3.57, 13.06 1.46, 21.02 0.82 C28.97 0.18, 46.23 1.49, 51.9 1.36 C57.57 1.22, 55.37 -0.13, 55.05 0.01 M31.69 -1.28 C39.55 -1.63, 50.16 -1.14, 57.32 -0.24 C64.47 0.67, 71.59 2.58, 74.62 4.15 C77.65 5.73, 78.32 7.61, 75.5 9.19 C72.68 10.77, 64.74 12.77, 57.71 13.65 C50.68 14.52, 41.12 14.47, 33.31 14.43 C25.49 14.38, 16.21 14.62, 10.81 13.39 C5.42 12.17, 1.18 8.63, 0.92 7.06 C0.65 5.49, 4.29 4.97, 9.22 3.97 C14.15 2.98, 26.77 1.76, 30.49 1.09 C34.2 0.42, 31.15 0, 31.54 -0.02" stroke="none" stroke-width="0" fill="#fff"></path><path d="M35.43 -0.11 C43.13 -0.5, 54.12 0.26, 60.79 1.17 C67.46 2.07, 73.33 3.7, 75.43 5.34 C77.52 6.97, 76.87 9.34, 73.37 10.96 C69.87 12.59, 61.87 14.43, 54.44 15.09 C47.01 15.75, 36.72 15.4, 28.78 14.91 C20.83 14.42, 11.52 13.35, 6.77 12.14 C2.02 10.93, -0.58 9.28, 0.3 7.64 C1.17 6, 4.93 3.49, 12 2.3 C19.07 1.11, 36.37 0.95, 42.71 0.49 C49.06 0.03, 50.09 -0.58, 50.09 -0.43 M24.26 -0.05 C31.29 -1, 40.84 -1.51, 48.63 -0.94 C56.42 -0.38, 66.48 1.98, 70.98 3.36 C75.48 4.74, 77 5.57, 75.62 7.35 C74.23 9.13, 68.67 12.51, 62.69 14.05 C56.7 15.59, 47.87 16.57, 39.68 16.58 C31.5 16.6, 20.23 15.6, 13.57 14.16 C6.92 12.73, 1.11 9.71, -0.25 7.98 C-1.6 6.25, 1.58 5.05, 5.42 3.78 C9.27 2.52, 19.9 0.89, 22.8 0.4 C25.7 -0.09, 22.51 0.91, 22.83 0.83" stroke="#364fc7" stroke-width="1" fill="none"></path></g><g stroke-linecap="round" transform="translate(521.9355550636252 108.45462663107833) rotate(0 5.613051577080881 6.091879242227833)"><path d="M4.09 0.25 C5.18 -0.04, 6.16 -0.08, 7.37 0.58 C8.58 1.24, 10.58 2.97, 11.34 4.23 C12.1 5.48, 12.48 7.09, 11.92 8.12 C11.35 9.15, 8.97 9.86, 7.94 10.42 C6.91 10.97, 6.69 11.28, 5.74 11.42 C4.79 11.56, 3.09 12.15, 2.24 11.28 C1.38 10.4, 0.79 7.57, 0.6 6.18 C0.4 4.8, 0.16 3.99, 1.06 2.96 C1.95 1.93, 5.29 0.54, 5.95 0.03 C6.61 -0.48, 4.99 -0.14, 5.02 -0.1 M1.79 1.11 C2.83 0.48, 4.56 0.39, 5.83 0.8 C7.1 1.2, 8.67 2.63, 9.39 3.53 C10.11 4.43, 10.23 4.91, 10.14 6.2 C10.06 7.49, 9.71 10.07, 8.88 11.29 C8.05 12.51, 6.15 13.4, 5.16 13.52 C4.18 13.64, 3.94 12.86, 2.98 12.01 C2.01 11.17, -0.41 9.92, -0.64 8.44 C-0.87 6.96, 0.8 4.36, 1.6 3.13 C2.4 1.9, 3.93 1.28, 4.15 1.07 C4.38 0.85, 3.05 1.72, 2.94 1.84" stroke="none" stroke-width="0" fill="#868e96"></path><path d="M7.62 1.17 C8.56 1.49, 9.87 2.39, 10.38 3.48 C10.9 4.56, 10.96 6.48, 10.73 7.68 C10.5 8.88, 9.85 9.9, 9.01 10.68 C8.18 11.46, 6.96 12.42, 5.71 12.35 C4.46 12.29, 2.45 11.18, 1.49 10.29 C0.53 9.41, -0.03 8.14, -0.04 7.05 C-0.06 5.96, 0.74 4.89, 1.4 3.76 C2.06 2.63, 2.68 0.79, 3.93 0.27 C5.18 -0.25, 8.21 0.4, 8.89 0.65 C9.58 0.91, 8.07 1.82, 8.04 1.81 M2.5 -0.76 C3.23 -1.41, 4.4 0, 5.63 0.44 C6.85 0.87, 9.18 1.07, 9.87 1.86 C10.56 2.65, 9.7 3.76, 9.76 5.16 C9.82 6.55, 10.64 9.28, 10.24 10.23 C9.83 11.19, 8.57 10.94, 7.33 10.91 C6.09 10.88, 4.22 10.41, 2.8 10.06 C1.38 9.7, -0.73 10.04, -1.18 8.8 C-1.62 7.56, -0.56 4.18, 0.13 2.6 C0.82 1.02, 2.42 -0.27, 2.95 -0.68 C3.48 -1.08, 3.45 -0.23, 3.28 0.17" stroke="#364fc7" stroke-width="1" fill="none"></path></g><g stroke-linecap="round" transform="translate(522.2866968475588 134.67124091814344) rotate(0 5.613051577080881 6.091879242227833)"><path d="M3.85 -0.31 C5.01 -0.67, 6.41 0.31, 7.64 1.04 C8.86 1.76, 10.57 3.15, 11.22 4.04 C11.87 4.93, 12.01 5.16, 11.54 6.4 C11.08 7.64, 9.58 10.41, 8.45 11.48 C7.32 12.55, 5.7 12.83, 4.76 12.79 C3.82 12.75, 3.67 12.21, 2.81 11.26 C1.96 10.3, -0.08 8.29, -0.35 7.05 C-0.62 5.82, 0.42 5.13, 1.19 3.82 C1.97 2.52, 3.75 -0.34, 4.33 -0.78 C4.9 -1.23, 4.69 1.04, 4.65 1.15 M3.53 -0.5 C4.47 -1.04, 6.16 -0.96, 7.41 -0.66 C8.65 -0.36, 10.44 0.26, 11.01 1.3 C11.59 2.35, 10.89 4.29, 10.84 5.61 C10.78 6.92, 11.2 8.04, 10.68 9.22 C10.16 10.4, 8.92 12.49, 7.73 12.68 C6.54 12.88, 4.65 11.01, 3.52 10.4 C2.4 9.79, 1.59 9.98, 1.01 9.03 C0.42 8.09, -0.42 6.17, 0 4.73 C0.41 3.28, 2.78 1.03, 3.48 0.38 C4.19 -0.27, 4.12 0.61, 4.2 0.82" stroke="none" stroke-width="0" fill="#868e96"></path><path d="M8.1 0.11 C9.13 0.39, 10.04 1.4, 10.59 2.55 C11.15 3.69, 11.68 5.57, 11.43 6.98 C11.18 8.39, 10 10.19, 9.08 11 C8.17 11.81, 7.14 11.89, 5.93 11.85 C4.73 11.82, 2.77 11.44, 1.83 10.77 C0.89 10.1, 0.32 9.09, 0.28 7.83 C0.25 6.56, 1.08 4.35, 1.62 3.19 C2.17 2.03, 2.44 1.42, 3.55 0.86 C4.65 0.3, 7.23 -0.38, 8.25 -0.16 C9.28 0.07, 9.84 2.12, 9.7 2.21 M4.73 -1.29 C5.85 -1.19, 8.89 0.64, 9.86 1.54 C10.84 2.44, 10.75 2.7, 10.58 4.14 C10.42 5.58, 9.47 8.68, 8.87 10.17 C8.27 11.66, 8.13 12.79, 6.98 13.08 C5.83 13.37, 3.24 12.88, 1.98 11.9 C0.72 10.93, -0.46 8.53, -0.59 7.24 C-0.72 5.95, 0.87 5.2, 1.19 4.14 C1.52 3.09, 0.77 1.58, 1.37 0.91 C1.97 0.24, 4.12 0.5, 4.82 0.14 C5.51 -0.23, 5.25 -1.25, 5.55 -1.26" stroke="#364fc7" stroke-width="1" fill="none"></path></g><g stroke-linecap="round" transform="translate(522.9355550636252 163.43996748944983) rotate(357.5021844865888 5.613051577080881 6.091879242227833)"><path d="M3.34 0.26 C4.53 -0.07, 7.08 0.59, 8.44 1.17 C9.8 1.76, 11.21 2.82, 11.51 3.76 C11.8 4.69, 10.52 5.71, 10.21 6.79 C9.89 7.86, 10.34 9.17, 9.63 10.22 C8.91 11.27, 7.13 13.09, 5.92 13.07 C4.71 13.06, 3.33 11.11, 2.36 10.13 C1.38 9.15, 0.16 8.44, 0.07 7.21 C-0.03 5.98, 1.24 3.98, 1.79 2.77 C2.34 1.55, 2.73 0.42, 3.37 -0.07 C4.01 -0.56, 5.62 -0.15, 5.65 -0.18 M5.85 0.8 C7.08 1.12, 8.69 2.65, 9.41 3.55 C10.12 4.45, 10.23 4.93, 10.14 6.23 C10.05 7.52, 9.69 10.09, 8.86 11.31 C8.03 12.52, 6.13 13.41, 5.14 13.52 C4.16 13.64, 3.92 12.85, 2.96 12 C1.99 11.15, -0.42 9.9, -0.65 8.42 C-0.87 6.94, 0.8 4.33, 1.61 3.11 C2.41 1.88, 3.32 1.35, 4.17 1.06 C5.03 0.77, 6.26 1.36, 6.73 1.35 C7.21 1.34, 6.94 1.28, 7.04 1.01" stroke="none" stroke-width="0" fill="#868e96"></path><path d="M7.31 0.55 C8.37 0.83, 9.47 2.24, 10.1 3.29 C10.74 4.35, 11.22 5.61, 11.13 6.88 C11.04 8.15, 10.55 10.09, 9.58 10.92 C8.61 11.76, 6.58 11.89, 5.3 11.9 C4.03 11.9, 2.71 11.57, 1.93 10.94 C1.15 10.31, 0.81 9.42, 0.61 8.11 C0.41 6.8, 0.16 4.37, 0.75 3.05 C1.33 1.73, 2.92 0.44, 4.11 0.19 C5.3 -0.06, 6.83 1.31, 7.89 1.54 C8.95 1.78, 10.51 1.54, 10.47 1.59 M5.06 0.32 C6.26 0.54, 8.72 0.67, 9.51 1.37 C10.29 2.08, 9.59 3.14, 9.77 4.53 C9.95 5.93, 10.92 8.72, 10.61 9.76 C10.3 10.81, 9.12 10.71, 7.9 10.81 C6.68 10.91, 4.78 10.61, 3.3 10.37 C1.82 10.14, -0.42 10.59, -0.99 9.39 C-1.55 8.19, -0.65 4.81, -0.08 3.19 C0.5 1.56, 1.36 0.24, 2.45 -0.37 C3.54 -0.99, 6.07 -0.69, 6.48 -0.51 C6.9 -0.34, 5.08 0.38, 4.95 0.7" stroke="#364fc7" stroke-width="1" fill="none"></path></g><g transform="translate(484.3316093007668 185.03010908829265) rotate(0 40.82733917236328 10.200000000000045)"><text x="40.82733917236328" y="0" font-family="Virgil, Segoe UI Emoji" font-size="17.4778970902999px" fill="#364fc7" text-anchor="middle" style="white-space: pre;" direction="ltr" dominant-baseline="text-before-edge">DB - v1.0</text></g><g stroke-linecap="round"><g transform="translate(487.00944482471357 329.5688023652149) rotate(0 38.80178380824927 42.38227570058302)" fill-rule="evenodd"><path d="M1.82 -1.91 L-1 81.84 L-0.15 85.79 L17.76 88.64 L39.7 90.09 L64.7 88.98 L75.8 86.07 L78.84 -0.29 L67.58 -5.42 L36.85 -8.45 L8.03 -3.75 L5.1 -2.5 L0.38 -1.77" stroke="none" stroke-width="0" fill="#ced4da" fill-rule="evenodd"></path><path d="M-1.18 -0.15 C-1.09 12.07, -0.73 60.21, -0.33 74.26 C0.06 88.32, 0.37 81.88, 1.18 84.17 C2 86.47, 1.69 86.85, 4.55 88.04 C7.42 89.23, 12.19 90.65, 18.36 91.31 C24.53 91.96, 34.25 92.18, 41.55 91.96 C48.85 91.74, 56.52 91.04, 62.16 89.99 C67.81 88.95, 73.1 86.75, 75.4 85.68 C77.69 84.62, 75.53 85.03, 75.91 83.6 C76.3 82.18, 77.53 90.18, 77.7 77.13 C77.87 64.07, 76.96 18.24, 76.92 5.29 C76.87 -7.66, 78.42 0.94, 77.43 -0.57 C76.44 -2.08, 73.67 -2.92, 70.98 -3.76 C68.28 -4.6, 66.84 -5.1, 61.27 -5.61 C55.7 -6.12, 44.62 -6.51, 37.54 -6.82 C30.47 -7.13, 24.61 -7.93, 18.81 -7.48 C13 -7.03, 6 -5.29, 2.71 -4.11 C-0.58 -2.92, -0.35 -1.18, -0.93 -0.36 C-1.5 0.45, -1.07 0.92, -0.73 0.78 M0.4 -1.27 C0.96 11.59, 1.96 61.42, 2.07 75.31 C2.17 89.2, 0.53 80.3, 1.03 82.04 C1.54 83.79, 2.41 84.11, 5.11 85.79 C7.8 87.46, 11.47 91.18, 17.21 92.07 C22.95 92.96, 32.06 91.7, 39.56 91.13 C47.06 90.56, 56.38 89.66, 62.2 88.64 C68.02 87.62, 71.96 86.05, 74.5 85.02 C77.04 83.99, 76.71 83.78, 77.43 82.46 C78.15 81.14, 78.84 89.92, 78.81 77.13 C78.78 64.34, 77.65 18.78, 77.27 5.74 C76.89 -7.3, 77.59 0.57, 76.53 -1.13 C75.48 -2.83, 73.57 -3.73, 70.93 -4.46 C68.29 -5.19, 66.16 -5.14, 60.66 -5.53 C55.17 -5.92, 45.35 -6.63, 37.99 -6.8 C30.62 -6.97, 21.99 -7.05, 16.46 -6.56 C10.93 -6.06, 7.39 -4.89, 4.81 -3.82 C2.23 -2.76, 1.59 -1.04, 0.98 -0.16 C0.38 0.71, 1.56 1.41, 1.16 1.45" stroke="#2b8a3e" stroke-width="1" fill="none"></path></g></g><mask></mask><g stroke-linecap="round"><g transform="translate(487.53337426298856 386.69508602294513) rotate(0 38.60001815297609 3.634540820340817)"><path d="M-0.15 -0.59 C-0.13 0.37, -0.8 3.34, 1.1 4.58 C2.99 5.83, 7.55 6.19, 11.21 6.86 C14.87 7.53, 18 8.32, 23.05 8.62 C28.09 8.92, 34.89 9.11, 41.46 8.66 C48.03 8.21, 56.96 6.8, 62.47 5.91 C67.98 5.02, 72.17 4.5, 74.52 3.3 C76.87 2.09, 76.05 -0.79, 76.57 -1.3 M-1.68 1.72 C-1.38 2.48, 1.26 2.56, 3.32 3.08 C5.37 3.59, 7.28 4.27, 10.66 4.82 C14.04 5.38, 18.65 5.63, 23.6 6.38 C28.55 7.12, 34.23 9.05, 40.37 9.31 C46.5 9.57, 54.63 9.13, 60.43 7.92 C66.23 6.72, 72.08 3.75, 75.15 2.08 C78.23 0.41, 78.71 -1.63, 78.88 -2.11" stroke="#2b8a3e" stroke-width="1" fill="none"></path></g></g><mask></mask><g stroke-linecap="round"><g transform="translate(486.50151694048475 357.73103068772184) rotate(0 38.920580356623645 4.114478160217345)"><path d="M-0.59 -0.94 C0.14 -0.27, 1.21 2.52, 3.2 3.82 C5.2 5.12, 8.07 6.04, 11.39 6.85 C14.7 7.67, 18.1 8.44, 23.07 8.72 C28.05 9.01, 34.93 8.84, 41.24 8.56 C47.55 8.28, 55.33 8.07, 60.92 7.05 C66.51 6.03, 72.22 3.61, 74.78 2.44 C77.34 1.28, 75.76 0.39, 76.27 0.06 M1.3 1.19 C2.08 1.49, 1.27 1.31, 2.87 1.92 C4.47 2.52, 7.47 4.04, 10.93 4.81 C14.39 5.59, 18.79 5.82, 23.64 6.54 C28.49 7.27, 33.68 9.25, 40.02 9.16 C46.37 9.07, 55.81 6.79, 61.73 6 C67.65 5.21, 72.77 5.45, 75.55 4.44 C78.34 3.43, 78.27 0.77, 78.43 -0.04" stroke="#2b8a3e" stroke-width="1" fill="none"></path></g></g><mask></mask><g stroke-linecap="round" transform="translate(485.4435679584027 322.4365337395336) rotate(0 38.29876800932749 7.745637696423955)"><path d="M51.79 -0.4 C59.09 -0.14, 67.54 1.42, 71.41 3.12 C75.27 4.82, 76.3 7.99, 74.99 9.8 C73.67 11.6, 69.58 13.09, 63.52 13.95 C57.46 14.8, 47.01 15.07, 38.61 14.92 C30.22 14.78, 19.52 14.21, 13.17 13.07 C6.81 11.93, 1.94 9.66, 0.48 8.07 C-0.99 6.49, 0.3 4.9, 4.4 3.55 C8.49 2.21, 16.95 0.47, 25.04 0.01 C33.13 -0.46, 47.97 0.5, 52.92 0.75 C57.88 1.01, 54.89 1.33, 54.77 1.54 M34.24 0.53 C42.01 0.43, 54.62 1.93, 61.3 2.6 C67.98 3.27, 72.57 3.3, 74.34 4.54 C76.11 5.78, 75.36 8.37, 71.91 10.06 C68.46 11.76, 60.84 13.84, 53.63 14.71 C46.41 15.58, 36.4 15.82, 28.62 15.26 C20.83 14.71, 11.73 12.6, 6.9 11.4 C2.06 10.19, -1.37 9.35, -0.39 8.04 C0.59 6.72, 7.09 4.9, 12.8 3.52 C18.51 2.13, 30.29 0.21, 33.88 -0.26 C37.48 -0.74, 34.32 0.56, 34.36 0.67" stroke="none" stroke-width="0" fill="#fff"></path><path d="M45.31 0.71 C53.06 0.85, 62.9 1.91, 67.95 3.07 C73.01 4.24, 75.64 6.18, 75.63 7.7 C75.63 9.22, 73.15 10.86, 67.94 12.2 C62.72 13.54, 52.36 15.25, 44.34 15.75 C36.32 16.25, 26.81 16.22, 19.82 15.19 C12.83 14.16, 5.19 11.29, 2.4 9.57 C-0.39 7.86, 0.38 6.29, 3.08 4.9 C5.77 3.51, 10.61 1.92, 18.59 1.25 C26.56 0.57, 44.66 0.73, 50.93 0.85 C57.21 0.98, 56.4 2.02, 56.24 1.98 M28.63 -0.68 C36.43 -0.73, 48.87 1.12, 56.06 2.23 C63.26 3.33, 68.87 4.78, 71.81 5.96 C74.74 7.14, 75.91 8.08, 73.68 9.29 C71.46 10.5, 65.04 12.19, 58.45 13.22 C51.87 14.25, 42.37 15.64, 34.18 15.45 C25.98 15.27, 15.15 13.13, 9.29 12.11 C3.42 11.08, -0.56 10.92, -1.01 9.32 C-1.47 7.72, 1.39 3.79, 6.54 2.51 C11.69 1.23, 26.01 1.98, 29.9 1.64 C33.78 1.3, 29.87 0.64, 29.85 0.47" stroke="#2b8a3e" stroke-width="1" fill="none"></path></g><g stroke-linecap="round" transform="translate(521.9355550636252 346.9132014194372) rotate(0 5.613051577080881 6.091879242227833)"><path d="M7.18 0.44 C8.04 0.72, 9.19 1.27, 9.94 2.61 C10.69 3.96, 11.83 7.01, 11.67 8.52 C11.52 10.03, 10.2 11.12, 9 11.66 C7.8 12.21, 5.81 12.03, 4.47 11.8 C3.14 11.57, 1.91 11.28, 1 10.27 C0.1 9.25, -0.92 7.04, -0.96 5.69 C-1 4.34, -0.01 3.13, 0.78 2.16 C1.58 1.2, 2.45 0.04, 3.79 -0.1 C5.14 -0.24, 7.84 0.96, 8.86 1.32 C9.88 1.69, 9.84 2.06, 9.88 2.06 M7.34 1.05 C8.6 1.23, 10.82 0.69, 11.26 1.4 C11.7 2.11, 10.4 3.99, 9.99 5.34 C9.57 6.69, 9.38 8.3, 8.76 9.5 C8.14 10.69, 7.29 12.21, 6.27 12.51 C5.24 12.81, 3.76 12.14, 2.63 11.28 C1.5 10.42, -0.31 8.37, -0.51 7.36 C-0.71 6.35, 0.63 6.54, 1.43 5.22 C2.23 3.9, 3.45 0.43, 4.3 -0.55 C5.15 -1.53, 6.05 -0.59, 6.55 -0.67 C7.05 -0.76, 7.34 -1.43, 7.3 -1.05" stroke="none" stroke-width="0" fill="#868e96"></path><path d="M7.56 0.59 C8.66 0.57, 9.87 0.52, 10.48 1.54 C11.09 2.57, 11.42 5.38, 11.2 6.72 C10.98 8.05, 9.92 8.57, 9.15 9.57 C8.38 10.56, 7.57 12.42, 6.58 12.69 C5.59 12.96, 4.4 11.87, 3.2 11.19 C2 10.51, -0.14 9.93, -0.63 8.59 C-1.12 7.26, -0.4 4.48, 0.26 3.18 C0.92 1.88, 1.94 1.16, 3.34 0.78 C4.75 0.4, 7.53 0.67, 8.67 0.89 C9.82 1.11, 10.41 2.11, 10.21 2.09 M2.68 1.39 C4.14 0.69, 7.35 -1.17, 8.87 -1.15 C10.39 -1.13, 11.5 0.36, 11.78 1.51 C12.06 2.66, 11.14 4.26, 10.57 5.77 C10 7.28, 9.17 9.73, 8.36 10.56 C7.55 11.39, 6.94 10.86, 5.73 10.72 C4.51 10.58, 1.84 10.43, 1.07 9.73 C0.31 9.03, 1.31 7.45, 1.14 6.5 C0.96 5.54, -0.63 4.92, 0.01 4.02 C0.66 3.11, 4.38 1.66, 5 1.04 C5.61 0.43, 3.98 0.42, 3.72 0.34" stroke="#2b8a3e" stroke-width="1" fill="none"></path></g><g stroke-linecap="round" transform="translate(522.2866968475588 373.12981570650186) rotate(0 5.613051577080881 6.091879242227833)"><path d="M6.45 -0.69 C7.39 -0.29, 8.02 1.69, 8.94 2.86 C9.87 4.04, 11.75 5.26, 11.99 6.36 C12.24 7.47, 11.39 8.61, 10.42 9.47 C9.46 10.32, 7.49 11.36, 6.21 11.51 C4.92 11.67, 3.83 10.99, 2.71 10.38 C1.59 9.77, -0.06 9.01, -0.51 7.86 C-0.97 6.72, -0.52 4.68, -0.01 3.53 C0.5 2.38, 1.12 1.31, 2.55 0.94 C3.97 0.58, 7.3 1.07, 8.54 1.34 C9.78 1.62, 10.1 2.53, 9.98 2.59 M7.3 1.24 C8.42 1.05, 8.31 0.17, 8.79 0.78 C9.27 1.39, 10.1 3.39, 10.19 4.89 C10.28 6.39, 9.83 8.57, 9.32 9.77 C8.82 10.97, 8.21 11.94, 7.16 12.09 C6.12 12.25, 4.26 11.16, 3.04 10.71 C1.82 10.25, 0.08 10.25, -0.14 9.38 C-0.35 8.51, 1.49 6.94, 1.74 5.48 C2 4.03, 0.77 1.46, 1.4 0.64 C2.04 -0.19, 4.96 0.69, 5.57 0.55 C6.18 0.41, 4.79 -0.34, 5.06 -0.21" stroke="none" stroke-width="0" fill="#868e96"></path><path d="M7.36 0.5 C8.24 0.62, 8.5 1.56, 9.18 2.48 C9.86 3.39, 11.46 4.62, 11.42 5.99 C11.38 7.36, 9.69 9.54, 8.91 10.69 C8.14 11.83, 7.83 12.94, 6.76 12.87 C5.7 12.81, 3.49 11.19, 2.54 10.31 C1.58 9.42, 1.45 8.65, 1.04 7.57 C0.62 6.49, -0.34 4.92, 0.04 3.83 C0.41 2.75, 1.92 1.44, 3.29 1.06 C4.67 0.68, 7.24 1.58, 8.28 1.55 C9.31 1.53, 9.64 1.1, 9.49 0.91 M4.57 1.85 C5.43 1.71, 5.21 1.61, 5.95 1.69 C6.69 1.78, 8.33 1.62, 8.99 2.35 C9.64 3.08, 9.86 4.7, 9.9 6.09 C9.93 7.47, 10.12 9.84, 9.18 10.68 C8.24 11.53, 5.63 10.97, 4.26 11.16 C2.89 11.36, 1.8 12.63, 0.98 11.87 C0.16 11.1, -0.76 7.8, -0.67 6.58 C-0.57 5.37, 0.75 5.57, 1.56 4.56 C2.38 3.54, 3.91 1.23, 4.23 0.5 C4.54 -0.23, 3.59 0.31, 3.45 0.17" stroke="#2b8a3e" stroke-width="1" fill="none"></path></g><g stroke-linecap="round" transform="translate(522.9355550636252 401.8985422778085) rotate(357.5021844865888 5.613051577080881 6.091879242227833)"><path d="M5.36 -0.96 C6.76 -0.76, 9.26 1.4, 10.28 2.59 C11.29 3.77, 11.56 5.02, 11.45 6.14 C11.34 7.25, 10.45 8.31, 9.62 9.28 C8.78 10.24, 7.67 11.67, 6.44 11.92 C5.21 12.17, 3.26 11.36, 2.23 10.75 C1.19 10.14, 0.64 9.35, 0.23 8.26 C-0.19 7.16, -0.64 5.33, -0.24 4.18 C0.15 3.03, 1.18 1.95, 2.57 1.38 C3.97 0.82, 6.99 0.88, 8.11 0.8 C9.24 0.73, 9.39 0.86, 9.32 0.93 M5.19 -0.74 C5.97 -1.49, 5.86 -1.1, 6.61 -0.53 C7.35 0.03, 8.91 1.24, 9.65 2.64 C10.38 4.04, 11.11 6.48, 11 7.88 C10.9 9.28, 10.09 10.41, 9.01 11.04 C7.93 11.66, 5.56 11.47, 4.52 11.62 C3.48 11.78, 3.29 13, 2.76 11.99 C2.22 10.98, 1.66 7.24, 1.31 5.57 C0.96 3.89, 0.1 3.03, 0.63 1.92 C1.16 0.82, 3.99 -0.94, 4.5 -1.06 C5 -1.17, 3.59 1.11, 3.65 1.24" stroke="none" stroke-width="0" fill="#868e96"></path><path d="M7.34 -0.77 C8.36 -0.57, 9.6 1.66, 10.17 2.75 C10.73 3.85, 10.73 4.45, 10.7 5.81 C10.68 7.17, 10.64 9.83, 10 10.9 C9.36 11.96, 8.28 12.03, 6.88 12.2 C5.48 12.37, 2.74 12.75, 1.59 11.93 C0.44 11.11, 0.13 8.66, -0.02 7.29 C-0.17 5.92, 0.09 4.82, 0.7 3.73 C1.3 2.65, 2.22 1.21, 3.62 0.78 C5.03 0.34, 8.29 1.08, 9.13 1.13 C9.97 1.18, 8.99 1.17, 8.67 1.07 M6.31 -1.43 C7.81 -2.07, 9.31 -1.22, 9.98 -0.48 C10.66 0.25, 10.39 1.52, 10.37 2.99 C10.35 4.45, 10.22 7.12, 9.86 8.29 C9.5 9.47, 9.3 9.59, 8.22 10.03 C7.14 10.47, 4.39 11.1, 3.39 10.94 C2.39 10.77, 2.88 9.74, 2.2 9.04 C1.52 8.33, -0.79 7.77, -0.68 6.7 C-0.56 5.63, 1.94 3.76, 2.88 2.62 C3.82 1.48, 4.68 0.35, 4.96 -0.13 C5.23 -0.6, 4.75 -0.52, 4.53 -0.21" stroke="#2b8a3e" stroke-width="1" fill="none"></path></g><g transform="translate(480.47947459617694 423.4886838766513) rotate(0 44.679473876953125 10.200000000000045)"><text x="44.679473876953125" y="0" font-family="Virgil, Segoe UI Emoji" font-size="17.4778970902999px" fill="#2b8a3e" text-anchor="middle" style="white-space: pre;" direction="ltr" dominant-baseline="text-before-edge">DB - v2.0</text></g><g stroke-linecap="round" transform="translate(211.06875485636078 169.72087950896366) rotate(0 21.187317988409234 84.76517702177398)"><path d="M1.67 1.56 C10.35 -1.69, 17.92 -2.05, 42.18 1.32 M-0.46 -0.49 C10.11 -0.08, 19.62 0.11, 43.01 0.37 M40.81 1.31 C42.94 57.86, 41.42 119.43, 42.41 168.55 M43.32 0.67 C41.59 50.93, 41.23 101.63, 41.65 169.77 M43.44 168.99 C31.88 168.51, 20.61 170.16, -1.82 168.63 M41.91 168.85 C26.81 168.98, 13.98 168.78, 0.7 169.07 M-1.26 168.51 C0.31 103.43, 1.55 38.9, 0.85 -1.88 M-0.09 169.65 C-1.38 134.24, -0.55 97.98, -0.27 -0.05" stroke="#000000" stroke-width="2" fill="none"></path></g><g transform="translate(218.99607833793402 241.98605653073764) rotate(0 13.259994506835938 12)"><text x="13.259994506835938" y="0" font-family="Virgil, Segoe UI Emoji" font-size="20px" fill="#000000" text-anchor="middle" style="white-space: pre;" direction="ltr" dominant-baseline="text-before-edge">LB</text></g><g stroke-linecap="round"><g transform="translate(82.97640499933527 255.7802977435449) rotate(0 57.04025351013706 -0.5949464175391768)"><path d="M-0.19 -1.36 C36.23 -1.39, 76.46 -1.06, 114.64 -0.75 M-0.56 0.18 C40.95 -0.45, 82.96 -0.13, 112.37 -0.49" stroke="#000000" stroke-width="2" fill="none"></path></g><g transform="translate(82.97640499933527 255.7802977435449) rotate(0 57.04025351013706 -0.5949464175391768)"><path d="M112.04 1.03 L96.95 6.95 L100.55 -5.43 L114.15 0.83" stroke="none" stroke-width="0" fill="#000000" fill-rule="evenodd"></path><path d="M112.23 -1.52 C106.78 0.4, 104.21 2.74, 99.85 5.24 M111.95 -0.36 C106.81 2.22, 102.11 4.77, 98.15 5.43 M98.37 5.25 C98.44 2.23, 99.04 -1.42, 98.78 -8 M98.65 6.43 C98.61 2.84, 99.1 -1.05, 98.4 -7.19 M97.95 -6.07 C102.37 -3.66, 105.46 -4.19, 112.17 0.88 M98.78 -7.4 C103.33 -4.11, 107.9 -2.83, 112.85 -1.24 M112.37 -0.49 C112.37 -0.49, 112.37 -0.49, 112.37 -0.49 M112.37 -0.49 C112.37 -0.49, 112.37 -0.49, 112.37 -0.49" stroke="#000000" stroke-width="2" fill="none"></path></g></g><mask></mask><g transform="translate(12.7872206485074 279.9236308705076) rotate(0 22.339981079101562 12)"><text x="0" y="0" font-family="Virgil, Segoe UI Emoji" font-size="20px" fill="#000000" text-anchor="start" style="white-space: pre;" direction="ltr" dominant-baseline="text-before-edge">User</text></g><g stroke-linecap="round"><g transform="translate(10 270.2707048605289) rotate(0 25.819645202628976 -21.79569932933714)" fill-rule="evenodd"><path d="M13.47 -38.64 C13.47 -38.64, 13.47 -38.64, 13.47 -38.64 M13.47 -38.64 C13.47 -38.64, 13.47 -38.64, 13.47 -38.64 M7.04 -19.05 C13.53 -26.52, 20.02 -33.99, 26.72 -41.69 M7.04 -19.05 C11.97 -24.72, 16.89 -30.39, 26.72 -41.69 M0.61 0.53 C8.72 -8.79, 16.82 -18.11, 35.39 -39.47 M0.61 0.53 C7.79 -7.73, 14.97 -15.98, 35.39 -39.47 M11.24 0.5 C18.7 -8.07, 26.15 -16.64, 40.77 -33.46 M11.24 0.5 C20.17 -9.77, 29.1 -20.04, 40.77 -33.46 M21.87 0.47 C30.15 -9.05, 38.42 -18.57, 46.81 -28.21 M21.87 0.47 C30.98 -10.01, 40.09 -20.49, 46.81 -28.21 M29.22 4.2 C37.1 -4.86, 44.98 -13.92, 50.87 -20.7 M29.22 4.2 C35.26 -2.74, 41.3 -9.69, 50.87 -20.7 M41.82 1.91 C44.52 -1.2, 47.22 -4.3, 54.94 -13.19 M41.82 1.91 C45.98 -2.88, 50.14 -7.66, 54.94 -13.19 M0 0 C0 0, 0 0, 0 0 M0 0 C0 0, 0 0, 0 0 M12.04 -0.13 C8.25 -3.43, 4.45 -6.73, 1.47 -9.32 M12.04 -0.13 C8.64 -3.09, 5.24 -6.05, 1.47 -9.32 M24.84 0.39 C17.27 -6.19, 9.7 -12.77, 2.95 -18.64 M24.84 0.39 C16.11 -7.2, 7.38 -14.79, 2.95 -18.64 M30.08 -5.65 C24.86 -10.19, 19.64 -14.73, 6.69 -25.99 M30.08 -5.65 C20.98 -13.56, 11.87 -21.48, 6.69 -25.99 M45.9 -2.5 C38.53 -8.9, 31.17 -15.31, 9.67 -33.99 M45.9 -2.5 C37.37 -9.91, 28.84 -17.33, 9.67 -33.99 M52.66 -7.23 C43 -15.62, 33.34 -24.02, 14.92 -40.03 M52.66 -7.23 C38.45 -19.57, 24.25 -31.92, 14.92 -40.03 M51.11 -19.17 C44.33 -25.06, 37.56 -30.95, 20.92 -45.41 M51.11 -19.17 C39.57 -29.21, 28.02 -39.25, 20.92 -45.41" stroke="#ced4da" stroke-width="1" fill="none"></path><path d="M0 0 C0.92 -4.85, 1.58 -21.76, 5.52 -29.07 C9.46 -36.38, 17.61 -43.34, 23.65 -43.87 C29.69 -44.4, 37.51 -39.05, 41.78 -32.24 C46.05 -25.43, 56.23 -8.39, 49.27 -3.02 C42.31 2.36, 8.21 -0.5, 0 0 M0 0 C0.92 -4.85, 1.58 -21.76, 5.52 -29.07 C9.46 -36.38, 17.61 -43.34, 23.65 -43.87 C29.69 -44.4, 37.51 -39.05, 41.78 -32.24 C46.05 -25.43, 56.23 -8.39, 49.27 -3.02 C42.31 2.36, 8.21 -0.5, 0 0" stroke="#000000" stroke-width="2" fill="none"></path></g></g><mask></mask><g stroke-linecap="round" transform="translate(22.453870836315673 203.57965707467247) rotate(0 12.612971703843186 11.036350240862816)"><path d="M2.98 3.91 C2.98 3.91, 2.98 3.91, 2.98 3.91 M2.98 3.91 C2.98 3.91, 2.98 3.91, 2.98 3.91 M2.45 16.71 C5.6 13.09, 8.74 9.48, 16.23 0.86 M2.45 16.71 C7 11.48, 11.54 6.26, 16.23 0.86 M8.49 21.96 C12.27 17.61, 16.04 13.27, 23.58 4.6 M8.49 21.96 C12.01 17.91, 15.52 13.87, 23.58 4.6 M4.36 19.37 C4.36 19.37, 4.36 19.37, 4.36 19.37 M4.36 19.37 C4.36 19.37, 4.36 19.37, 4.36 19.37 M17.91 20.55 C12.89 16.18, 7.87 11.82, 1.31 6.11 M17.91 20.55 C12.41 15.76, 6.9 10.97, 1.31 6.11 M24.67 15.82 C18.33 10.31, 11.99 4.8, 7.31 0.73 M24.67 15.82 C18.35 10.33, 12.04 4.84, 7.31 0.73" stroke="#ced4da" stroke-width="1" fill="none"></path><path d="M25.23 11.04 C25.23 11.68, 25.16 12.32, 25.03 12.95 C24.91 13.58, 24.71 14.21, 24.47 14.81 C24.22 15.41, 23.9 16, 23.54 16.55 C23.17 17.11, 22.74 17.64, 22.28 18.13 C21.81 18.62, 21.28 19.08, 20.72 19.49 C20.16 19.9, 19.55 20.27, 18.92 20.59 C18.29 20.91, 17.61 21.19, 16.93 21.41 C16.24 21.63, 15.52 21.79, 14.8 21.91 C14.08 22.02, 13.34 22.07, 12.61 22.07 C11.88 22.07, 11.14 22.02, 10.42 21.91 C9.7 21.79, 8.99 21.63, 8.3 21.41 C7.61 21.19, 6.94 20.91, 6.31 20.59 C5.67 20.27, 5.06 19.9, 4.51 19.49 C3.95 19.08, 3.42 18.62, 2.95 18.13 C2.48 17.64, 2.05 17.11, 1.69 16.55 C1.32 16, 1.01 15.41, 0.76 14.81 C0.51 14.21, 0.32 13.58, 0.19 12.95 C0.06 12.32, 0 11.68, 0 11.04 C0 10.4, 0.06 9.75, 0.19 9.12 C0.32 8.49, 0.51 7.86, 0.76 7.26 C1.01 6.66, 1.32 6.07, 1.69 5.52 C2.05 4.96, 2.48 4.43, 2.95 3.94 C3.42 3.45, 3.95 2.99, 4.51 2.58 C5.06 2.17, 5.67 1.8, 6.31 1.48 C6.94 1.16, 7.61 0.88, 8.3 0.67 C8.99 0.45, 9.7 0.28, 10.42 0.17 C11.14 0.06, 11.88 0, 12.61 0 C13.34 0, 14.08 0.06, 14.8 0.17 C15.52 0.28, 16.24 0.45, 16.93 0.67 C17.61 0.88, 18.29 1.16, 18.92 1.48 C19.55 1.8, 20.16 2.17, 20.72 2.58 C21.28 2.99, 21.81 3.45, 22.28 3.94 C22.74 4.43, 23.17 4.96, 23.54 5.52 C23.9 6.07, 24.22 6.66, 24.47 7.26 C24.71 7.86, 24.91 8.49, 25.03 9.12 C25.16 9.75, 25.19 10.72, 25.23 11.04 C25.26 11.36, 25.26 10.72, 25.23 11.04" stroke="#000000" stroke-width="2" fill="none"></path></g><g stroke-linecap="round"><g transform="translate(264.4390946052938 257.0113149248127) rotate(0 103.96353100992707 57.22030142554695)"><path d="M0.45 -0.91 C78.95 42.85, 158.83 87.07, 208.2 114.63 M-0.55 -0.1 C76.2 40.41, 150.13 83.08, 208.48 115.35" stroke="#000000" stroke-width="2" fill="none"></path></g><g transform="translate(264.4390946052938 257.0113149248127) rotate(0 103.96353100992707 57.22030142554695)"><path d="M207.19 114.33 L193.21 113.14 L198.99 101.72 L208.18 114.42" stroke="none" stroke-width="0" fill="#000000" fill-rule="evenodd"></path><path d="M208.88 114.53 C203.47 114.2, 198.44 114.17, 192.66 113.33 M207.98 115.26 C203.57 114.43, 197.17 115.07, 192.91 113.97 M194.46 113.74 C195.2 109.55, 198.73 107.11, 200.24 102.93 M193.44 114.73 C195.71 109.91, 197.37 106.11, 199.85 102.93 M198.69 102.14 C203.07 106.77, 207.24 112.18, 208.55 116.38 M199.56 103.21 C202.03 105.94, 204.44 108.11, 208.6 115.97 M208.48 115.35 C208.48 115.35, 208.48 115.35, 208.48 115.35 M208.48 115.35 C208.48 115.35, 208.48 115.35, 208.48 115.35" stroke="#000000" stroke-width="2" fill="none"></path></g></g><mask></mask><g stroke-linecap="round" transform="translate(141.35215094737316 10) rotate(0 266.8428413078239 250.62420133693456)"><path d="M-0.53 -0.26 C160.92 1.12, 323.44 0.69, 534.07 0.19 M-0.17 0.39 C171.16 0.53, 342.3 0.09, 533.66 0.36 M533.34 0.46 C535.18 169.6, 534.75 341.3, 533.53 501.58 M534.06 -0.16 C532.03 146.35, 532.32 292.47, 533.58 501.56 M533.6 501.78 C383.55 500.05, 233.27 499.98, 0.59 501.31 M533.39 501.64 C424.84 500.71, 315.9 501.37, 0.12 501.32 M-0.36 501.21 C1.16 361.62, 1.2 222.43, 0.09 -0.33 M-0.27 500.96 C0.57 328.99, 0.4 156.57, -0.32 -0.36" stroke="#000000" stroke-width="2" fill="none"></path></g><g mask="url(#mask-EUGXknvgndgELmehIifov)" stroke-linecap="round"><g stroke-opacity="0" fill-opacity="0" transform="translate(525.1630100193013 214.90223430710716) rotate(0 0.2944488562697529 47.26334169608924)"><path d="M-0.99 -0.79 C-0.29 29.07, 1.37 54.5, 1.57 95.38 M0.1 -0.85 C-0.8 21.31, -0.39 42.04, 0.42 95.16" stroke="#000000" stroke-width="2" fill="none"></path></g><g stroke-opacity="0" fill-opacity="0" transform="translate(525.1630100193013 214.90223430710716) rotate(0 0.2944488562697529 47.26334169608924)"><path d="M-0.82 93.17 L-7.45 80.99 L6.77 80.08 L-1.25 95.39" stroke="none" stroke-width="0" fill="#000000" fill-rule="evenodd"></path><path d="M-0.32 94.57 C-2.12 92.89, -2.73 87.82, -4.93 81.35 M0.49 94.52 C-1.31 92.65, -2.41 89.7, -5.8 81.19 M-4.92 82.54 C-1.94 81.88, 3.46 81.4, 5.95 82.44 M-6.45 81.75 C-3.77 81.19, -1.01 81.73, 6.14 81.55 M6.78 81.9 C4.07 86.11, 1.91 90.16, -0.9 94.95 M6.93 81.3 C5.63 85.65, 2.98 89.13, 1.05 94.78 M0.42 95.16 C0.42 95.16, 0.42 95.16, 0.42 95.16 M0.42 95.16 C0.42 95.16, 0.42 95.16, 0.42 95.16" stroke="#000000" stroke-width="2" fill="none"></path></g></g><mask id="mask-EUGXknvgndgELmehIifov"><rect x="0" y="0" fill="#fff" width="625.1711331116438" height="410.69522950870623"></rect><rect x="504.6989646474464" y="250.79873190790659" fill="#000" width="40.91996765136719" height="24" opacity="1"></rect></mask><g stroke-opacity="0" fill-opacity="0" transform="translate(504.6989646474465 250.79873190790659) rotate(0 20.75849422812462 11.36684409528982)"><text x="20.459983825683594" y="0" font-family="Virgil, Segoe UI Emoji" font-size="20px" fill="#000000" text-anchor="middle" style="white-space: pre;" direction="ltr" dominant-baseline="text-before-edge">Sync</text></g><g transform="translate(212.4168108669635 138.95366220131564) rotate(0 4.6875 9.600000000000023)"><text x="0" y="0" font-family="Cascadia, Segoe UI Emoji" font-size="16px" fill="#2b8a3e" text-anchor="start" style="white-space: pre;" direction="ltr" dominant-baseline="text-before-edge"></text></g><g transform="translate(153.12907275073087 21.500282489676465) rotate(0 51.5625 9.600000000000023)"><text x="0" y="0" font-family="Cascadia, Segoe UI Emoji" font-size="16px" fill="#495057" text-anchor="start" style="white-space: pre;" direction="ltr" dominant-baseline="text-before-edge">K8s Cluster</text></g></svg>