<svg version="1.1" xmlns="http://www.w3.org/2000/svg" viewBox="0 0 567.9623919428689 395.9851938753035" width="567.9623919428689" height="395.9851938753035">
  <!-- svg-source:excalidraw -->
  
  <defs>
    <style class="style-fonts">
      @font-face {
        font-family: "Virgil";
        src: url("https://excalidraw.com/Virgil.woff2");
      }
      @font-face {
        font-family: "Cascadia";
        src: url("https://excalidraw.com/Cascadia.woff2");
      }
    </style>
  </defs>
  <g transform="translate(12.7872206485074 224.16458383556926) rotate(0 22.339981079101562 12)"><text x="0" y="0" font-family="Virgil, Segoe UI Emoji" font-size="20px" fill="#000000" text-anchor="start" style="white-space: pre;" direction="ltr" dominant-baseline="text-before-edge">User</text></g><g stroke-linecap="round"><g transform="translate(10 214.51165782559053) rotate(0 25.819645202628976 -21.795699329337083)" fill-rule="evenodd"><path d="M13.47 -38.64 C13.47 -38.64, 13.47 -38.64, 13.47 -38.64 M13.47 -38.64 C13.47 -38.64, 13.47 -38.64, 13.47 -38.64 M7.04 -19.05 C14.63 -27.78, 22.21 -36.5, 26.72 -41.69 M7.04 -19.05 C12.76 -25.63, 18.48 -32.21, 26.72 -41.69 M0.61 0.53 C12.5 -13.14, 24.38 -26.81, 35.39 -39.47 M0.61 0.53 C7.87 -7.81, 15.12 -16.15, 35.39 -39.47 M11.24 0.5 C22.87 -12.88, 34.5 -26.26, 40.77 -33.46 M11.24 0.5 C20.92 -10.63, 30.6 -21.76, 40.77 -33.46 M21.87 0.47 C27.15 -5.61, 32.43 -11.68, 46.81 -28.21 M21.87 0.47 C27.53 -6.04, 33.19 -12.55, 46.81 -28.21 M29.22 4.2 C37.26 -5.04, 45.3 -14.29, 50.87 -20.7 M29.22 4.2 C36.98 -4.72, 44.74 -13.64, 50.87 -20.7 M41.82 1.91 C44.72 -1.43, 47.63 -4.77, 54.94 -13.19 M41.82 1.91 C46.18 -3.1, 50.53 -8.11, 54.94 -13.19 M0 0 C0 0, 0 0, 0 0 M0 0 C0 0, 0 0, 0 0 M12.04 -0.13 C8.47 -3.23, 4.91 -6.33, 1.47 -9.32 M12.04 -0.13 C9.5 -2.34, 6.97 -4.54, 1.47 -9.32 M24.84 0.39 C17.15 -6.29, 9.46 -12.98, 2.95 -18.64 M24.84 0.39 C17.34 -6.13, 9.85 -12.64, 2.95 -18.64 M30.08 -5.65 C21.19 -13.38, 12.29 -21.11, 6.69 -25.99 M30.08 -5.65 C23.27 -11.57, 16.45 -17.5, 6.69 -25.99 M45.9 -2.5 C34.42 -12.48, 22.94 -22.46, 9.67 -33.99 M45.9 -2.5 C36.81 -10.4, 27.73 -18.3, 9.67 -33.99 M52.66 -7.23 C40.6 -17.71, 28.54 -28.19, 14.92 -40.03 M52.66 -7.23 C39.49 -18.67, 26.32 -30.12, 14.92 -40.03 M51.11 -19.17 C39.71 -29.08, 28.31 -38.99, 20.92 -45.41 M51.11 -19.17 C43.19 -26.05, 35.27 -32.94, 20.92 -45.41" stroke="#ced4da" stroke-width="1" fill="none"></path><path d="M0 0 C0.92 -4.85, 1.58 -21.76, 5.52 -29.07 C9.46 -36.38, 17.61 -43.34, 23.65 -43.87 C29.69 -44.4, 37.51 -39.05, 41.78 -32.24 C46.05 -25.43, 56.23 -8.39, 49.27 -3.02 C42.31 2.36, 8.21 -0.5, 0 0 M0 0 C0.92 -4.85, 1.58 -21.76, 5.52 -29.07 C9.46 -36.38, 17.61 -43.34, 23.65 -43.87 C29.69 -44.4, 37.51 -39.05, 41.78 -32.24 C46.05 -25.43, 56.23 -8.39, 49.27 -3.02 C42.31 2.36, 8.21 -0.5, 0 0" stroke="#000000" stroke-width="2" fill="none"></path></g></g><mask></mask><g stroke-linecap="round" transform="translate(22.453870836315673 147.8206100397341) rotate(0 12.612971703843186 11.036350240862816)"><path d="M2.98 3.91 C2.98 3.91, 2.98 3.91, 2.98 3.91 M2.98 3.91 C2.98 3.91, 2.98 3.91, 2.98 3.91 M2.45 16.71 C6 12.63, 9.54 8.56, 16.23 0.86 M2.45 16.71 C5.25 13.49, 8.05 10.27, 16.23 0.86 M8.49 21.96 C12.56 17.28, 16.63 12.6, 23.58 4.6 M8.49 21.96 C12.04 17.88, 15.58 13.8, 23.58 4.6 M4.36 19.37 C4.36 19.37, 4.36 19.37, 4.36 19.37 M4.36 19.37 C4.36 19.37, 4.36 19.37, 4.36 19.37 M17.91 20.55 C11.96 15.37, 6 10.19, 1.31 6.11 M17.91 20.55 C13.13 16.39, 8.35 12.23, 1.31 6.11 M24.67 15.82 C18.58 10.53, 12.49 5.23, 7.31 0.73 M24.67 15.82 C18.93 10.83, 13.19 5.84, 7.31 0.73" stroke="#ced4da" stroke-width="1" fill="none"></path><path d="M25.23 11.04 C25.23 11.68, 25.16 12.32, 25.03 12.95 C24.91 13.58, 24.71 14.21, 24.47 14.81 C24.22 15.41, 23.9 16, 23.54 16.55 C23.17 17.11, 22.74 17.64, 22.28 18.13 C21.81 18.62, 21.28 19.08, 20.72 19.49 C20.16 19.9, 19.55 20.27, 18.92 20.59 C18.29 20.91, 17.61 21.19, 16.93 21.41 C16.24 21.63, 15.52 21.79, 14.8 21.91 C14.08 22.02, 13.34 22.07, 12.61 22.07 C11.88 22.07, 11.14 22.02, 10.42 21.91 C9.7 21.79, 8.99 21.63, 8.3 21.41 C7.61 21.19, 6.94 20.91, 6.31 20.59 C5.67 20.27, 5.06 19.9, 4.51 19.49 C3.95 19.08, 3.42 18.62, 2.95 18.13 C2.48 17.64, 2.05 17.11, 1.69 16.55 C1.32 16, 1.01 15.41, 0.76 14.81 C0.51 14.21, 0.32 13.58, 0.19 12.95 C0.06 12.32, 0 11.68, 0 11.04 C0 10.4, 0.06 9.75, 0.19 9.12 C0.32 8.49, 0.51 7.86, 0.76 7.26 C1.01 6.66, 1.32 6.07, 1.69 5.52 C2.05 4.96, 2.48 4.43, 2.95 3.94 C3.42 3.45, 3.95 2.99, 4.51 2.58 C5.06 2.17, 5.67 1.8, 6.31 1.48 C6.94 1.16, 7.61 0.88, 8.3 0.67 C8.99 0.45, 9.7 0.28, 10.42 0.17 C11.14 0.06, 11.88 0, 12.61 0 C13.34 0, 14.08 0.06, 14.8 0.17 C15.52 0.28, 16.24 0.45, 16.93 0.67 C17.61 0.88, 18.29 1.16, 18.92 1.48 C19.55 1.8, 20.16 2.17, 20.72 2.58 C21.28 2.99, 21.81 3.45, 22.28 3.94 C22.74 4.43, 23.17 4.96, 23.54 5.52 C23.9 6.07, 24.22 6.66, 24.47 7.26 C24.71 7.86, 24.91 8.49, 25.03 9.12 C25.16 9.75, 25.19 10.72, 25.23 11.04 C25.26 11.36, 25.26 10.72, 25.23 11.04" stroke="#000000" stroke-width="2" fill="none"></path></g><g stroke-linecap="round"><g stroke-opacity="0.2" fill-opacity="0.2" transform="translate(84.2162824075059 171.3196541587837) rotate(0 54.08297417024704 -43.01826026438988)"><path d="M0 0 C32.69 -26, 65.38 -52.01, 108.17 -86.04 M0 0 C28.77 -22.89, 57.55 -45.77, 108.17 -86.04" stroke="#364fc7" stroke-width="4" fill="none"></path></g><g stroke-opacity="0.2" fill-opacity="0.2" transform="translate(84.2162824075059 171.3196541587837) rotate(0 54.08297417024704 -43.01826026438988)"><path d="M108.17 -86.04 L101.47 -72.61 L93.58 -82.54 L108.17 -86.04" stroke="none" stroke-width="0" fill="#364fc7" fill-rule="evenodd"></path><path d="M108.17 -86.04 C106.14 -81.98, 104.12 -77.92, 101.47 -72.61 M108.17 -86.04 C106.39 -82.47, 104.61 -78.89, 101.47 -72.61 M101.47 -72.61 C99.06 -75.64, 96.66 -78.67, 93.58 -82.54 M101.47 -72.61 C99.23 -75.43, 96.99 -78.25, 93.58 -82.54 M93.58 -82.54 C98.45 -83.7, 103.32 -84.87, 108.17 -86.04 M93.58 -82.54 C99.26 -83.9, 104.94 -85.26, 108.17 -86.04 M108.17 -86.04 C108.17 -86.04, 108.17 -86.04, 108.17 -86.04 M108.17 -86.04 C108.17 -86.04, 108.17 -86.04, 108.17 -86.04" stroke="#364fc7" stroke-width="4" fill="none"></path></g></g><mask></mask><g stroke-linecap="round"><g transform="translate(84.43811071673781 208.30336282573387) rotate(0 49.50263037777222 44.79904863572426)"><path d="M0 0 C37.73 34.14, 75.46 68.29, 99.01 89.6 M0 0 C34.69 31.39, 69.37 62.78, 99.01 89.6" stroke="#2b8a3e" stroke-width="4" fill="none"></path></g><g transform="translate(84.43811071673781 208.30336282573387) rotate(0 49.50263037777222 44.79904863572426)"><path d="M99.01 89.6 L84.67 85.18 L93.18 75.78 L99.01 89.6" stroke="none" stroke-width="0" fill="#2b8a3e" fill-rule="evenodd"></path><path d="M99.01 89.6 C93.54 87.91, 88.08 86.23, 84.67 85.18 M99.01 89.6 C93.98 88.05, 88.96 86.5, 84.67 85.18 M84.67 85.18 C87.33 82.24, 89.98 79.31, 93.18 75.78 M84.67 85.18 C86.38 83.29, 88.09 81.4, 93.18 75.78 M93.18 75.78 C94.45 78.8, 95.73 81.82, 99.01 89.6 M93.18 75.78 C94.36 78.57, 95.53 81.36, 99.01 89.6 M99.01 89.6 C99.01 89.6, 99.01 89.6, 99.01 89.6 M99.01 89.6 C99.01 89.6, 99.01 89.6, 99.01 89.6" stroke="#2b8a3e" stroke-width="4" fill="none"></path></g></g><mask></mask><g stroke-linecap="round"><g stroke-opacity="0.5" fill-opacity="0.5" transform="translate(474.92331915392197 35.98625135198108) rotate(0 38.23899262970474 41.572806269730336)" fill-rule="evenodd"><path d="M-1.19 -1.88 L-0.28 83.59 L2.32 85.45 L16.97 90.5 L41.99 90.7 L62 91.45 L75.77 84.52 L78.87 -2.16 L68.67 -5.68 L37.36 -8.1 L9.32 -5.82 L5.02 -4.94 L-1.35 -0.32" stroke="none" stroke-width="0" fill="#ced4da" fill-rule="evenodd"></path><path d="M-0.71 0.66 C-0.81 13.25, -0.39 61.62, -0.24 75.47 C-0.09 89.32, -0.45 81.67, 0.19 83.76 C0.84 85.85, 0.55 86.73, 3.64 88 C6.72 89.28, 12.64 90.75, 18.69 91.44 C24.74 92.13, 32.49 92.56, 39.96 92.14 C47.43 91.73, 57.5 90, 63.53 88.95 C69.56 87.9, 74.02 86.87, 76.13 85.84 C78.24 84.81, 76.08 84.43, 76.2 82.77 C76.32 81.12, 76.91 88.68, 76.85 75.9 C76.79 63.13, 75.94 18.81, 75.83 6.11 C75.72 -6.59, 76.97 1.2, 76.21 -0.29 C75.44 -1.78, 73.74 -1.92, 71.25 -2.83 C68.76 -3.74, 67.03 -4.81, 61.25 -5.76 C55.48 -6.72, 43.95 -8.34, 36.61 -8.55 C29.26 -8.76, 22.7 -7.85, 17.18 -7.01 C11.67 -6.17, 6.27 -4.75, 3.52 -3.5 C0.76 -2.25, 1.33 0.07, 0.66 0.49 C0 0.91, -0.24 -0.76, -0.48 -0.99 M1.12 -0.04 C0.78 12.17, -1.17 59.3, -1.44 73.49 C-1.71 87.67, -1.34 83.04, -0.48 85.08 C0.38 87.12, 0.68 84.53, 3.71 85.73 C6.74 86.93, 11.53 91.33, 17.71 92.27 C23.89 93.22, 33.03 91.66, 40.79 91.4 C48.56 91.14, 58.48 91.74, 64.28 90.71 C70.09 89.69, 73.36 86.24, 75.62 85.26 C77.89 84.29, 77.56 86.52, 77.87 84.85 C78.19 83.19, 77.89 88.24, 77.51 75.26 C77.13 62.29, 76.08 19.65, 75.61 6.99 C75.13 -5.68, 75.38 0.96, 74.67 -0.71 C73.96 -2.39, 73.69 -2.21, 71.35 -3.05 C69.01 -3.89, 66.44 -4.7, 60.64 -5.76 C54.84 -6.82, 43.73 -9.42, 36.56 -9.43 C29.39 -9.44, 23.34 -6.93, 17.64 -5.84 C11.95 -4.75, 5.36 -4.06, 2.38 -2.89 C-0.61 -1.73, -0.11 0.87, -0.25 1.14 C-0.39 1.42, 1.61 -1.15, 1.54 -1.25" stroke="#364fc7" stroke-width="1" fill="none"></path></g></g><mask></mask><g stroke-linecap="round"><g stroke-opacity="0.5" fill-opacity="0.5" transform="translate(475.44724859219696 93.11253500971134) rotate(0 39.19158776407096 4.082525585903113)"><path d="M-0.49 0.27 C0 0.73, 0.39 2.32, 2.21 3.41 C4.04 4.51, 6.94 5.91, 10.47 6.82 C14 7.73, 18.54 8.54, 23.4 8.86 C28.27 9.18, 33.17 9.22, 39.65 8.74 C46.13 8.27, 56.31 7.03, 62.29 6.01 C68.27 4.98, 73.14 3.73, 75.52 2.6 C77.9 1.47, 76.32 -0.21, 76.56 -0.77 M1.45 -0.64 C1.86 -0.03, 0.01 4.05, 1.36 4.95 C2.7 5.85, 5.73 4.46, 9.53 4.76 C13.32 5.06, 18.85 5.96, 24.14 6.74 C29.43 7.52, 34.65 9.21, 41.26 9.44 C47.87 9.66, 58.52 8.87, 63.81 8.07 C69.1 7.28, 70.51 6.24, 73.02 4.68 C75.53 3.12, 77.9 -0.75, 78.87 -1.31" stroke="#364fc7" stroke-width="1" fill="none"></path></g></g><mask></mask><g stroke-linecap="round"><g stroke-opacity="0.5" fill-opacity="0.5" transform="translate(474.41539126969315 64.14847967448804) rotate(0 37.893270020680234 3.654684139342578)"><path d="M0.18 0 C0.54 0.62, -0.23 2.77, 1.7 3.96 C3.63 5.14, 8.46 6.35, 11.74 7.12 C15.01 7.89, 16.5 8.59, 21.37 8.59 C26.24 8.58, 34.01 7.44, 40.96 7.11 C47.91 6.78, 57.57 7.36, 63.06 6.62 C68.56 5.88, 71.6 3.9, 73.92 2.67 C76.24 1.44, 76.6 -0.2, 76.97 -0.75 M-1.18 -1.04 C-0.96 -0.81, -1.53 1.07, 0.58 2.12 C2.68 3.16, 8.05 4.52, 11.46 5.22 C14.87 5.93, 16.35 6.04, 21.04 6.33 C25.73 6.62, 32.88 7.11, 39.6 6.95 C46.31 6.78, 55.56 5.7, 61.33 5.34 C67.1 4.98, 71.83 5.89, 74.24 4.79 C76.66 3.69, 75.28 -0.13, 75.84 -1.28" stroke="#364fc7" stroke-width="1" fill="none"></path></g></g><mask></mask><g stroke-opacity="0.5" fill-opacity="0.5" stroke-linecap="round" transform="translate(473.3574422876111 28.85398272629982) rotate(0 38.29876800932743 7.745637696424012)"><path d="M26.4 1.34 C33.54 0.64, 43.75 -0.99, 51.29 -0.49 C58.83 0, 67.56 2.75, 71.63 4.32 C75.71 5.9, 77.21 7.27, 75.74 8.98 C74.26 10.69, 69.27 13.62, 62.8 14.59 C56.32 15.56, 45.01 15.03, 36.88 14.83 C28.76 14.62, 20.2 14.21, 14.03 13.37 C7.86 12.53, 1.16 11.41, -0.14 9.77 C-1.43 8.13, 1.64 5.09, 6.26 3.51 C10.88 1.94, 23.69 0.91, 27.61 0.33 C31.53 -0.25, 29.62 -0.21, 29.8 0.04 M23.11 0.39 C30.36 0.03, 43.06 1.32, 51.1 1.7 C59.13 2.08, 67.16 1.71, 71.34 2.65 C75.52 3.58, 77.26 5.35, 76.16 7.31 C75.06 9.28, 70.92 13.31, 64.74 14.43 C58.56 15.56, 47.29 14.36, 39.09 14.06 C30.88 13.76, 21.69 13.65, 15.52 12.64 C9.35 11.63, 3.95 9.44, 2.07 8.01 C0.19 6.58, 0.82 5.51, 4.25 4.07 C7.68 2.62, 19.35 -0.18, 22.66 -0.64 C25.98 -1.11, 23.8 0.87, 24.13 1.3" stroke="none" stroke-width="0" fill="#fff"></path><path d="M53.31 0.75 C60.44 1.55, 67.65 3.61, 71.33 4.96 C75 6.32, 77 7.43, 75.35 8.89 C73.69 10.34, 67.89 12.75, 61.41 13.71 C54.93 14.66, 44.65 14.69, 36.47 14.62 C28.3 14.55, 18.38 14.28, 12.36 13.27 C6.34 12.26, 1.26 10.16, 0.35 8.58 C-0.56 6.99, 2.46 5.22, 6.89 3.75 C11.33 2.29, 18.45 0.35, 26.96 -0.23 C35.47 -0.81, 51.97 -0.16, 57.97 0.25 C63.96 0.66, 63.23 1.86, 62.94 2.22 M45.87 -0.91 C53.53 -0.69, 62.82 0.14, 67.92 1.66 C73.03 3.17, 76.6 6.34, 76.5 8.17 C76.39 10, 72.96 11.44, 67.29 12.64 C61.63 13.84, 50.67 15.2, 42.49 15.36 C34.32 15.52, 25.2 14.31, 18.24 13.6 C11.27 12.89, 3.37 12.64, 0.72 11.11 C-1.94 9.58, -1.29 6.28, 2.29 4.45 C5.88 2.61, 14.67 0.86, 22.24 0.09 C29.81 -0.69, 43.64 -0.2, 47.71 -0.18 C51.78 -0.16, 47.01 0.11, 46.66 0.22" stroke="#364fc7" stroke-width="1" fill="none"></path></g><g stroke-opacity="0.5" fill-opacity="0.5" stroke-linecap="round" transform="translate(509.8494293928336 53.330650406203404) rotate(0 5.61305157708091 6.091879242227776)"><path d="M3.89 -0.85 C4.85 -1.28, 7.05 0.33, 8.17 1.07 C9.29 1.81, 10.1 2.29, 10.61 3.58 C11.11 4.87, 11.68 7.63, 11.19 8.8 C10.69 9.96, 8.58 10.06, 7.64 10.58 C6.71 11.09, 6.69 11.81, 5.55 11.88 C4.41 11.94, 1.59 11.93, 0.82 10.96 C0.04 9.99, 0.86 7.48, 0.91 6.05 C0.96 4.63, 0.47 3.44, 1.12 2.39 C1.78 1.34, 4.12 -0.01, 4.84 -0.26 C5.56 -0.51, 5.54 0.78, 5.43 0.91 M5.52 1.46 C6.84 1, 8 -0.41, 8.87 -0.26 C9.74 -0.12, 10.27 0.79, 10.73 2.32 C11.2 3.85, 12.15 7.66, 11.68 8.92 C11.21 10.17, 8.95 9.5, 7.93 9.83 C6.9 10.16, 6.42 11.07, 5.54 10.9 C4.66 10.73, 3.6 9.58, 2.65 8.8 C1.7 8.02, 0.26 7.52, -0.18 6.25 C-0.62 4.97, -0.76 2.05, 0.01 1.13 C0.78 0.21, 3.81 0.76, 4.44 0.71 C5.08 0.67, 3.59 1.01, 3.83 0.86" stroke="none" stroke-width="0" fill="#868e96"></path><path d="M2.25 1.45 C3.1 0.71, 5.31 -0.48, 6.58 -0.33 C7.84 -0.19, 9.1 1.33, 9.83 2.33 C10.55 3.32, 10.97 4.33, 10.92 5.63 C10.86 6.93, 10.28 9.05, 9.5 10.1 C8.72 11.15, 7.23 11.74, 6.23 11.94 C5.22 12.14, 4.41 12.09, 3.46 11.3 C2.51 10.51, 1.11 8.63, 0.53 7.2 C-0.05 5.77, -0.7 3.88, -0.04 2.72 C0.63 1.57, 3.51 0.6, 4.51 0.27 C5.51 -0.06, 5.86 0.74, 5.98 0.74 M2.48 -0.9 C3.64 -1.27, 5.7 -0.25, 7.15 0.3 C8.6 0.84, 10.62 1.28, 11.2 2.35 C11.77 3.42, 10.77 5.46, 10.6 6.71 C10.43 7.96, 11.12 8.77, 10.18 9.86 C9.24 10.94, 6.4 13.11, 4.97 13.25 C3.53 13.39, 2.14 11.78, 1.57 10.7 C1.01 9.61, 1.6 8.03, 1.59 6.75 C1.58 5.47, 1.19 4.07, 1.5 3 C1.8 1.94, 3.14 0.86, 3.4 0.38 C3.66 -0.1, 2.81 0.24, 3.05 0.14" stroke="#364fc7" stroke-width="1" fill="none"></path></g><g stroke-opacity="0.5" fill-opacity="0.5" stroke-linecap="round" transform="translate(510.2005711767672 79.54726469326852) rotate(0 5.61305157708091 6.091879242227776)"><path d="M8.02 0.99 C9.13 1.6, 10.01 2.14, 10.54 3.42 C11.08 4.69, 11.69 7.45, 11.23 8.63 C10.77 9.8, 8.7 9.93, 7.78 10.48 C6.86 11.02, 6.86 11.8, 5.72 11.9 C4.57 12, 1.73 12.04, 0.93 11.09 C0.13 10.15, 0.9 7.66, 0.92 6.23 C0.93 4.81, 0.48 3.59, 1.03 2.53 C1.57 1.47, 2.85 -0.03, 4.16 -0.12 C5.48 -0.22, 8.14 1.64, 8.92 1.98 C9.7 2.31, 8.97 2.01, 8.85 1.88 M5.89 -0.96 C6.83 -1.59, 7.88 -1.39, 8.86 -0.3 C9.85 0.8, 11.61 4.33, 11.8 5.61 C11.98 6.89, 10.51 6.57, 9.97 7.37 C9.43 8.18, 9.35 9.92, 8.56 10.45 C7.77 10.98, 6.53 10.74, 5.23 10.56 C3.93 10.39, 1.82 10.46, 0.76 9.4 C-0.31 8.34, -1.31 5.38, -1.14 4.19 C-0.98 3, 0.78 2.85, 1.75 2.26 C2.71 1.66, 3.82 1.13, 4.62 0.62 C5.43 0.11, 6.24 -0.73, 6.59 -0.79" stroke="none" stroke-width="0" fill="#868e96"></path><path d="M5.73 -0.49 C6.97 -0.62, 8.41 0.76, 9.27 1.62 C10.13 2.48, 10.78 3.41, 10.91 4.7 C11.04 5.99, 10.68 8.21, 10.04 9.38 C9.4 10.56, 8.04 11.37, 7.07 11.77 C6.1 12.16, 5.25 12.38, 4.21 11.76 C3.17 11.14, 1.59 9.43, 0.83 8.07 C0.08 6.71, -0.56 4.73, -0.32 3.6 C-0.08 2.47, 1.13 1.76, 2.27 1.28 C3.41 0.8, 5.61 0.92, 6.53 0.72 C7.46 0.51, 7.94 0.14, 7.82 0.04 M3.53 0.46 C4.87 0.11, 7.28 -0.45, 8.33 -0.05 C9.38 0.36, 9.24 1.8, 9.83 2.87 C10.41 3.95, 12.11 4.9, 11.86 6.38 C11.6 7.86, 9.45 10.84, 8.31 11.76 C7.17 12.68, 5.82 12.17, 5.02 11.89 C4.22 11.61, 4.19 10.9, 3.52 10.07 C2.86 9.23, 1.48 8.07, 1.01 6.89 C0.55 5.72, 0.36 4.19, 0.73 3.02 C1.1 1.86, 2.53 0.56, 3.23 -0.07 C3.92 -0.7, 4.99 -0.9, 4.92 -0.77" stroke="#364fc7" stroke-width="1" fill="none"></path></g><g stroke-opacity="0.5" fill-opacity="0.5" stroke-linecap="round" transform="translate(510.8494293928336 108.31599126457468) rotate(357.5021844865888 5.61305157708091 6.091879242227776)"><path d="M2.74 0.53 C3.76 -0.04, 5.92 0.79, 6.97 0.98 C8.02 1.16, 8.22 0.8, 9.04 1.64 C9.87 2.48, 11.89 4.47, 11.91 6.01 C11.94 7.55, 9.93 9.93, 9.17 10.91 C8.4 11.88, 8.43 11.77, 7.34 11.84 C6.25 11.9, 3.81 11.99, 2.62 11.3 C1.43 10.62, 0.57 8.82, 0.19 7.71 C-0.18 6.6, -0.05 5.87, 0.37 4.64 C0.79 3.41, 2.16 1.12, 2.71 0.33 C3.26 -0.47, 3.52 -0.36, 3.66 -0.13 M7.94 -0.9 C9.02 -0.12, 11.04 3.3, 11.44 4.5 C11.85 5.69, 10.68 5.38, 10.36 6.28 C10.04 7.17, 10.18 9.13, 9.51 9.88 C8.83 10.63, 7.64 10.71, 6.3 10.79 C4.95 10.86, 2.68 11.21, 1.44 10.31 C0.2 9.41, -1.09 6.56, -1.16 5.37 C-1.23 4.17, 0.25 3.91, 1.04 3.15 C1.82 2.39, 2.17 1.39, 3.56 0.81 C4.94 0.23, 8.37 -0.26, 9.34 -0.33 C10.31 -0.41, 9.56 0.03, 9.38 0.36" stroke="none" stroke-width="0" fill="#868e96"></path><path d="M7.54 0.34 C8.63 0.7, 9.78 1.35, 10.34 2.51 C10.9 3.67, 11.13 5.93, 10.9 7.31 C10.67 8.69, 9.74 9.94, 8.96 10.78 C8.18 11.61, 7.39 12.46, 6.24 12.32 C5.09 12.18, 3.18 10.99, 2.06 9.92 C0.94 8.84, -0.27 7.04, -0.48 5.87 C-0.69 4.7, 0.09 3.75, 0.8 2.91 C1.51 2.07, 2.5 1.29, 3.79 0.84 C5.08 0.39, 7.93 0.33, 8.54 0.23 C9.16 0.13, 7.7 0.19, 7.46 0.25 M3.98 0.29 C4.88 -0.36, 5.16 -0.16, 6.3 0.09 C7.43 0.34, 10.14 0.55, 10.8 1.78 C11.45 3.02, 10.52 6.14, 10.22 7.5 C9.93 8.86, 9.42 9.31, 9.01 9.96 C8.59 10.6, 8.64 11.23, 7.72 11.37 C6.79 11.51, 4.7 11.43, 3.45 10.82 C2.21 10.21, 0.83 9, 0.27 7.73 C-0.29 6.47, -0.59 4.61, 0.09 3.22 C0.77 1.82, 4.03 -0.18, 4.37 -0.63 C4.7 -1.08, 2.39 0.02, 2.11 0.53" stroke="#364fc7" stroke-width="1" fill="none"></path></g><g stroke-opacity="0.5" fill-opacity="0.5" transform="translate(472.2454836299753 129.9061328634175) rotate(0 40.82733917236328 10.199999999999989)"><text x="40.82733917236328" y="0" font-family="Virgil, Segoe UI Emoji" font-size="17.4778970902999px" fill="#364fc7" text-anchor="middle" style="white-space: pre;" direction="ltr" dominant-baseline="text-before-edge">DB - v1.0</text></g><g stroke-linecap="round"><g transform="translate(475.1334144174991 257.910335101701) rotate(0 38.34630667796773 41.6619194543718)" fill-rule="evenodd"><path d="M1.21 -0.5 L-0.17 83.36 L0.63 85.31 L19.48 88.87 L39.71 91.25 L62.46 91.57 L78.52 83.86 L74.97 -1.24 L68.21 -5.58 L36.92 -7.48 L11.52 -7.11 L1.97 -1.84 L-0.5 -1.29" stroke="none" stroke-width="0" fill="#ced4da" fill-rule="evenodd"></path><path d="M-0.61 -0.38 C-0.77 12.17, 0.12 60.86, 0.05 74.85 C-0.02 88.84, -1.64 81.46, -1.03 83.56 C-0.41 85.67, 0.64 86.1, 3.73 87.47 C6.81 88.83, 11.25 91.01, 17.51 91.75 C23.76 92.5, 33.72 92.33, 41.23 91.94 C48.75 91.54, 57.13 90.36, 62.6 89.4 C68.07 88.43, 71.65 87.22, 74.05 86.14 C76.46 85.05, 76.42 84.43, 77.03 82.87 C77.65 81.32, 77.86 89.72, 77.75 76.79 C77.65 63.87, 76.73 18.32, 76.39 5.32 C76.05 -7.67, 76.64 0.55, 75.71 -1.19 C74.77 -2.93, 73.23 -4.3, 70.79 -5.12 C68.34 -5.94, 66.49 -5.58, 61.03 -6.09 C55.58 -6.61, 45.25 -8.09, 38.05 -8.23 C30.84 -8.37, 23.5 -7.66, 17.81 -6.91 C12.11 -6.16, 6.96 -5.03, 3.86 -3.74 C0.75 -2.45, -0.1 0.23, -0.84 0.82 C-1.57 1.4, -0.89 0, -0.56 -0.24 M1.27 -1.62 C0.85 11.14, -1.01 61.8, -1 76.2 C-0.99 90.6, 0.52 82.71, 1.32 84.77 C2.13 86.84, 0.8 87.86, 3.84 88.58 C6.88 89.3, 13.08 88.68, 19.56 89.09 C26.05 89.51, 35.52 90.71, 42.74 91.09 C49.96 91.47, 57.31 92.28, 62.87 91.39 C68.43 90.49, 74.01 87.39, 76.11 85.72 C78.21 84.04, 75.62 82.86, 75.48 81.34 C75.33 79.83, 75.07 89.22, 75.23 76.62 C75.4 64.03, 76.07 18.91, 76.46 5.79 C76.85 -7.33, 78.53 -0.63, 77.56 -2.07 C76.59 -3.52, 73.52 -2.18, 70.64 -2.88 C67.77 -3.57, 65.62 -5.26, 60.31 -6.27 C54.99 -7.28, 45.71 -9.04, 38.75 -8.94 C31.8 -8.85, 24.57 -6.63, 18.59 -5.69 C12.62 -4.74, 5.81 -4.49, 2.9 -3.27 C-0.02 -2.05, 1.37 1.11, 1.12 1.64 C0.87 2.16, 1.84 0.01, 1.41 -0.1" stroke="#2b8a3e" stroke-width="1" fill="none"></path></g></g><mask></mask><g stroke-linecap="round"><g transform="translate(475.6573438557741 315.03661875943124) rotate(0 37.81206863050318 3.962643821582901)"><path d="M-0.2 -0.35 C0.07 0.24, -0.8 2.11, 1 3.21 C2.79 4.32, 7.02 5.29, 10.56 6.28 C14.09 7.28, 17.16 8.8, 22.22 9.17 C27.28 9.55, 34.4 8.99, 40.92 8.54 C47.45 8.08, 55.94 7.39, 61.36 6.45 C66.78 5.51, 70.77 4.08, 73.44 2.9 C76.11 1.71, 76.65 -0.21, 77.39 -0.67 M-1.76 -1.59 C-1.08 -0.77, 1.26 3.11, 3.16 4.64 C5.07 6.18, 6.47 7.17, 9.66 7.6 C12.86 8.03, 17.35 6.97, 22.33 7.23 C27.31 7.48, 32.87 8.87, 39.54 9.12 C46.22 9.38, 56.74 10.02, 62.4 8.75 C68.06 7.47, 71.16 3.12, 73.51 1.47 C75.85 -0.18, 75.97 -0.75, 76.48 -1.16" stroke="#2b8a3e" stroke-width="1" fill="none"></path></g></g><mask></mask><g stroke-linecap="round"><g transform="translate(474.6254865332703 286.07256342420794) rotate(0 38.41953439579311 4.182588357943416)"><path d="M-1.04 -0.2 C-0.71 0.43, -0.14 2.15, 1.79 3.42 C3.72 4.69, 7.08 6.61, 10.55 7.44 C14.03 8.26, 17.73 8.36, 22.64 8.38 C27.56 8.4, 33.64 7.8, 40.03 7.55 C46.42 7.31, 55.2 7.71, 60.98 6.91 C66.77 6.12, 71.94 3.9, 74.75 2.77 C77.57 1.64, 77.55 0.84, 77.88 0.14 M0.62 -1.35 C0.79 -0.49, -0.79 3.78, 0.71 4.96 C2.22 6.14, 5.94 4.92, 9.65 5.71 C13.37 6.49, 17.62 9.36, 22.98 9.68 C28.35 10, 35.37 8.27, 41.84 7.62 C48.32 6.97, 56.21 6.85, 61.82 5.79 C67.43 4.74, 72.94 2.23, 75.51 1.28 C78.08 0.33, 76.73 0.23, 77.22 0.08" stroke="#2b8a3e" stroke-width="1" fill="none"></path></g></g><mask></mask><g stroke-linecap="round" transform="translate(473.56753755118825 250.77806647601972) rotate(0 38.29876800932743 7.745637696424012)"><path d="M34.38 -0.22 C42.15 -0.64, 52.25 0.36, 58.98 1.26 C65.71 2.15, 72.35 3.43, 74.78 5.15 C77.22 6.86, 76.88 9.97, 73.59 11.53 C70.3 13.09, 62.41 13.96, 55.05 14.51 C47.69 15.05, 37.31 15.04, 29.41 14.81 C21.52 14.59, 12.43 14.32, 7.68 13.15 C2.93 11.98, 0.62 9.58, 0.93 7.79 C1.24 6, 3.3 3.65, 9.53 2.43 C15.77 1.22, 32.32 0.92, 38.34 0.49 C44.36 0.06, 45.66 -0.29, 45.65 -0.17 M22.92 0.57 C29.48 -0.12, 40.18 -1.48, 48.07 -0.89 C55.97 -0.31, 65.68 2.37, 70.28 4.06 C74.89 5.75, 76.43 7.85, 75.7 9.25 C74.98 10.65, 71.55 11.47, 65.92 12.46 C60.3 13.44, 50.3 14.8, 41.97 15.14 C33.64 15.48, 22.86 15.61, 15.94 14.51 C9.03 13.4, 2.23 10.17, 0.48 8.51 C-1.27 6.86, 1.61 6.14, 5.44 4.58 C9.26 3.03, 20.7 -0.25, 23.44 -0.82 C26.19 -1.38, 21.56 0.86, 21.91 1.19" stroke="none" stroke-width="0" fill="#fff"></path><path d="M34.62 -0.55 C42.08 -0.99, 52.49 -0.64, 59.22 0.41 C65.95 1.47, 72.69 3.95, 74.99 5.8 C77.3 7.64, 76.29 10.07, 73.05 11.49 C69.8 12.91, 62.99 13.78, 55.52 14.31 C48.04 14.84, 36.35 15.07, 28.19 14.64 C20.03 14.2, 11.4 12.95, 6.56 11.7 C1.72 10.46, -1.55 8.62, -0.84 7.16 C-0.14 5.71, 4.15 4.22, 10.8 2.96 C17.44 1.71, 33.48 -0.02, 39.02 -0.39 C44.56 -0.77, 44.09 0.63, 44.04 0.71 M53.19 -0.28 C60.93 0.17, 68.77 2.01, 72.56 3.57 C76.36 5.12, 77.69 7.43, 75.98 9.04 C74.26 10.65, 68.39 12.39, 62.26 13.25 C56.13 14.11, 47.52 14.18, 39.21 14.2 C30.89 14.22, 18.93 14.06, 12.38 13.39 C5.82 12.72, 0.82 11.92, -0.13 10.19 C-1.08 8.46, 2.65 4.65, 6.69 3.01 C10.72 1.38, 16.47 0.83, 24.07 0.36 C31.68 -0.11, 47.8 0.09, 52.32 0.2 C56.84 0.3, 51.29 1.05, 51.19 0.98" stroke="#2b8a3e" stroke-width="1" fill="none"></path></g><g stroke-linecap="round" transform="translate(510.05952465641076 275.2547341559233) rotate(0 5.61305157708091 6.091879242227776)"><path d="M7.67 0.47 C8.59 0.86, 9.91 1.65, 10.48 2.93 C11.05 4.21, 11.45 6.84, 11.08 8.15 C10.72 9.46, 9.31 10.18, 8.29 10.77 C7.28 11.36, 6.09 11.6, 4.99 11.69 C3.9 11.79, 2.41 12.06, 1.73 11.33 C1.05 10.61, 1.19 8.78, 0.94 7.35 C0.69 5.93, -0.12 3.9, 0.2 2.81 C0.53 1.71, 1.47 1.22, 2.89 0.78 C4.31 0.34, 7.95 0.07, 8.7 0.17 C9.45 0.27, 7.68 1.08, 7.39 1.38 M1.96 -0.59 C2.98 -1.1, 5.7 0.14, 6.95 0.75 C8.21 1.37, 8.58 2.3, 9.5 3.1 C10.43 3.91, 12.27 4.43, 12.53 5.58 C12.79 6.72, 12.04 8.79, 11.07 9.97 C10.1 11.16, 8.23 12.67, 6.71 12.69 C5.18 12.72, 2.78 10.89, 1.93 10.13 C1.08 9.36, 1.79 9.42, 1.6 8.1 C1.42 6.77, 0.81 3.36, 0.82 2.18 C0.83 1.01, 1.1 1.3, 1.64 1.04 C2.18 0.78, 3.86 0.72, 4.07 0.6" stroke="none" stroke-width="0" fill="#868e96"></path><path d="M5.51 -0.9 C6.58 -0.75, 8.49 0.75, 9.4 1.91 C10.31 3.07, 10.75 4.86, 10.97 6.06 C11.18 7.27, 11.48 8.24, 10.7 9.12 C9.93 10, 7.67 11.01, 6.32 11.33 C4.96 11.66, 3.69 11.49, 2.57 11.05 C1.46 10.62, 0.02 9.68, -0.38 8.71 C-0.77 7.73, -0.21 6.52, 0.2 5.2 C0.61 3.87, 0.92 1.5, 2.08 0.76 C3.25 0.01, 6.22 0.81, 7.19 0.72 C8.16 0.64, 7.78 0.29, 7.88 0.23 M5.97 -0.34 C6.86 -0.44, 8.03 0.22, 8.81 0.94 C9.59 1.65, 10.12 2.9, 10.65 3.97 C11.19 5.03, 12.62 6.08, 12.02 7.31 C11.41 8.54, 8.44 10.37, 7.03 11.34 C5.62 12.32, 4.35 13.58, 3.58 13.17 C2.81 12.75, 3.26 10.12, 2.41 8.85 C1.57 7.58, -1.43 6.77, -1.47 5.55 C-1.51 4.33, 1.12 2.4, 2.16 1.53 C3.2 0.67, 4.06 0.84, 4.76 0.37 C5.46 -0.11, 6.46 -1.52, 6.35 -1.3" stroke="#2b8a3e" stroke-width="1" fill="none"></path></g><g stroke-linecap="round" transform="translate(510.41066644034436 301.47134844298796) rotate(0 5.61305157708091 6.091879242227776)"><path d="M4.73 -0.24 C5.86 -0.37, 7.65 0.99, 8.56 1.71 C9.47 2.43, 9.87 3.05, 10.18 4.08 C10.48 5.11, 10.74 6.53, 10.4 7.88 C10.06 9.23, 8.97 11.42, 8.13 12.18 C7.29 12.95, 6.6 12.87, 5.34 12.47 C4.07 12.07, 1.6 10.81, 0.54 9.79 C-0.51 8.78, -1.24 7.74, -0.99 6.37 C-0.73 5, 0.97 2.55, 2.07 1.58 C3.17 0.61, 4.73 0.55, 5.61 0.56 C6.49 0.56, 7.35 1.6, 7.34 1.6 M5.5 0.58 C6.73 0.78, 7.33 1.38, 8.49 1.95 C9.65 2.52, 11.86 2.86, 12.44 3.99 C13.01 5.11, 12.66 7.3, 11.94 8.69 C11.22 10.08, 9.58 11.96, 8.13 12.32 C6.68 12.67, 4.24 11.29, 3.25 10.83 C2.26 10.37, 2.67 10.74, 2.19 9.56 C1.72 8.37, 0.7 4.98, 0.41 3.71 C0.11 2.44, -0.58 2.57, 0.42 1.93 C1.41 1.29, 5.61 0.31, 6.38 -0.13 C7.15 -0.57, 4.96 -1.07, 5.03 -0.72" stroke="none" stroke-width="0" fill="#868e96"></path><path d="M3.84 0.45 C4.95 0.26, 6.36 0.66, 7.57 1.07 C8.77 1.48, 10.61 1.96, 11.06 2.92 C11.51 3.88, 10.73 5.59, 10.26 6.83 C9.8 8.07, 9.24 9.47, 8.26 10.36 C7.28 11.24, 5.46 12.01, 4.39 12.14 C3.32 12.27, 2.59 12.1, 1.82 11.16 C1.06 10.21, -0.04 7.77, -0.21 6.45 C-0.37 5.13, 0.07 4.43, 0.86 3.25 C1.64 2.07, 3.55 -0.02, 4.53 -0.62 C5.5 -1.22, 6.64 -0.71, 6.69 -0.34 M4.22 0.07 C5.09 -0.34, 6.35 -0.26, 7.65 0.1 C8.95 0.47, 11.61 1.03, 12 2.26 C12.4 3.48, 10.65 5.79, 10.01 7.46 C9.37 9.13, 8.76 11.62, 8.16 12.27 C7.57 12.92, 7.79 11.7, 6.46 11.37 C5.12 11.04, 1.12 11.14, 0.14 10.3 C-0.84 9.45, 0.48 7.52, 0.58 6.29 C0.68 5.06, -0.08 4.17, 0.73 2.91 C1.55 1.65, 5.06 -0.99, 5.47 -1.25 C5.88 -1.51, 3.47 1.17, 3.22 1.35" stroke="#2b8a3e" stroke-width="1" fill="none"></path></g><g stroke-linecap="round" transform="translate(511.05952465641076 330.2400750142946) rotate(357.5021844865888 5.61305157708091 6.091879242227776)"><path d="M5.66 0.79 C6.69 0.76, 7.65 0.71, 8.5 1.35 C9.34 1.99, 10.43 3.19, 10.73 4.62 C11.03 6.05, 10.71 8.64, 10.31 9.92 C9.92 11.19, 9.58 11.96, 8.35 12.26 C7.13 12.56, 4.42 12.19, 2.98 11.74 C1.54 11.29, 0.1 10.76, -0.27 9.56 C-0.65 8.36, 0.5 5.8, 0.73 4.52 C0.96 3.23, 0.3 2.46, 1.11 1.85 C1.91 1.24, 4.71 1.13, 5.54 0.86 C6.37 0.58, 5.96 0.36, 6.08 0.19 M2.76 1.1 C4 0.29, 7.06 -0.88, 8.55 -0.66 C10.04 -0.44, 11.19 1.08, 11.72 2.42 C12.24 3.75, 12.15 6.17, 11.68 7.35 C11.21 8.54, 9.63 8.65, 8.9 9.5 C8.17 10.36, 8.36 12.48, 7.31 12.48 C6.26 12.48, 4.04 10.28, 2.6 9.52 C1.15 8.76, -1.16 8.96, -1.35 7.9 C-1.53 6.85, 0.77 4.59, 1.48 3.22 C2.2 1.84, 2.39 -0.14, 2.93 -0.34 C3.46 -0.55, 4.61 2.01, 4.68 2" stroke="none" stroke-width="0" fill="#868e96"></path><path d="M2.91 1.21 C4 0.5, 6.34 -0.33, 7.41 -0.22 C8.47 -0.11, 8.81 0.86, 9.32 1.88 C9.84 2.9, 10.58 4.51, 10.48 5.91 C10.38 7.31, 9.43 9.14, 8.72 10.28 C8.02 11.42, 7.33 12.67, 6.25 12.75 C5.16 12.83, 3.25 11.51, 2.24 10.76 C1.23 10.01, 0.54 9.55, 0.18 8.25 C-0.19 6.95, -0.63 4.34, 0.04 2.97 C0.72 1.59, 3.61 0.24, 4.22 -0.02 C4.83 -0.29, 3.88 1.1, 3.71 1.37 M4.55 -0.44 C5.89 -0.86, 9.05 -1.06, 9.95 -0.32 C10.85 0.43, 9.93 2.4, 9.96 4.05 C10 5.71, 10.21 8.52, 10.14 9.63 C10.07 10.74, 10.75 10.33, 9.54 10.72 C8.33 11.11, 4.18 12.16, 2.88 11.95 C1.57 11.74, 2.23 10.44, 1.7 9.47 C1.17 8.5, -0.47 7.62, -0.29 6.13 C-0.11 4.63, 2.08 1.34, 2.78 0.5 C3.48 -0.34, 3.62 1.3, 3.92 1.08 C4.21 0.87, 4.18 -0.95, 4.55 -0.8" stroke="#2b8a3e" stroke-width="1" fill="none"></path></g><g transform="translate(468.6034441889626 351.8302166131374) rotate(0 44.679473876953125 10.199999999999989)"><text x="44.679473876953125" y="0" font-family="Virgil, Segoe UI Emoji" font-size="17.4778970902999px" fill="#2b8a3e" text-anchor="middle" style="white-space: pre;" direction="ltr" dominant-baseline="text-before-edge">DB - v2.0</text></g><g mask="url(#mask-ap_2y9HCcpZGW4QwugnV5)" stroke-linecap="round"><g stroke-opacity="0" fill-opacity="0" transform="translate(512.3040396136923 147.6819276924931) rotate(0 0.329165971153202 42.09715696777971)"><path d="M-0.87 -1.32 C1.91 21.03, 0.59 45.85, 0.93 85.52 M-0.24 -0.32 C1.42 22.33, 0.42 46.22, 1.53 85.09" stroke="#000000" stroke-width="2" fill="none"></path></g><g stroke-opacity="0" fill-opacity="0" transform="translate(512.3040396136923 147.6819276924931) rotate(0 0.329165971153202 42.09715696777971)"><path d="M0.9 83.97 L-3.39 73.47 L7.31 69.45 L2.19 85.17" stroke="none" stroke-width="0" fill="#000000" fill-rule="evenodd"></path><path d="M0.88 84.1 C0.9 80.9, -2.19 79.53, -5.82 72.52 M1.35 84.85 C0.36 80.73, -2.6 77.55, -5.37 72.2 M-5.12 72.08 C-0.35 71.39, 5.14 72.64, 6.4 70.54 M-4.56 72.18 C-0.55 71.58, 4.32 71.47, 7.43 71.37 M6.99 70.65 C5.02 77.64, 4.23 82.39, 0.55 85.01 M7.29 70.67 C6.82 73.56, 5.85 76.24, 1.44 85.06 M1.53 85.09 C1.53 85.09, 1.53 85.09, 1.53 85.09 M1.53 85.09 C1.53 85.09, 1.53 85.09, 1.53 85.09" stroke="#000000" stroke-width="2" fill="none"></path></g></g><mask id="mask-ap_2y9HCcpZGW4QwugnV5"><rect x="0" y="0" fill="#fff" width="614.2617965181394" height="331.99049371478134"></rect><rect x="492.82293424023237" y="177.83621070363722" fill="#000" width="40.91996765136719" height="24" opacity="1"></rect></mask><g stroke-opacity="0" fill-opacity="0" transform="translate(492.82293424023237 177.83621070363722) rotate(0 19.81027134461317 11.942873956635594)"><text x="20.459983825683594" y="0" font-family="Virgil, Segoe UI Emoji" font-size="20px" fill="#000000" text-anchor="middle" style="white-space: pre;" direction="ltr" dominant-baseline="text-before-edge">Sync</text></g><g transform="translate(289.2523088354942 36.04364539027131) rotate(0 4.6875 9.600000000000023)"><text x="0" y="0" font-family="Cascadia, Segoe UI Emoji" font-size="16px" fill="#2b8a3e" text-anchor="start" style="white-space: pre;" direction="ltr" dominant-baseline="text-before-edge"></text></g><g stroke-linecap="round"><g stroke-opacity="0.2" fill-opacity="0.2" transform="translate(348.4726508457802 88.4320058011532) rotate(0 55.138712604924876 0)"><path d="M0 0 C30.07 0, 60.15 0, 110.28 0 M0 0 C43.4 0, 86.81 0, 110.28 0" stroke="#364fc7" stroke-width="4" fill="none"></path></g><g stroke-opacity="0.2" fill-opacity="0.2" transform="translate(348.4726508457802 88.4320058011532) rotate(0 55.138712604924876 0)"><path d="M110.28 0 L96.68 6.34 L96.68 -6.34 L110.28 0" stroke="none" stroke-width="0" fill="#364fc7" fill-rule="evenodd"></path><path d="M110.28 0 C106.57 1.73, 102.86 3.46, 96.68 6.34 M110.28 0 C104.93 2.49, 99.58 4.99, 96.68 6.34 M96.68 6.34 C96.68 3.77, 96.68 1.2, 96.68 -6.34 M96.68 6.34 C96.68 3.7, 96.68 1.07, 96.68 -6.34 M96.68 -6.34 C102.04 -3.84, 107.4 -1.34, 110.28 0 M96.68 -6.34 C99.51 -5.02, 102.34 -3.7, 110.28 0 M110.28 0 C110.28 0, 110.28 0, 110.28 0 M110.28 0 C110.28 0, 110.28 0, 110.28 0" stroke="#364fc7" stroke-width="4" fill="none"></path></g></g><mask></mask><g stroke-linecap="round"><g transform="translate(349.0847326619944 310.5961384456979) rotate(0 54.52663078871069 0)"><path d="M0 0 C31.31 0, 62.62 0, 109.05 0 M0 0 C35.29 0, 70.58 0, 109.05 0" stroke="#2b8a3e" stroke-width="4" fill="none"></path></g><g transform="translate(349.0847326619944 310.5961384456979) rotate(0 54.52663078871069 0)"><path d="M109.05 0 L95.46 6.34 L95.46 -6.34 L109.05 0" stroke="none" stroke-width="0" fill="#2b8a3e" fill-rule="evenodd"></path><path d="M109.05 0 C105.15 1.82, 101.25 3.64, 95.46 6.34 M109.05 0 C104.65 2.05, 100.26 4.1, 95.46 6.34 M95.46 6.34 C95.46 2.38, 95.46 -1.59, 95.46 -6.34 M95.46 6.34 C95.46 1.29, 95.46 -3.75, 95.46 -6.34 M95.46 -6.34 C100.9 -3.8, 106.33 -1.27, 109.05 0 M95.46 -6.34 C98.7 -4.83, 101.94 -3.32, 109.05 0 M109.05 0 C109.05 0, 109.05 0, 109.05 0 M109.05 0 C109.05 0, 109.05 0, 109.05 0" stroke="#2b8a3e" stroke-width="4" fill="none"></path></g></g><mask></mask><g stroke-opacity="0.6" fill-opacity="0.6" stroke-linecap="round" transform="translate(247.74669578769 56.77788636592675) rotate(0 21.79815142394932 17.02290143089874)"><path d="M8.51 0 L35.08 0 L38.81 0.53 L41.47 2.13 L43.06 4.79 L43.6 8.51 L43.6 25.53 L43.06 29.26 L41.47 31.92 L38.81 33.51 L35.08 34.05 L8.51 34.05 L4.79 33.51 L2.13 31.92 L0.53 29.26 L0 25.53 L0.53 4.79 L2.13 2.13 L4.79 0.53 L8.51 0" stroke="none" stroke-width="0" fill="#000000"></path><path d="M8.51 0 M8.51 0 C16.52 0, 24.52 0, 35.08 0 M8.51 0 C17.75 0, 27 0, 35.08 0 M35.08 0 C40.76 0, 43.6 2.84, 43.6 8.51 M35.08 0 C40.76 0, 43.6 2.84, 43.6 8.51 M43.6 8.51 C43.6 12.08, 43.6 15.65, 43.6 25.53 M43.6 8.51 C43.6 12.49, 43.6 16.46, 43.6 25.53 M43.6 25.53 C43.6 31.21, 40.76 34.05, 35.08 34.05 M43.6 25.53 C43.6 31.21, 40.76 34.05, 35.08 34.05 M35.08 34.05 C29.54 34.05, 24 34.05, 8.51 34.05 M35.08 34.05 C24.78 34.05, 14.47 34.05, 8.51 34.05 M8.51 34.05 C2.84 34.05, 0 31.21, 0 25.53 M8.51 34.05 C2.84 34.05, 0 31.21, 0 25.53 M0 25.53 C0 20.76, 0 15.99, 0 8.51 M0 25.53 C0 20.1, 0 14.66, 0 8.51 M0 8.51 C0 2.84, 2.84 0, 8.51 0 M0 8.51 C0 2.84, 2.84 0, 8.51 0" stroke="#364fc7" stroke-width="4" fill="none"></path></g><g stroke-opacity="0.6" fill-opacity="0.6" stroke-linecap="round" transform="translate(247.74669578769 75.57710041672487) rotate(0 21.79815142394932 24.12329440549962)"><path d="M0 0 L43.6 0 L43.6 48.25 L0 48.25" stroke="none" stroke-width="0" fill="#000000"></path><path d="M0 0 C13.36 0, 26.72 0, 43.6 0 M0 0 C12.46 0, 24.93 0, 43.6 0 M43.6 0 C43.6 14.22, 43.6 28.44, 43.6 48.25 M43.6 0 C43.6 14.29, 43.6 28.57, 43.6 48.25 M43.6 48.25 C33.94 48.25, 24.29 48.25, 0 48.25 M43.6 48.25 C31.14 48.25, 18.68 48.25, 0 48.25 M0 48.25 C0 30.87, 0 13.49, 0 0 M0 48.25 C0 29.31, 0 10.38, 0 0" stroke="#364fc7" stroke-width="4" fill="none"></path></g><g stroke-opacity="0.6" fill-opacity="0.6" stroke-linecap="round" transform="translate(249.8538716516182 59.38222659248743) rotate(0 19.69097556002123 31.176519779386126)"><path d="M0 0 L39.38 0 L39.38 62.35 L0 62.35" stroke="none" stroke-width="0" fill="#ffffff"></path><path d="M0 0 C15.68 0, 31.36 0, 39.38 0 M0 0 C8.05 0, 16.1 0, 39.38 0 M39.38 0 C39.38 16.26, 39.38 32.51, 39.38 62.35 M39.38 0 C39.38 14.59, 39.38 29.19, 39.38 62.35 M39.38 62.35 C23.91 62.35, 8.44 62.35, 0 62.35 M39.38 62.35 C26.98 62.35, 14.58 62.35, 0 62.35 M0 62.35 C0 49.06, 0 35.76, 0 0 M0 62.35 C0 38.95, 0 15.54, 0 0" stroke="#364fc7" stroke-width="4" fill="none"></path></g><g stroke-opacity="0.6" fill-opacity="0.6" stroke-linecap="round" transform="translate(293.97822539032813 57.16195006249552) rotate(0 21.79815142394932 17.02290143089874)"><path d="M8.51 0 L35.08 0 L38.81 0.53 L41.47 2.13 L43.06 4.79 L43.6 8.51 L43.6 25.53 L43.06 29.26 L41.47 31.92 L38.81 33.51 L35.08 34.05 L8.51 34.05 L4.79 33.51 L2.13 31.92 L0.53 29.26 L0 25.53 L0.53 4.79 L2.13 2.13 L4.79 0.53 L8.51 0" stroke="none" stroke-width="0" fill="#000000"></path><path d="M8.51 0 M8.51 0 C14.39 0, 20.28 0, 35.08 0 M8.51 0 C15.02 0, 21.53 0, 35.08 0 M35.08 0 C40.76 0, 43.6 2.84, 43.6 8.51 M35.08 0 C40.76 0, 43.6 2.84, 43.6 8.51 M43.6 8.51 C43.6 14.64, 43.6 20.77, 43.6 25.53 M43.6 8.51 C43.6 13.34, 43.6 18.18, 43.6 25.53 M43.6 25.53 C43.6 31.21, 40.76 34.05, 35.08 34.05 M43.6 25.53 C43.6 31.21, 40.76 34.05, 35.08 34.05 M35.08 34.05 C28.55 34.05, 22.02 34.05, 8.51 34.05 M35.08 34.05 C25.17 34.05, 15.26 34.05, 8.51 34.05 M8.51 34.05 C2.84 34.05, 0 31.21, 0 25.53 M8.51 34.05 C2.84 34.05, 0 31.21, 0 25.53 M0 25.53 C0 19.44, 0 13.35, 0 8.51 M0 25.53 C0 20.65, 0 15.76, 0 8.51 M0 8.51 C0 2.84, 2.84 0, 8.51 0 M0 8.51 C0 2.84, 2.84 0, 8.51 0" stroke="#364fc7" stroke-width="4" fill="none"></path></g><g stroke-opacity="0.6" fill-opacity="0.6" stroke-linecap="round" transform="translate(293.97822539032813 75.96116411329365) rotate(0 21.79815142394932 24.12329440549962)"><path d="M0 0 L43.6 0 L43.6 48.25 L0 48.25" stroke="none" stroke-width="0" fill="#000000"></path><path d="M0 0 C10.24 0, 20.48 0, 43.6 0 M0 0 C14.57 0, 29.13 0, 43.6 0 M43.6 0 C43.6 14.2, 43.6 28.41, 43.6 48.25 M43.6 0 C43.6 15.56, 43.6 31.12, 43.6 48.25 M43.6 48.25 C29.14 48.25, 14.69 48.25, 0 48.25 M43.6 48.25 C33.43 48.25, 23.26 48.25, 0 48.25 M0 48.25 C0 37, 0 25.75, 0 0 M0 48.25 C0 31.43, 0 14.62, 0 0" stroke="#364fc7" stroke-width="4" fill="none"></path></g><g stroke-opacity="0.6" fill-opacity="0.6" stroke-linecap="round" transform="translate(296.08540125425634 59.76629028905643) rotate(0 19.69097556002123 31.176519779386126)"><path d="M0 0 L39.38 0 L39.38 62.35 L0 62.35" stroke="none" stroke-width="0" fill="#ffffff"></path><path d="M0 0 C10.63 0, 21.26 0, 39.38 0 M0 0 C9.95 0, 19.9 0, 39.38 0 M39.38 0 C39.38 21.62, 39.38 43.24, 39.38 62.35 M39.38 0 C39.38 23.85, 39.38 47.7, 39.38 62.35 M39.38 62.35 C30.15 62.35, 20.92 62.35, 0 62.35 M39.38 62.35 C28.44 62.35, 17.5 62.35, 0 62.35 M0 62.35 C0 40.98, 0 19.61, 0 0 M0 62.35 C0 38.44, 0 14.52, 0 0" stroke="#364fc7" stroke-width="4" fill="none"></path></g><g stroke-opacity="0.6" fill-opacity="0.6" stroke-linecap="round" transform="translate(267.353559462764 54.40804941916815) rotate(0 25.542604004691952 35.589589910140944)"><path d="M0 0 L51.09 0 L51.09 71.18 L0 71.18" stroke="none" stroke-width="0" fill="#ffffff"></path><path d="M0 0 C10.69 0, 21.38 0, 51.09 0 M0 0 C12.55 0, 25.1 0, 51.09 0 M51.09 0 C51.09 19.2, 51.09 38.39, 51.09 71.18 M51.09 0 C51.09 20.35, 51.09 40.7, 51.09 71.18 M51.09 71.18 C39.28 71.18, 27.48 71.18, 0 71.18 M51.09 71.18 C33.95 71.18, 16.8 71.18, 0 71.18 M0 71.18 C0 50.83, 0 30.48, 0 0 M0 71.18 C0 43.2, 0 15.22, 0 0" stroke="#364fc7" stroke-width="4" fill="none"></path></g><g stroke-opacity="0.6" fill-opacity="0.6" stroke-linecap="round" transform="translate(271.0980120435065 44.03032060092835) rotate(0 21.79815142394932 23.396684313397714)"><path d="M10.9 0 L32.7 0 L37.47 0.68 L40.87 2.72 L42.92 6.13 L43.6 10.9 L43.6 35.89 L42.92 40.66 L40.87 44.07 L37.47 46.11 L32.7 46.79 L10.9 46.79 L6.13 46.11 L2.72 44.07 L0.68 40.66 L0 35.89 L0 10.9 L0.68 6.13 L2.72 2.72 L6.13 0.68 L10.9 0" stroke="none" stroke-width="0" fill="#000000"></path><path d="M10.9 0 M10.9 0 C15.94 0, 20.97 0, 32.7 0 M10.9 0 C15.98 0, 21.07 0, 32.7 0 M32.7 0 C39.96 0, 43.6 3.63, 43.6 10.9 M32.7 0 C39.96 0, 43.6 3.63, 43.6 10.9 M43.6 10.9 C43.6 18.04, 43.6 25.19, 43.6 35.89 M43.6 10.9 C43.6 19.61, 43.6 28.32, 43.6 35.89 M43.6 35.89 C43.6 43.16, 39.96 46.79, 32.7 46.79 M43.6 35.89 C43.6 43.16, 39.96 46.79, 32.7 46.79 M32.7 46.79 C25 46.79, 17.29 46.79, 10.9 46.79 M32.7 46.79 C25.6 46.79, 18.5 46.79, 10.9 46.79 M10.9 46.79 C3.63 46.79, 0 43.16, 0 35.89 M10.9 46.79 C3.63 46.79, 0 43.16, 0 35.89 M0 35.89 C0 29.31, 0 22.73, 0 10.9 M0 35.89 C0 29.33, 0 22.77, 0 10.9 M0 10.9 C0 3.63, 3.63 0, 10.9 0 M0 10.9 C0 3.63, 3.63 0, 10.9 0" stroke="#364fc7" stroke-width="4" fill="none"></path></g><g stroke-opacity="0.6" fill-opacity="0.6" stroke-linecap="round" transform="translate(271.0980120435065 75.57710041672487) rotate(0 21.79815142394932 24.12329440549962)"><path d="M0 0 L43.6 0 L43.6 48.25 L0 48.25" stroke="none" stroke-width="0" fill="#000000"></path><path d="M0 0 C12.45 0, 24.9 0, 43.6 0 M0 0 C16.93 0, 33.85 0, 43.6 0 M43.6 0 C43.6 13.51, 43.6 27.02, 43.6 48.25 M43.6 0 C43.6 11.19, 43.6 22.37, 43.6 48.25 M43.6 48.25 C28.83 48.25, 14.06 48.25, 0 48.25 M43.6 48.25 C27.77 48.25, 11.94 48.25, 0 48.25 M0 48.25 C0 29.06, 0 9.87, 0 0 M0 48.25 C0 35.75, 0 23.25, 0 0" stroke="#364fc7" stroke-width="4" fill="none"></path></g><g stroke-opacity="0.6" fill-opacity="0.6" stroke-linecap="round" transform="translate(273.2051879074347 47.91287819949309) rotate(0 19.69097556002123 36.911193975883066)"><path d="M0 0 L39.38 0 L39.38 73.82 L0 73.82" stroke="none" stroke-width="0" fill="#ffffff"></path><path d="M0 0 C15.24 0, 30.47 0, 39.38 0 M0 0 C13.13 0, 26.25 0, 39.38 0 M39.38 0 C39.38 22.24, 39.38 44.48, 39.38 73.82 M39.38 0 C39.38 29.32, 39.38 58.63, 39.38 73.82 M39.38 73.82 C31.12 73.82, 22.87 73.82, 0 73.82 M39.38 73.82 C30.46 73.82, 21.54 73.82, 0 73.82 M0 73.82 C0 58.42, 0 43.02, 0 0 M0 73.82 C0 57.3, 0 40.78, 0 0" stroke="#364fc7" stroke-width="4" fill="none"></path></g><g stroke-opacity="0.6" fill-opacity="0.6" stroke-linecap="round" transform="translate(280.5160462327135 57.86475611921776) rotate(0 12.38011723474267 2.2113297585532905)"><path d="M0 0 L24.76 0 L24.76 4.42 L0 4.42" stroke="none" stroke-width="0" fill="#000000"></path><path d="M0 0 C5.62 0, 11.24 0, 24.76 0 M0 0 C8.36 0, 16.72 0, 24.76 0 M24.76 0 C24.76 1.62, 24.76 3.25, 24.76 4.42 M24.76 0 C24.76 1.08, 24.76 2.17, 24.76 4.42 M24.76 4.42 C19.8 4.42, 14.83 4.42, 0 4.42 M24.76 4.42 C17.73 4.42, 10.7 4.42, 0 4.42 M0 4.42 C0 3.35, 0 2.27, 0 0 M0 4.42 C0 2.77, 0 1.12, 0 0" stroke="#364fc7" stroke-width="2" fill="none"></path></g><g stroke-opacity="0.6" fill-opacity="0.6" stroke-linecap="round" transform="translate(287.9852670942978 102.96376529891893) rotate(0 4.910896373158266 4.854462940764904)"><path d="M9.82 4.85 C9.82 5.14, 9.8 5.42, 9.75 5.7 C9.7 5.97, 9.62 6.25, 9.53 6.51 C9.43 6.78, 9.31 7.04, 9.16 7.28 C9.02 7.53, 8.86 7.76, 8.67 7.97 C8.49 8.19, 8.29 8.39, 8.07 8.57 C7.85 8.75, 7.61 8.92, 7.37 9.06 C7.12 9.2, 6.86 9.32, 6.59 9.42 C6.32 9.51, 6.04 9.59, 5.76 9.64 C5.48 9.68, 5.2 9.71, 4.91 9.71 C4.63 9.71, 4.34 9.68, 4.06 9.64 C3.78 9.59, 3.5 9.51, 3.23 9.42 C2.96 9.32, 2.7 9.2, 2.46 9.06 C2.21 8.92, 1.97 8.75, 1.75 8.57 C1.54 8.39, 1.33 8.19, 1.15 7.97 C0.97 7.76, 0.8 7.53, 0.66 7.28 C0.52 7.04, 0.39 6.78, 0.3 6.51 C0.2 6.25, 0.12 5.97, 0.07 5.7 C0.03 5.42, 0 5.14, 0 4.85 C0 4.57, 0.03 4.29, 0.07 4.01 C0.12 3.73, 0.2 3.46, 0.3 3.19 C0.39 2.93, 0.52 2.67, 0.66 2.43 C0.8 2.18, 0.97 1.95, 1.15 1.73 C1.33 1.52, 1.54 1.32, 1.75 1.14 C1.97 0.96, 2.21 0.79, 2.46 0.65 C2.7 0.51, 2.96 0.39, 3.23 0.29 C3.5 0.2, 3.78 0.12, 4.06 0.07 C4.34 0.02, 4.63 0, 4.91 0 C5.2 0, 5.48 0.02, 5.76 0.07 C6.04 0.12, 6.32 0.2, 6.59 0.29 C6.86 0.39, 7.12 0.51, 7.37 0.65 C7.61 0.79, 7.85 0.96, 8.07 1.14 C8.29 1.32, 8.49 1.52, 8.67 1.73 C8.86 1.95, 9.02 2.18, 9.16 2.43 C9.31 2.67, 9.43 2.93, 9.53 3.19 C9.62 3.46, 9.7 3.73, 9.75 4.01 C9.8 4.29, 9.81 4.71, 9.82 4.85 C9.83 4.99, 9.83 4.71, 9.82 4.85" stroke="none" stroke-width="0" fill="#000000"></path><path d="M9.82 4.85 C9.82 5.14, 9.8 5.42, 9.75 5.7 C9.7 5.97, 9.62 6.25, 9.53 6.51 C9.43 6.78, 9.31 7.04, 9.16 7.28 C9.02 7.53, 8.86 7.76, 8.67 7.97 C8.49 8.19, 8.29 8.39, 8.07 8.57 C7.85 8.75, 7.61 8.92, 7.37 9.06 C7.12 9.2, 6.86 9.32, 6.59 9.42 C6.32 9.51, 6.04 9.59, 5.76 9.64 C5.48 9.68, 5.2 9.71, 4.91 9.71 C4.63 9.71, 4.34 9.68, 4.06 9.64 C3.78 9.59, 3.5 9.51, 3.23 9.42 C2.96 9.32, 2.7 9.2, 2.46 9.06 C2.21 8.92, 1.97 8.75, 1.75 8.57 C1.54 8.39, 1.33 8.19, 1.15 7.97 C0.97 7.76, 0.8 7.53, 0.66 7.28 C0.52 7.04, 0.39 6.78, 0.3 6.51 C0.2 6.25, 0.12 5.97, 0.07 5.7 C0.03 5.42, 0 5.14, 0 4.85 C0 4.57, 0.03 4.29, 0.07 4.01 C0.12 3.73, 0.2 3.46, 0.3 3.19 C0.39 2.93, 0.52 2.67, 0.66 2.43 C0.8 2.18, 0.97 1.95, 1.15 1.73 C1.33 1.52, 1.54 1.32, 1.75 1.14 C1.97 0.96, 2.21 0.79, 2.46 0.65 C2.7 0.51, 2.96 0.39, 3.23 0.29 C3.5 0.2, 3.78 0.12, 4.06 0.07 C4.34 0.02, 4.63 0, 4.91 0 C5.2 0, 5.48 0.02, 5.76 0.07 C6.04 0.12, 6.32 0.2, 6.59 0.29 C6.86 0.39, 7.12 0.51, 7.37 0.65 C7.61 0.79, 7.85 0.96, 8.07 1.14 C8.29 1.32, 8.49 1.52, 8.67 1.73 C8.86 1.95, 9.02 2.18, 9.16 2.43 C9.31 2.67, 9.43 2.93, 9.53 3.19 C9.62 3.46, 9.7 3.73, 9.75 4.01 C9.8 4.29, 9.81 4.71, 9.82 4.85 C9.83 4.99, 9.83 4.71, 9.82 4.85" stroke="#364fc7" stroke-width="2" fill="none"></path></g><g stroke-opacity="0.6" fill-opacity="0.6" transform="translate(182.6116838354942 10) rotate(0 111.328125 12)"><text x="0" y="0" font-family="Cascadia, Segoe UI Emoji" font-size="20px" fill="#364fc7" text-anchor="start" style="white-space: pre;" direction="ltr" dominant-baseline="text-before-edge">Blue Server Cluster</text></g><g stroke-opacity="0.5" fill-opacity="0.5" transform="translate(229.4866838354942 142.8640116023065) rotate(0 64.453125 12)"><text x="0" y="0" font-family="Cascadia, Segoe UI Emoji" font-size="20px" fill="#364fc7" text-anchor="start" style="white-space: pre;" direction="ltr" dominant-baseline="text-before-edge">Version 1.0</text></g><g stroke-linecap="round" transform="translate(241.88732078769 281.984969382019) rotate(0 21.79815142394932 17.02290143089874)"><path d="M8.51 0 L35.08 0 L38.81 0.53 L41.47 2.13 L43.06 4.79 L43.6 8.51 L43.6 25.53 L43.06 29.26 L41.47 31.92 L38.81 33.51 L35.08 34.05 L8.51 34.05 L4.79 33.51 L2.13 31.92 L0.53 29.26 L0 25.53 L0.53 4.79 L2.13 2.13 L4.79 0.53 L8.51 0" stroke="none" stroke-width="0" fill="#000000"></path><path d="M8.51 0 M8.51 0 C18.38 0, 28.25 0, 35.08 0 M8.51 0 C17.54 0, 26.57 0, 35.08 0 M35.08 0 C40.76 0, 43.6 2.84, 43.6 8.51 M35.08 0 C40.76 0, 43.6 2.84, 43.6 8.51 M43.6 8.51 C43.6 14.26, 43.6 20, 43.6 25.53 M43.6 8.51 C43.6 12.48, 43.6 16.45, 43.6 25.53 M43.6 25.53 C43.6 31.21, 40.76 34.05, 35.08 34.05 M43.6 25.53 C43.6 31.21, 40.76 34.05, 35.08 34.05 M35.08 34.05 C29.45 34.05, 23.81 34.05, 8.51 34.05 M35.08 34.05 C27.34 34.05, 19.61 34.05, 8.51 34.05 M8.51 34.05 C2.84 34.05, 0 31.21, 0 25.53 M8.51 34.05 C2.84 34.05, 0 31.21, 0 25.53 M0 25.53 C0 19.13, 0 12.73, 0 8.51 M0 25.53 C0 21.34, 0 17.14, 0 8.51 M0 8.51 C0 2.84, 2.84 0, 8.51 0 M0 8.51 C0 2.84, 2.84 0, 8.51 0" stroke="#2b8a3e" stroke-width="4" fill="none"></path></g><g stroke-linecap="round" transform="translate(241.88732078769 300.78418343281714) rotate(0 21.79815142394932 24.12329440549962)"><path d="M0 0 L43.6 0 L43.6 48.25 L0 48.25" stroke="none" stroke-width="0" fill="#000000"></path><path d="M0 0 C17.06 0, 34.12 0, 43.6 0 M0 0 C14.75 0, 29.49 0, 43.6 0 M43.6 0 C43.6 9.69, 43.6 19.37, 43.6 48.25 M43.6 0 C43.6 18.77, 43.6 37.54, 43.6 48.25 M43.6 48.25 C27.81 48.25, 12.02 48.25, 0 48.25 M43.6 48.25 C31.4 48.25, 19.21 48.25, 0 48.25 M0 48.25 C0 34.19, 0 20.14, 0 0 M0 48.25 C0 33.94, 0 19.64, 0 0" stroke="#2b8a3e" stroke-width="4" fill="none"></path></g><g stroke-linecap="round" transform="translate(243.9944966516182 284.58930960857947) rotate(0 19.69097556002123 31.176519779386126)"><path d="M0 0 L39.38 0 L39.38 62.35 L0 62.35" stroke="none" stroke-width="0" fill="#ffffff"></path><path d="M0 0 C12.99 0, 25.99 0, 39.38 0 M0 0 C11.49 0, 22.98 0, 39.38 0 M39.38 0 C39.38 22.47, 39.38 44.95, 39.38 62.35 M39.38 0 C39.38 17.37, 39.38 34.74, 39.38 62.35 M39.38 62.35 C28.09 62.35, 16.79 62.35, 0 62.35 M39.38 62.35 C23.69 62.35, 8 62.35, 0 62.35 M0 62.35 C0 49.09, 0 35.83, 0 0 M0 62.35 C0 44.35, 0 26.35, 0 0" stroke="#2b8a3e" stroke-width="4" fill="none"></path></g><g stroke-linecap="round" transform="translate(288.11885039032813 282.3690330785878) rotate(0 21.79815142394932 17.02290143089874)"><path d="M8.51 0 L35.08 0 L38.81 0.53 L41.47 2.13 L43.06 4.79 L43.6 8.51 L43.6 25.53 L43.06 29.26 L41.47 31.92 L38.81 33.51 L35.08 34.05 L8.51 34.05 L4.79 33.51 L2.13 31.92 L0.53 29.26 L0 25.53 L0.53 4.79 L2.13 2.13 L4.79 0.53 L8.51 0" stroke="none" stroke-width="0" fill="#000000"></path><path d="M8.51 0 M8.51 0 C18.13 0, 27.76 0, 35.08 0 M8.51 0 C18.76 0, 29.01 0, 35.08 0 M35.08 0 C40.76 0, 43.6 2.84, 43.6 8.51 M35.08 0 C40.76 0, 43.6 2.84, 43.6 8.51 M43.6 8.51 C43.6 13.47, 43.6 18.43, 43.6 25.53 M43.6 8.51 C43.6 15.03, 43.6 21.55, 43.6 25.53 M43.6 25.53 C43.6 31.21, 40.76 34.05, 35.08 34.05 M43.6 25.53 C43.6 31.21, 40.76 34.05, 35.08 34.05 M35.08 34.05 C25.67 34.05, 16.26 34.05, 8.51 34.05 M35.08 34.05 C27.32 34.05, 19.55 34.05, 8.51 34.05 M8.51 34.05 C2.84 34.05, 0 31.21, 0 25.53 M8.51 34.05 C2.84 34.05, 0 31.21, 0 25.53 M0 25.53 C0 19.88, 0 14.22, 0 8.51 M0 25.53 C0 20.32, 0 15.11, 0 8.51 M0 8.51 C0 2.84, 2.84 0, 8.51 0 M0 8.51 C0 2.84, 2.84 0, 8.51 0" stroke="#2b8a3e" stroke-width="4" fill="none"></path></g><g stroke-linecap="round" transform="translate(288.11885039032813 301.1682471293859) rotate(0 21.79815142394932 24.12329440549962)"><path d="M0 0 L43.6 0 L43.6 48.25 L0 48.25" stroke="none" stroke-width="0" fill="#000000"></path><path d="M0 0 C15.04 0, 30.09 0, 43.6 0 M0 0 C9.96 0, 19.93 0, 43.6 0 M43.6 0 C43.6 19.13, 43.6 38.25, 43.6 48.25 M43.6 0 C43.6 18.06, 43.6 36.12, 43.6 48.25 M43.6 48.25 C29.16 48.25, 14.73 48.25, 0 48.25 M43.6 48.25 C28.72 48.25, 13.84 48.25, 0 48.25 M0 48.25 C0 33.77, 0 19.3, 0 0 M0 48.25 C0 36.31, 0 24.37, 0 0" stroke="#2b8a3e" stroke-width="4" fill="none"></path></g><g stroke-linecap="round" transform="translate(290.22602625425634 284.9733733051487) rotate(0 19.69097556002123 31.176519779386126)"><path d="M0 0 L39.38 0 L39.38 62.35 L0 62.35" stroke="none" stroke-width="0" fill="#ffffff"></path><path d="M0 0 C15.49 0, 30.99 0, 39.38 0 M0 0 C11.23 0, 22.45 0, 39.38 0 M39.38 0 C39.38 18.12, 39.38 36.23, 39.38 62.35 M39.38 0 C39.38 16.27, 39.38 32.54, 39.38 62.35 M39.38 62.35 C25.28 62.35, 11.18 62.35, 0 62.35 M39.38 62.35 C27.2 62.35, 15.02 62.35, 0 62.35 M0 62.35 C0 43.23, 0 24.1, 0 0 M0 62.35 C0 45.05, 0 27.74, 0 0" stroke="#2b8a3e" stroke-width="4" fill="none"></path></g><g stroke-linecap="round" transform="translate(261.49418446276377 279.6151324352602) rotate(0 25.542604004691952 35.589589910140944)"><path d="M0 0 L51.09 0 L51.09 71.18 L0 71.18" stroke="none" stroke-width="0" fill="#ffffff"></path><path d="M0 0 C17.55 0, 35.11 0, 51.09 0 M0 0 C11.76 0, 23.52 0, 51.09 0 M51.09 0 C51.09 21.35, 51.09 42.7, 51.09 71.18 M51.09 0 C51.09 16.51, 51.09 33.02, 51.09 71.18 M51.09 71.18 C35.48 71.18, 19.88 71.18, 0 71.18 M51.09 71.18 C39.17 71.18, 27.26 71.18, 0 71.18 M0 71.18 C0 48.33, 0 25.49, 0 0 M0 71.18 C0 51.95, 0 32.72, 0 0" stroke="#2b8a3e" stroke-width="4" fill="none"></path></g><g stroke-linecap="round" transform="translate(265.2386370435065 269.2374036170206) rotate(0 21.79815142394932 23.396684313397714)"><path d="M10.9 0 L32.7 0 L37.47 0.68 L40.87 2.72 L42.92 6.13 L43.6 10.9 L43.6 35.89 L42.92 40.66 L40.87 44.07 L37.47 46.11 L32.7 46.79 L10.9 46.79 L6.13 46.11 L2.72 44.07 L0.68 40.66 L0 35.89 L0 10.9 L0.68 6.13 L2.72 2.72 L6.13 0.68 L10.9 0" stroke="none" stroke-width="0" fill="#000000"></path><path d="M10.9 0 M10.9 0 C17.56 0, 24.21 0, 32.7 0 M10.9 0 C18.34 0, 25.78 0, 32.7 0 M32.7 0 C39.96 0, 43.6 3.63, 43.6 10.9 M32.7 0 C39.96 0, 43.6 3.63, 43.6 10.9 M43.6 10.9 C43.6 18.92, 43.6 26.94, 43.6 35.89 M43.6 10.9 C43.6 17.08, 43.6 23.27, 43.6 35.89 M43.6 35.89 C43.6 43.16, 39.96 46.79, 32.7 46.79 M43.6 35.89 C43.6 43.16, 39.96 46.79, 32.7 46.79 M32.7 46.79 C27.42 46.79, 22.14 46.79, 10.9 46.79 M32.7 46.79 C23.99 46.79, 15.27 46.79, 10.9 46.79 M10.9 46.79 C3.63 46.79, 0 43.16, 0 35.89 M10.9 46.79 C3.63 46.79, 0 43.16, 0 35.89 M0 35.89 C0 29.28, 0 22.67, 0 10.9 M0 35.89 C0 28.94, 0 21.98, 0 10.9 M0 10.9 C0 3.63, 3.63 0, 10.9 0 M0 10.9 C0 3.63, 3.63 0, 10.9 0" stroke="#2b8a3e" stroke-width="4" fill="none"></path></g><g stroke-linecap="round" transform="translate(265.2386370435065 300.78418343281714) rotate(0 21.79815142394932 24.12329440549962)"><path d="M0 0 L43.6 0 L43.6 48.25 L0 48.25" stroke="none" stroke-width="0" fill="#000000"></path><path d="M0 0 C12.36 0, 24.71 0, 43.6 0 M0 0 C12.81 0, 25.63 0, 43.6 0 M43.6 0 C43.6 12.66, 43.6 25.32, 43.6 48.25 M43.6 0 C43.6 10.98, 43.6 21.96, 43.6 48.25 M43.6 48.25 C34.45 48.25, 25.31 48.25, 0 48.25 M43.6 48.25 C32.51 48.25, 21.43 48.25, 0 48.25 M0 48.25 C0 35.75, 0 23.24, 0 0 M0 48.25 C0 30.59, 0 12.93, 0 0" stroke="#2b8a3e" stroke-width="4" fill="none"></path></g><g stroke-linecap="round" transform="translate(267.3458129074347 273.11996121558536) rotate(0 19.69097556002123 36.911193975883066)"><path d="M0 0 L39.38 0 L39.38 73.82 L0 73.82" stroke="none" stroke-width="0" fill="#ffffff"></path><path d="M0 0 C10.17 0, 20.34 0, 39.38 0 M0 0 C12.2 0, 24.41 0, 39.38 0 M39.38 0 C39.38 27.42, 39.38 54.83, 39.38 73.82 M39.38 0 C39.38 17.11, 39.38 34.21, 39.38 73.82 M39.38 73.82 C26.09 73.82, 12.8 73.82, 0 73.82 M39.38 73.82 C28.77 73.82, 18.16 73.82, 0 73.82 M0 73.82 C0 58.16, 0 42.5, 0 0 M0 73.82 C0 45.63, 0 17.43, 0 0" stroke="#2b8a3e" stroke-width="4" fill="none"></path></g><g stroke-linecap="round" transform="translate(274.6566712327135 283.07183913531003) rotate(0 12.38011723474267 2.2113297585532905)"><path d="M0 0 L24.76 0 L24.76 4.42 L0 4.42" stroke="none" stroke-width="0" fill="#000000"></path><path d="M0 0 C7.4 0, 14.8 0, 24.76 0 M0 0 C7.81 0, 15.62 0, 24.76 0 M24.76 0 C24.76 1.33, 24.76 2.67, 24.76 4.42 M24.76 0 C24.76 1.71, 24.76 3.41, 24.76 4.42 M24.76 4.42 C16.82 4.42, 8.88 4.42, 0 4.42 M24.76 4.42 C15.28 4.42, 5.79 4.42, 0 4.42 M0 4.42 C0 3.43, 0 2.44, 0 0 M0 4.42 C0 3.13, 0 1.84, 0 0" stroke="#2b8a3e" stroke-width="2" fill="none"></path></g><g stroke-linecap="round" transform="translate(282.1258920942978 328.1708483150112) rotate(0 4.910896373158266 4.854462940764904)"><path d="M9.82 4.85 C9.82 5.14, 9.8 5.42, 9.75 5.7 C9.7 5.97, 9.62 6.25, 9.53 6.51 C9.43 6.78, 9.31 7.04, 9.16 7.28 C9.02 7.53, 8.86 7.76, 8.67 7.97 C8.49 8.19, 8.29 8.39, 8.07 8.57 C7.85 8.75, 7.61 8.92, 7.37 9.06 C7.12 9.2, 6.86 9.32, 6.59 9.42 C6.32 9.51, 6.04 9.59, 5.76 9.64 C5.48 9.68, 5.2 9.71, 4.91 9.71 C4.63 9.71, 4.34 9.68, 4.06 9.64 C3.78 9.59, 3.5 9.51, 3.23 9.42 C2.96 9.32, 2.7 9.2, 2.46 9.06 C2.21 8.92, 1.97 8.75, 1.75 8.57 C1.54 8.39, 1.33 8.19, 1.15 7.97 C0.97 7.76, 0.8 7.53, 0.66 7.28 C0.52 7.04, 0.39 6.78, 0.3 6.51 C0.2 6.25, 0.12 5.97, 0.07 5.7 C0.03 5.42, 0 5.14, 0 4.85 C0 4.57, 0.03 4.29, 0.07 4.01 C0.12 3.73, 0.2 3.46, 0.3 3.19 C0.39 2.93, 0.52 2.67, 0.66 2.43 C0.8 2.18, 0.97 1.95, 1.15 1.73 C1.33 1.52, 1.54 1.32, 1.75 1.14 C1.97 0.96, 2.21 0.79, 2.46 0.65 C2.7 0.51, 2.96 0.39, 3.23 0.29 C3.5 0.2, 3.78 0.12, 4.06 0.07 C4.34 0.02, 4.63 0, 4.91 0 C5.2 0, 5.48 0.02, 5.76 0.07 C6.04 0.12, 6.32 0.2, 6.59 0.29 C6.86 0.39, 7.12 0.51, 7.37 0.65 C7.61 0.79, 7.85 0.96, 8.07 1.14 C8.29 1.32, 8.49 1.52, 8.67 1.73 C8.86 1.95, 9.02 2.18, 9.16 2.43 C9.31 2.67, 9.43 2.93, 9.53 3.19 C9.62 3.46, 9.7 3.73, 9.75 4.01 C9.8 4.29, 9.81 4.71, 9.82 4.85 C9.83 4.99, 9.83 4.71, 9.82 4.85" stroke="none" stroke-width="0" fill="#000000"></path><path d="M9.82 4.85 C9.82 5.14, 9.8 5.42, 9.75 5.7 C9.7 5.97, 9.62 6.25, 9.53 6.51 C9.43 6.78, 9.31 7.04, 9.16 7.28 C9.02 7.53, 8.86 7.76, 8.67 7.97 C8.49 8.19, 8.29 8.39, 8.07 8.57 C7.85 8.75, 7.61 8.92, 7.37 9.06 C7.12 9.2, 6.86 9.32, 6.59 9.42 C6.32 9.51, 6.04 9.59, 5.76 9.64 C5.48 9.68, 5.2 9.71, 4.91 9.71 C4.63 9.71, 4.34 9.68, 4.06 9.64 C3.78 9.59, 3.5 9.51, 3.23 9.42 C2.96 9.32, 2.7 9.2, 2.46 9.06 C2.21 8.92, 1.97 8.75, 1.75 8.57 C1.54 8.39, 1.33 8.19, 1.15 7.97 C0.97 7.76, 0.8 7.53, 0.66 7.28 C0.52 7.04, 0.39 6.78, 0.3 6.51 C0.2 6.25, 0.12 5.97, 0.07 5.7 C0.03 5.42, 0 5.14, 0 4.85 C0 4.57, 0.03 4.29, 0.07 4.01 C0.12 3.73, 0.2 3.46, 0.3 3.19 C0.39 2.93, 0.52 2.67, 0.66 2.43 C0.8 2.18, 0.97 1.95, 1.15 1.73 C1.33 1.52, 1.54 1.32, 1.75 1.14 C1.97 0.96, 2.21 0.79, 2.46 0.65 C2.7 0.51, 2.96 0.39, 3.23 0.29 C3.5 0.2, 3.78 0.12, 4.06 0.07 C4.34 0.02, 4.63 0, 4.91 0 C5.2 0, 5.48 0.02, 5.76 0.07 C6.04 0.12, 6.32 0.2, 6.59 0.29 C6.86 0.39, 7.12 0.51, 7.37 0.65 C7.61 0.79, 7.85 0.96, 8.07 1.14 C8.29 1.32, 8.49 1.52, 8.67 1.73 C8.86 1.95, 9.02 2.18, 9.16 2.43 C9.31 2.67, 9.43 2.93, 9.53 3.19 C9.62 3.46, 9.7 3.73, 9.75 4.01 C9.8 4.29, 9.81 4.71, 9.82 4.85 C9.83 4.99, 9.83 4.71, 9.82 4.85" stroke="#2b8a3e" stroke-width="2" fill="none"></path></g><g transform="translate(176.7523088354942 235.20708301609216) rotate(0 117.1875 12)"><text x="0" y="0" font-family="Cascadia, Segoe UI Emoji" font-size="20px" fill="#2b8a3e" text-anchor="start" style="white-space: pre;" direction="ltr" dominant-baseline="text-before-edge">Green Server Cluster</text></g><g transform="translate(229.3593379542683 361.9851938753035) rotate(0 64.453125 12)"><text x="0" y="0" font-family="Cascadia, Segoe UI Emoji" font-size="20px" fill="#2b8a3e" text-anchor="start" style="white-space: pre;" direction="ltr" dominant-baseline="text-before-edge">Version 1.0</text></g></svg>